<svg width="294" height="203" viewBox="0 0 294 203" fill="none" xmlns="http://www.w3.org/2000/svg">
<g clip-path="url(#clip0_31_5)">
<path d="M139.938 48.0004C139.797 48.4246 139.48 48.6406 138.982 48.6406C138.488 48.5699 138.132 48.6053 137.92 48.7467C137.991 48.8174 137.814 48.9588 137.391 49.1709C136.968 49.3123 136.541 49.4891 136.118 49.7051C135.694 49.8465 135.373 49.9879 135.161 50.1294C135.02 50.2001 135.267 50.1294 135.906 49.9172C135.977 50.1294 135.412 50.4161 134.209 50.7696C133.077 51.0524 131.768 51.3392 130.283 51.622C128.868 51.9048 127.489 52.1562 126.145 52.3683C124.871 52.5804 124.127 52.6865 123.915 52.6865C123.065 52.7572 121.862 52.934 120.306 53.2207C118.75 53.5035 117.124 53.861 115.423 54.2852C113.727 54.6387 112.061 54.9962 110.435 55.3497C108.879 55.6325 107.641 55.8446 106.72 55.99L106.508 56.2021V56.096C106.508 56.096 106.367 56.2021 106.085 56.4142C105.874 56.5556 105.521 56.8384 105.023 57.2666C104.529 57.6908 103.82 58.2957 102.899 59.0774C102.12 59.8591 101.308 60.6407 100.458 61.4224C99.6782 62.1334 98.867 62.7697 98.0167 63.3393C97.5935 63.8381 97.1663 64.2624 96.7431 64.6159C96.3199 64.9694 95.8222 65.3269 95.258 65.6804C94.9053 66.1792 94.4782 66.5328 93.9844 66.7449C93.5612 67.0277 93.0988 67.3851 92.605 67.8094C92.1818 68.1629 91.7194 68.5203 91.2257 68.8739C90.7319 69.2274 90.2343 69.5848 89.7405 69.9383C88.3259 70.9321 86.9113 71.9613 85.4966 73.0258C84.082 74.161 82.6674 75.2255 81.2527 76.2232C79.556 77.1463 77.9611 78.1754 76.4759 79.3106C74.9908 80.4458 73.3645 81.4042 71.5933 82.1859C71.2406 82.398 70.8879 82.6494 70.5313 82.9322C70.1787 83.2151 69.7163 83.3565 69.152 83.3565C68.1606 83.9967 67.0986 84.6331 65.97 85.2733C64.8376 85.9843 63.6345 86.5499 62.361 86.9781C61.4401 87.473 60.5231 87.8658 59.6022 88.1486C58.6814 88.5022 57.7291 88.895 56.7377 89.3192C56.6437 89.2721 56.6437 89.2721 56.7377 89.3192C56.8788 89.4606 56.8788 89.5313 56.7377 89.5313C56.244 89.6727 55.8168 89.8141 55.4642 89.9555C55.1115 90.1676 54.7549 90.3444 54.4022 90.4897C53.9085 90.7019 53.3755 90.9179 52.8112 91.13C52.247 91.4128 51.714 91.7349 51.2203 92.0884C50.9381 91.947 50.7265 91.947 50.5855 92.0884C50.5149 92.2299 50.3386 92.3006 50.0564 92.3006C49.4216 92.8701 48.6418 93.2943 47.7209 93.5772C46.8 93.86 45.9536 94.2174 45.1738 94.6417H44.7506C42.9127 95.494 41.071 96.2757 39.2331 96.9867C37.4658 97.6977 35.5535 98.2986 33.5041 98.7975C33.363 98.8682 33.2572 98.9389 33.1867 99.0096C33.1867 99.151 33.0809 99.2571 32.8693 99.3278C31.8779 99.6106 30.9609 99.8973 30.1105 100.18C29.3307 100.463 28.3432 100.64 27.1402 100.714C26.9991 100.714 26.9286 100.785 26.9286 100.926C26.9991 101.068 26.9639 101.139 26.8228 101.139C26.2585 101.139 25.7609 101.209 25.3376 101.351C24.985 101.563 24.5931 101.669 24.1699 101.669C21.4817 102.168 18.5819 102.521 15.4666 102.733C12.3552 102.945 9.34567 102.663 6.44588 101.881L5.48973 101.457C5.06651 101.315 4.67465 101.209 4.32197 101.139C3.89876 101.139 3.43636 101.033 2.94261 100.82C2.09227 100.396 1.35164 99.7913 0.712904 99.0096C-0.000289205 98.3104 -0.176628 97.2106 0.17605 95.7179C0.458192 95.2898 0.740334 94.8302 1.02639 94.3353C1.238 93.9071 1.41434 93.5182 1.55541 93.1647C2.04916 92.0295 2.72317 91.0004 3.57351 90.0773C4.42386 89.1542 5.23502 88.3372 6.01483 87.6262C6.29697 87.1274 6.68883 86.7031 7.18258 86.3496C7.60579 86.0668 7.99766 85.7093 8.35033 85.2851C11.1091 83.0854 13.8325 81.1685 16.5207 79.5345C19.2089 77.9711 21.9323 76.5531 24.6911 75.2726C27.4498 73.996 30.2791 72.7508 33.1828 71.5449C36.0826 70.339 39.1626 68.9878 42.4151 67.4991C42.8383 66.0771 43.3712 64.447 44.0061 62.6008C44.6409 60.6839 45.3149 58.7671 46.0241 56.8502C46.7334 54.9333 47.4035 53.0872 48.0423 51.3117C48.7515 49.4655 49.3158 47.8315 49.739 46.4134C49.8801 45.7025 50.0917 45.1722 50.3778 44.8147C50.4483 44.2452 50.5188 43.7856 50.5894 43.4282C50.6599 43.0746 50.801 42.7525 51.0126 42.4697C52.3567 38.7067 53.6655 35.0497 54.9391 31.4988C56.2126 27.8771 57.6273 24.3616 59.183 20.956L60.4565 17.6525C60.5976 17.299 60.7739 17.0476 60.9855 16.9062C61.1971 16.6941 61.3029 16.3366 61.3029 15.8417C61.0913 15.4882 60.8797 15.4175 60.6681 15.6296C60.4565 15.771 60.2096 15.9124 59.9275 16.0538C56.4595 17.3304 53.6302 18.3635 51.4358 19.1412C49.3119 19.9229 47.4388 20.6339 45.8125 21.2702C44.1863 21.9105 42.5914 22.6175 41.0357 23.3992C39.48 24.1102 37.603 25.1039 35.4125 26.3806C34.8482 26.7341 34.28 27.1622 33.7157 27.6572C33.1514 28.0814 32.5127 28.4035 31.8073 28.6156C31.1725 28.9691 30.4985 29.2912 29.7892 29.574C29.0799 29.7861 28.5157 30.1082 28.0924 30.5325C27.4576 30.9567 26.8542 31.4202 26.2899 31.9191C25.7256 32.3433 24.9458 32.4886 23.9544 32.3433C23.8133 32.3433 23.6722 32.3079 23.5312 32.2372C23.3195 32.0958 23.1079 31.9544 22.8963 31.813C22.4026 31.6716 21.9755 31.5655 21.6228 31.4948C21.2701 31.4241 20.9135 31.212 20.5608 30.8546C20.3492 30.6425 20.0671 30.3911 19.7105 30.1082C19.3578 29.7547 19.1815 29.468 19.1815 29.2559C19.1815 28.9023 19.4989 28.5095 20.1376 28.0853C20.7724 27.5865 21.1643 27.2683 21.3054 27.1269C21.658 26.9855 22.0499 26.8441 22.4731 26.7027C22.8963 26.4905 23.3235 26.2431 23.7467 25.9563C24.7381 25.3868 25.8 24.8211 26.9286 24.2516C28.0611 23.682 29.1583 23.081 30.2203 22.4408C31.8465 21.6591 33.4375 20.9481 34.9971 20.3118C36.5528 19.6008 38.179 18.8898 39.8797 18.1828C43.6299 16.6194 47.5211 15.06 51.5534 13.4967C55.5856 11.9333 59.7237 10.6567 63.9715 9.66291C64.1831 9.30938 64.3595 8.95193 64.5005 8.59841C64.6416 8.17419 64.8532 7.81674 65.1354 7.53392V6.7876C65.347 6.36337 65.5586 5.97057 65.7702 5.61705C66.0523 5.19282 66.4795 4.94143 67.0437 4.87072C67.1143 4.87072 67.1495 4.83537 67.1495 4.76467V4.55255C67.5022 4.41114 67.7844 4.26974 67.9999 4.12833C68.282 3.98692 68.5289 3.84551 68.7444 3.7041C70.1591 3.91621 71.221 4.37972 71.9264 5.09069C72.7062 5.73096 73.3763 6.51263 73.9445 7.43572C75.5002 7.36501 77.0559 7.22361 78.6155 7.01149C80.2417 6.79938 81.9072 6.65797 83.6039 6.58727C86.01 6.44586 88.6629 6.37515 91.5627 6.37515C94.533 6.30445 97.4681 6.44586 100.372 6.79938C103.272 7.0822 106.03 7.61641 108.648 8.39808C111.336 9.10905 113.601 10.2089 115.439 11.7015C116.43 12.4832 117.347 13.4063 118.198 14.4708C119.048 15.5353 119.789 16.5644 120.427 17.5582C121.062 18.6227 121.63 19.7933 122.124 21.0738C122.688 22.2797 123.08 23.5956 123.292 25.0136C123.504 26.8598 123.116 29.0595 122.124 31.6166C121.203 34.1737 120.036 36.7309 118.621 39.2841C117.206 41.8412 115.721 44.2177 114.165 46.4213C112.61 48.621 111.336 50.255 110.345 51.3195C111.336 51.2488 112.469 51.0721 113.742 50.7853C115.086 50.5025 116.395 50.2158 117.669 49.933C119.013 49.5794 120.322 49.2927 121.595 49.0806C122.939 48.7978 124.107 48.5817 125.098 48.4403C125.808 48.2989 126.513 48.2282 127.222 48.2282C127.928 48.1575 128.672 48.1221 129.452 48.1221C130.585 47.91 131.541 47.7686 132.317 47.6979C133.096 47.5565 133.766 47.4504 134.331 47.3797C134.895 47.309 135.428 47.2737 135.922 47.2737C136.49 47.203 137.16 47.0969 137.94 46.9555C138.151 46.9555 138.434 46.9909 138.79 47.0616C139.213 47.1323 139.425 47.2383 139.425 47.3797C139.707 47.7333 139.778 47.914 139.637 47.914C139.496 47.8432 139.601 47.8786 139.954 48.02L139.938 48.0004ZM65.0178 61.5285C68.1997 60.6054 71.2798 59.7176 74.2501 58.8653C77.2205 57.9422 80.1947 57.0898 83.165 56.3081C86.1354 55.5265 89.141 54.8155 92.1857 54.1791C95.2971 53.4682 98.5183 52.8318 101.841 52.2623C102.476 51.622 103.221 50.7696 104.071 49.7051C104.992 48.6406 105.909 47.5408 106.83 46.4056C107.751 45.2704 108.597 44.1705 109.377 43.1021C110.227 42.0376 110.933 41.1853 111.501 40.545C112.136 39.6219 112.774 38.5574 113.413 37.3515C114.048 36.1456 114.616 34.9004 115.11 33.6238C115.674 32.3472 116.136 31.0667 116.489 29.7901C116.912 28.4428 117.159 27.1976 117.234 26.0624C117.375 23.792 116.846 21.553 115.643 19.3533C114.44 17.1536 112.813 15.661 110.76 14.8793C106.657 13.316 102.731 12.3222 98.9807 11.8979C95.3011 11.3991 91.8017 11.2577 88.4748 11.4737C85.2223 11.6151 82.1775 11.9333 79.3483 12.4322C76.519 12.931 73.9014 13.3199 71.4953 13.6027C70.8605 14.8793 70.3628 15.8731 70.0102 16.5841C69.728 17.2243 69.3401 17.9667 68.8424 18.8191C68.2076 20.025 67.7452 21.1288 67.463 22.1226C67.1104 22.4761 66.8988 22.8336 66.8282 23.1871C66.8282 23.3992 66.6872 23.8627 66.405 24.5737C66.1229 25.1432 65.8407 25.6735 65.5547 26.1724C65.3431 26.6712 65.1667 27.2369 65.0256 27.8771C64.673 28.5174 64.3556 29.1184 64.0695 29.6879C63.8579 30.2575 63.6463 30.8231 63.4347 31.3927C63.4347 31.6048 63.3994 31.8562 63.3289 32.139C63.3289 32.4218 63.2936 32.7439 63.2231 33.0975L61.3108 36.9312C60.7465 37.9957 60.2488 39.1663 59.8256 40.4468C59.4729 41.6527 59.1163 42.7918 58.7637 43.8563C58.411 45.0622 57.9133 46.272 57.2785 47.4779C56.7142 48.6131 56.2165 49.7876 55.7933 50.9935C55.5817 51.6338 55.1938 52.6629 54.6256 54.0809C54.0613 55.4282 53.4931 56.9209 52.9288 58.555C52.3645 60.1183 51.7963 61.6424 51.232 63.135C50.7383 64.6277 50.417 65.7629 50.2759 66.5445C51.3378 66.2617 52.4703 65.9043 53.6733 65.48C54.9469 64.9812 56.2557 64.5216 57.5998 64.0974C58.9439 63.5985 60.2527 63.139 61.5263 62.7108C62.7999 62.2119 63.9676 61.8231 65.0296 61.5402L65.0178 61.5285ZM89.956 58.0129C84.227 59.5762 79.556 60.8882 75.9469 61.9527C72.4084 62.9465 69.6144 63.7635 67.5649 64.4038C65.5116 65.044 64.0617 65.5036 63.2152 65.7864C62.3649 66.0692 61.8006 66.2499 61.5185 66.3206C61.3069 66.6742 61.1658 66.8195 61.0952 66.7449C58.7597 67.3851 56.4595 68.3082 54.1984 69.5141C52.004 70.72 50.1662 71.5724 48.681 72.0713C48.1167 74.2002 47.478 76.1171 46.7687 77.8219C46.1339 79.5973 45.4246 81.3021 44.6448 82.9362C44.5743 82.9362 44.5037 82.9715 44.4332 83.0422C44.4332 83.1129 44.3626 83.1483 44.2216 83.1483C44.01 83.8592 43.7278 84.3188 43.3712 84.5309C43.0186 84.8138 42.6267 84.9591 42.2035 84.9591C41.8508 84.9591 41.4237 84.8884 40.9299 84.747C40.4362 84.6763 39.9385 84.6409 39.4448 84.6409C39.2331 84.2874 39.0921 83.8592 39.0215 83.3643C39.0215 82.8694 39.0568 82.3705 39.1273 81.8717C39.1979 81.3021 39.3037 80.489 39.4448 79.4206C39.6564 78.3561 39.868 77.327 40.0796 76.3332C40.3617 75.1273 40.6086 73.9174 40.8202 72.7115C40.1109 72.8529 39.3703 73.1358 38.5905 73.5639C37.8812 74.0588 37.1406 74.487 36.3608 74.8405C36.0081 74.9819 35.6162 75.088 35.193 75.1587C34.7698 75.2294 34.378 75.4415 34.0253 75.799C31.3371 76.7927 28.931 77.7158 26.8071 78.5682C24.6832 79.4206 22.4222 80.6265 20.0161 82.1898C18.3899 83.325 16.8695 84.3188 15.4509 85.1712C13.9657 86.0236 12.41 87.0881 10.7799 88.3647C10.7799 88.5061 10.8152 88.5768 10.8857 88.5768C10.8857 88.6475 10.8504 88.7536 10.7799 88.895C10.4978 89.3192 10.2156 89.6413 9.92955 89.8534C9.57687 90.0655 9.25554 90.2423 8.9734 90.3876C8.62072 90.5997 8.29939 90.8118 8.01725 91.0279C7.73511 91.3107 7.45297 91.6681 7.16691 92.0924C7.23744 92.2338 7.37851 92.2691 7.59012 92.1984C7.73119 92.1277 7.83699 92.1277 7.90753 92.1984C7.55485 92.8387 7.16299 93.475 6.73977 94.1153C6.24603 94.7556 5.95996 95.5726 5.88943 96.5664C6.45371 96.9906 7.09245 97.242 7.79781 97.3127C8.50708 97.4541 9.2477 97.5248 10.0275 97.5248C10.7368 97.5248 11.4774 97.4895 12.2572 97.4188C12.9665 97.3481 13.6366 97.3481 14.2753 97.4188C14.8396 97.2774 15.3373 97.1359 15.7605 96.9945C16.1132 96.9238 16.4698 96.9238 16.8224 96.9945C17.1046 96.9238 17.3867 96.8531 17.6728 96.7824C17.8844 96.7117 18.0607 96.6764 18.2018 96.6764C21.3837 96.1068 24.358 95.3644 27.1167 94.4413C29.8754 93.5889 32.6342 92.7366 35.3929 91.8842C35.6045 91.6721 35.8514 91.456 36.1374 91.2439C36.4196 91.1025 36.737 91.0318 37.0936 91.0318C37.3757 90.8904 37.6579 90.7136 37.9439 90.4976C38.2966 90.3562 38.6885 90.2501 39.1117 90.1794C42.2936 88.7575 45.4089 87.3041 48.4498 85.8115C51.4907 84.3188 54.5002 82.724 57.4705 81.0193C57.6116 81.1607 57.6821 81.1607 57.6821 81.0193C57.7526 80.9486 57.8584 80.9132 57.9995 80.9132C58.1406 80.7718 58.3169 80.6304 58.5285 80.4851C58.8107 80.3437 59.0576 80.2023 59.2731 80.0609C59.7668 80.0609 60.194 79.8487 60.5466 79.4206C60.9698 79.0671 61.3617 78.851 61.7144 78.7803C62.5647 78.5682 63.6972 78.1047 65.1119 77.3977C66.5265 76.6867 68.0469 75.8343 69.6732 74.8405C71.3699 73.9174 73.0706 72.8883 74.7674 71.7531C76.5347 70.6886 78.1648 69.6595 79.65 68.6657C81.1352 67.6719 82.4087 66.7842 83.4707 66.0025C84.5326 65.1501 85.238 64.5805 85.5946 64.2977C86.0883 64.0856 86.7271 63.6928 87.5069 63.1272C88.2867 62.5576 89.0979 61.9213 89.9482 61.2103C90.8691 60.4286 91.8213 59.6469 92.8127 58.8653C93.8041 58.0129 94.7564 57.2666 95.6773 56.6302C95.113 56.7009 94.2274 56.8777 93.0243 57.1644C91.8213 57.4473 91.0807 57.6594 90.7946 57.8047C90.6536 57.8047 90.5478 57.8754 90.4772 58.0168C90.4067 58.1582 90.2303 58.1582 89.9482 58.0168L89.956 58.0129Z" fill="#F80059"/>
<path d="M135.992 59.6116C136.204 59.8237 136.807 59.753 137.795 59.3995C138.786 58.9713 139.989 58.441 141.404 57.8008C142.889 57.0898 144.515 56.3081 146.287 55.4597C148.054 54.6073 149.825 53.861 151.593 53.2246C152.086 53.0832 152.654 52.8711 153.289 52.5844C153.995 52.3016 154.528 52.0502 154.88 51.838C155.445 51.4845 156.013 51.1271 156.577 50.7736C157.141 50.42 157.815 50.1686 158.595 50.0272C158.877 49.9565 159.018 49.8505 159.018 49.7091C159.018 49.4969 159.054 49.5323 159.124 49.8151C159.265 49.8858 159.371 49.9212 159.442 49.9212C159.512 49.8505 159.583 49.8505 159.653 49.9212C159.653 50.204 159.477 50.5968 159.124 51.0917L158.38 51.732C157.815 52.2308 157.212 52.7258 156.577 53.2246C155.942 53.6489 155.233 54.0417 154.453 54.3952C153.818 54.9647 153.039 55.495 152.118 55.9939C151.267 56.4888 150.421 56.9523 149.571 57.3766C148.791 57.6594 147.662 58.2996 146.173 59.2934C144.758 60.2872 143.238 61.3164 141.612 62.3808C140.056 63.4453 138.606 64.4038 137.262 65.2562C135.918 66.0378 134.997 66.3207 134.503 66.1085C134.292 66.3207 134.151 66.3914 134.08 66.3206H133.657C132.524 66.3206 131.533 66.2146 130.687 66.0025C129.907 65.7197 129.237 65.1855 128.668 64.4038C128.457 63.5514 128.457 62.699 128.668 61.8466C128.88 60.9943 129.162 60.0358 129.519 58.9713C129.73 58.4018 129.942 57.8715 130.154 57.3726C130.436 56.8738 130.647 56.3435 130.788 55.7739C131.071 55.2044 131.353 54.6034 131.639 53.9631C131.921 53.3228 132.168 52.7219 132.383 52.1523C133.163 50.5182 133.974 48.8881 134.825 47.2541C135.675 45.5493 136.592 43.9859 137.583 42.5679C138.148 42.2144 138.681 41.9984 139.174 41.9277C139.456 41.7862 139.739 41.8216 140.025 42.0337C140.377 42.1751 140.66 42.1751 140.875 42.0337C141.087 42.3165 141.298 42.5679 141.51 42.78C141.792 42.9922 141.968 43.2789 142.039 43.6324C142.109 44.1313 142.145 44.5201 142.145 44.803C142.215 45.0858 142.18 45.4079 142.039 45.7614C142.109 46.2563 141.968 46.7905 141.616 47.3601C141.475 47.5722 141.369 47.8236 141.298 48.1064C141.228 48.3185 141.122 48.5699 140.981 48.8528C140.91 48.9235 140.84 48.9588 140.769 48.9588C140.769 48.8881 140.734 48.8881 140.663 48.9588C140.522 49.0295 140.452 49.1356 140.452 49.277C140.452 49.4184 140.381 49.5244 140.24 49.5951C139.746 50.5889 139.214 51.6181 138.649 52.6826C138.085 53.7471 137.552 54.7762 137.058 55.77C136.565 56.6931 136.208 57.5101 135.996 58.2211C135.785 58.932 135.785 59.3916 135.996 59.6037L135.992 59.6116ZM140.342 33.6238C140.272 33.4117 140.448 33.0189 140.871 32.4533C141.294 31.8837 141.792 31.3534 142.356 30.8546C142.924 30.3557 143.489 30.0022 144.053 29.7901C144.621 29.578 145.08 29.684 145.432 30.1082C145.573 30.1082 145.679 30.1436 145.75 30.2143C145.891 30.285 145.997 30.3204 146.067 30.3204C146.561 30.8899 146.702 31.597 146.49 32.4493C146.349 33.231 145.997 33.7613 145.428 34.0481C145.499 34.1895 145.499 34.2955 145.428 34.3662C145.358 34.3662 145.323 34.4369 145.323 34.5783C145.111 34.4369 145.005 34.5076 145.005 34.7904C145.076 35.0733 144.97 35.144 144.688 35.0026C144.758 35.2147 144.653 35.4268 144.37 35.6428C144.159 35.8549 144.053 36.0671 144.053 36.2831C143.912 36.2124 143.841 36.2124 143.841 36.2831H143.63C143.489 36.6366 143.171 36.9234 142.674 37.1355C142.25 37.2769 141.929 37.489 141.718 37.7757C141.576 37.7757 141.435 37.8111 141.294 37.8818C141.224 37.9525 141.047 37.9171 140.765 37.7757C140.342 37.6343 140.06 37.4222 139.915 37.1355C139.774 36.782 139.703 36.3891 139.703 35.9649C139.774 35.5407 139.88 35.1125 140.021 34.6883C140.162 34.2641 140.268 33.9066 140.338 33.6238H140.342Z" fill="#F80059"/>
<path d="M136.266 115.103C135.487 114.533 134.887 113.862 134.464 113.08C133.97 112.369 133.829 111.98 134.041 111.909C133.899 108.217 134.781 104.348 136.693 100.298C138.606 96.2522 141.078 92.2378 144.123 88.2626C147.164 84.3582 150.491 80.5951 154.1 76.9735C157.709 73.4226 161.138 70.1937 164.394 67.2791C164.888 66.9256 165.527 66.3914 166.307 65.6804C167.086 64.8987 167.686 64.3685 168.109 64.0817C168.818 63.7282 169.277 63.4768 169.489 63.3354C169.771 63.1233 169.947 62.9819 170.018 62.9112C170.088 62.9112 170.229 62.593 170.441 61.9527C170.723 61.3125 170.793 60.9943 170.652 60.9943C170.935 60.4994 171.146 60.1419 171.287 59.9298C171.428 59.647 171.534 59.3956 171.605 59.1835C171.746 58.9714 171.852 58.7593 171.922 58.5432C171.993 58.2604 172.134 57.8322 172.345 57.2666C172.486 56.9131 172.592 56.5556 172.663 56.2021C172.804 55.8486 172.804 55.4558 172.663 55.0316C172.522 55.0316 172.381 55.2437 172.239 55.6718C172.028 55.6718 171.922 55.7072 171.922 55.7779C171.781 55.9193 171.64 56.0607 171.499 56.2021C171.358 56.3435 171.217 56.4849 171.076 56.6303C170.723 56.7717 170.476 56.9484 170.335 57.1645C169.7 57.8047 169.026 58.3704 168.317 58.8692C167.682 59.2974 167.079 59.7923 166.514 60.3619C166.303 60.574 165.915 60.8607 165.347 61.2143C164.782 61.4971 164.179 61.8192 163.544 62.1727C162.909 62.4555 162.27 62.7423 161.632 63.0251C161.067 63.2372 160.605 63.3786 160.252 63.4532C160.111 63.5239 159.688 63.5593 158.979 63.5593C158.344 63.5593 157.635 63.5239 156.855 63.4532C156.15 63.3825 155.44 63.3118 154.731 63.2411C154.096 63.1704 153.704 63.0644 153.563 62.923H153.775C153.634 62.8523 153.528 62.7462 153.457 62.6048C153.387 62.4634 153.211 62.3927 152.928 62.3927C152.646 61.9684 152.47 61.4696 152.399 60.9C152.329 60.3305 152.329 59.7295 152.399 59.0892C152.47 58.4489 152.576 57.848 152.717 57.2784C152.858 56.7088 152.999 56.2139 153.14 55.7857C153.352 55.4322 153.528 55.0748 153.669 54.7212C153.881 54.2931 154.057 53.9042 154.198 53.5507C154.339 53.5507 154.41 53.5153 154.41 53.4446C154.41 53.3739 154.48 53.3386 154.621 53.3386C154.833 52.769 155.366 51.9559 156.212 50.8875C157.133 49.7523 158.156 48.6171 159.288 47.478C160.421 46.2721 161.483 45.1683 162.47 44.1745C163.532 43.11 164.273 42.3637 164.7 41.9395C164.771 41.8688 164.947 41.7274 165.229 41.5153C165.511 41.3031 165.829 41.091 166.185 40.875C166.538 40.6629 166.855 40.4508 167.141 40.2347C167.423 40.0226 167.635 39.9165 167.776 39.9165C168.556 39.4923 169.332 39.0288 170.112 38.53C170.891 37.9604 171.667 37.5362 172.447 37.2533C172.729 37.1119 173.011 37.0412 173.297 37.0412C173.58 36.9705 173.791 36.9352 173.932 36.9352C175.065 37.0059 175.559 37.2534 175.417 37.6815C175.347 38.1057 174.994 38.6046 174.356 39.1742C173.721 39.673 172.976 40.2386 172.126 40.8789C171.275 41.4485 170.676 41.9434 170.323 42.3716C169.829 42.7251 169.367 43.0825 168.944 43.4361C168.521 43.7896 168.164 44.2531 167.882 44.8226C167.529 45.1762 167.137 45.4983 166.714 45.7811C166.291 46.0639 166.009 46.4921 165.864 47.0577C165.441 47.4112 165.013 47.804 164.59 48.2282C164.238 48.6525 163.92 49.0806 163.634 49.5048C162.929 49.8584 162.361 50.3926 161.937 51.1035C161.585 51.8145 161.122 52.4155 160.558 52.9144C159.99 53.7667 159.425 54.6545 158.861 55.5776C158.367 56.5006 157.94 57.5298 157.588 58.665C157.588 58.8771 157.517 59.0892 157.376 59.3052C157.306 59.5174 157.27 59.6941 157.27 59.8355C157.552 59.9769 157.764 60.0123 157.905 59.9416C158.117 59.8709 158.293 59.8002 158.434 59.7295C158.998 59.376 159.496 59.0539 159.919 58.771C160.413 58.4175 160.981 58.0601 161.616 57.7065C161.969 57.4237 162.251 57.2116 162.466 57.0663C162.678 56.9249 162.96 56.7835 163.317 56.6421C164.731 55.6483 166.181 54.5484 167.666 53.3386C169.152 52.1327 170.601 50.9229 172.016 49.717C172.369 49.5048 172.725 49.1827 173.078 48.7585C173.501 48.3343 173.893 47.9415 174.246 47.588C174.598 47.3052 174.986 47.0577 175.414 46.8416C175.837 46.5588 176.048 46.2367 176.048 45.8832C176.189 45.5297 176.225 45.3136 176.154 45.2429C176.154 45.1722 176.331 44.9601 176.683 44.6027C176.895 44.3906 177.106 44.1392 177.318 43.8564C177.6 43.5028 178.027 43.3221 178.592 43.3221C178.803 43.3221 178.98 43.3928 179.121 43.5343C179.332 43.605 179.579 43.605 179.865 43.5343C179.936 43.6757 180.077 43.7464 180.288 43.7464C180.5 43.6757 180.676 43.711 180.817 43.8524C181.382 44.422 181.703 44.9169 181.774 45.3451C181.915 45.7732 181.915 46.3035 181.774 46.9438C181.562 47.5133 181.386 48.1497 181.244 48.8606C181.174 49.5009 180.998 50.1019 180.715 50.6715C180.574 51.736 180.292 52.7651 179.865 53.7589C179.512 54.682 179.23 55.6404 179.015 56.6342C179.438 55.9232 180.183 55.2123 181.244 54.5052C182.306 53.7942 183.404 53.1225 184.536 52.4823C185.739 51.842 186.872 51.2764 187.934 50.7775C188.996 50.2826 189.736 49.8544 190.163 49.5009H190.481C190.622 49.3595 190.763 49.2181 190.904 49.0767C191.116 48.9353 191.292 48.8646 191.433 48.8646C191.786 48.5818 192.178 48.3304 192.601 48.1183C193.024 47.8354 193.522 47.6547 194.086 47.584C194.086 47.5133 194.051 47.478 193.98 47.478C195.395 46.6963 196.809 45.95 198.224 45.2429C199.639 44.5359 201.159 43.9663 202.785 43.5382C202.785 43.6089 202.75 43.6442 202.679 43.6442C202.609 43.6442 202.574 43.6796 202.574 43.7503C202.503 43.821 202.397 43.8564 202.256 43.8564C202.186 43.7856 202.08 43.7856 201.939 43.8564C202.08 43.9978 202.15 44.0331 202.15 43.9624C202.15 43.8917 202.221 43.8564 202.362 43.8564C202.362 43.9271 202.327 43.9624 202.256 43.9624V44.1745C202.538 44.2452 202.679 44.2452 202.679 44.1745C202.75 44.0331 202.856 43.9624 202.997 43.9624C202.856 44.2452 202.644 44.422 202.362 44.4966C202.15 44.4966 201.939 44.638 201.727 44.9208C201.727 45.0623 201.798 45.0623 201.939 44.9208C201.798 45.2037 201.621 45.3844 201.41 45.4551C201.198 45.4551 201.022 45.5258 200.881 45.6672C200.951 45.7379 201.198 45.7025 201.625 45.5611C200.92 45.9893 200.175 46.3428 199.396 46.6256C198.69 46.8377 198.052 47.2305 197.483 47.7962C197.413 47.9376 197.483 48.0083 197.695 48.0083C197.342 48.3618 196.668 48.9313 195.681 49.713C194.689 50.424 193.592 51.2057 192.389 52.0581C191.257 52.8397 190.124 53.6214 188.992 54.3992C187.93 55.1101 187.119 55.6758 186.55 56.1039C185.916 56.5321 185.277 56.9563 184.638 57.3805C184.003 57.8087 183.4 58.3036 182.835 58.8732C182.412 59.0146 182.02 59.1913 181.668 59.4074C181.386 59.6195 181.068 59.8709 180.712 60.1537L179.861 60.794C179.367 61.1475 178.905 61.4696 178.482 61.7524C178.129 61.9645 177.847 62.322 177.631 62.8169C176.997 63.2411 176.534 63.8814 176.252 64.7338C176.041 65.5862 175.758 66.4032 175.402 67.1849C173.489 71.5175 171.511 76.0975 169.457 80.9251C167.478 85.7526 165.178 90.368 162.56 94.7713C159.943 99.2453 156.902 103.256 153.434 106.807C150.036 110.358 146.039 113.056 141.443 114.902C140.593 115.185 139.746 115.362 138.896 115.437C137.975 115.578 137.093 115.472 136.243 115.118L136.266 115.103ZM166.193 71.431C164.496 73.0651 162.76 74.7345 160.993 76.4353C159.226 78.2108 157.595 79.8449 156.11 81.3336C154.625 82.8262 153.352 84.1382 152.29 85.2734C151.228 86.4793 150.487 87.3317 150.06 87.8305C148.927 89.2525 147.724 90.7058 146.451 92.1985C145.177 93.6911 143.974 95.2505 142.842 96.8846C141.639 98.5894 140.612 100.365 139.766 102.211C138.915 104.057 138.351 106.045 138.069 108.174C138.281 108.315 138.351 108.598 138.281 109.026C138.21 109.525 138.351 109.949 138.704 110.303C141.039 109.949 143.304 108.955 145.495 107.321C147.619 105.758 149.633 103.77 151.545 101.359C153.528 99.0175 155.366 96.425 157.063 93.5851C158.83 90.8158 160.425 88.0112 161.839 85.1713C163.254 82.402 164.528 79.7742 165.66 77.2877C166.793 74.8013 167.713 72.743 168.419 71.1089C168.278 70.8261 168.278 70.614 168.419 70.4687C168.63 70.3273 168.701 70.1505 168.63 69.9384C168.278 70.2919 167.815 70.5433 167.251 70.6847C166.687 70.8261 166.33 71.0736 166.189 71.431H166.193Z" fill="#F80059"/>
<path d="M200.348 59.6116C200.559 59.8237 201.163 59.753 202.15 59.3995C203.142 58.9713 204.345 58.441 205.76 57.8008C207.245 57.0898 208.871 56.3081 210.642 55.4597C212.409 54.6073 214.181 53.861 215.948 53.2246C216.442 53.0832 217.01 52.8711 217.645 52.5844C218.35 52.3016 218.883 52.0502 219.236 51.838C219.8 51.4845 220.368 51.1271 220.933 50.7736C221.497 50.42 222.171 50.1686 222.951 50.0272C223.233 49.9565 223.374 49.8505 223.374 49.7091C223.374 49.4969 223.409 49.5323 223.48 49.8151C223.621 49.8858 223.726 49.9212 223.797 49.9212C223.868 49.8505 223.938 49.8505 224.009 49.9212C224.009 50.204 223.832 50.5968 223.48 51.0917L222.735 51.732C222.167 52.2308 221.567 52.7258 220.933 53.2246C220.298 53.6489 219.588 54.0417 218.809 54.3952C218.174 54.9647 217.394 55.495 216.473 55.9939C215.623 56.4888 214.776 56.9523 213.926 57.3766C213.146 57.6594 212.018 58.2996 210.529 59.2934C209.114 60.2872 207.593 61.3164 205.963 62.3808C204.408 63.4453 202.958 64.4038 201.614 65.2562C200.27 66.0378 199.349 66.3207 198.855 66.1085C198.643 66.3207 198.502 66.3914 198.432 66.3206H198.008C196.876 66.3206 195.885 66.2146 195.038 66.0025C194.258 65.7197 193.588 65.1855 193.02 64.4038C192.808 63.5514 192.808 62.699 193.02 61.8466C193.232 60.9943 193.514 60.0358 193.87 58.9713C194.082 58.4018 194.294 57.8715 194.505 57.3726C194.787 56.8738 194.999 56.3435 195.14 55.7739C195.422 55.2044 195.704 54.6034 195.99 53.9631C196.273 53.3228 196.519 52.7219 196.735 52.1523C197.515 50.5182 198.326 48.8881 199.176 47.2541C200.027 45.5493 200.944 43.9859 201.935 42.5679C202.499 42.2144 203.032 41.9984 203.526 41.9277C203.808 41.7862 204.09 41.8216 204.376 42.0337C204.729 42.1751 205.011 42.1751 205.227 42.0337C205.438 42.3165 205.65 42.5679 205.861 42.78C206.144 42.9922 206.32 43.2789 206.39 43.6324C206.461 44.1313 206.496 44.5201 206.496 44.803C206.567 45.0858 206.532 45.4079 206.39 45.7614C206.461 46.2563 206.32 46.7905 205.967 47.3601C205.826 47.5722 205.72 47.8236 205.65 48.1064C205.579 48.3185 205.473 48.5699 205.332 48.8528C205.262 48.9235 205.191 48.9588 205.121 48.9588C205.121 48.8881 205.086 48.8881 205.015 48.9588C204.874 49.0295 204.803 49.1356 204.803 49.277C204.803 49.4184 204.733 49.5244 204.592 49.5951C204.098 50.5889 203.565 51.6181 203.001 52.6826C202.433 53.7471 201.904 54.7762 201.41 55.77C200.916 56.6931 200.559 57.5101 200.348 58.2211C200.136 58.932 200.136 59.3916 200.348 59.6037V59.6116ZM204.698 33.6238C204.627 33.4117 204.803 33.0189 205.227 32.4533C205.65 31.8837 206.147 31.3534 206.712 30.8546C207.276 30.3557 207.844 30.0022 208.409 29.7901C208.973 29.578 209.435 29.684 209.788 30.1082C209.929 30.1082 210.035 30.1436 210.105 30.2143C210.246 30.285 210.352 30.3204 210.423 30.3204C210.916 30.8899 211.058 31.597 210.846 32.4493C210.705 33.231 210.352 33.7613 209.784 34.0481C209.855 34.1895 209.855 34.2955 209.784 34.3662C209.713 34.3662 209.678 34.4369 209.678 34.5783C209.467 34.4369 209.361 34.5076 209.361 34.7904C209.431 35.0733 209.326 35.144 209.043 35.0026C209.114 35.2147 209.008 35.4268 208.726 35.6428C208.514 35.8549 208.409 36.0671 208.409 36.2831C208.267 36.2124 208.197 36.2124 208.197 36.2831H207.985C207.844 36.6366 207.527 36.9234 207.029 37.1355C206.606 37.2769 206.285 37.489 206.073 37.7757C205.932 37.7757 205.791 37.8111 205.65 37.8818C205.579 37.9525 205.403 37.9171 205.121 37.7757C204.698 37.6343 204.412 37.4222 204.27 37.1355C204.129 36.782 204.059 36.3891 204.059 35.9649C204.129 35.5407 204.235 35.1125 204.376 34.6883C204.517 34.2641 204.623 33.9066 204.694 33.6238H204.698Z" fill="#F80059"/>
<path d="M217.496 70.6886H217.39C216.826 70.4058 216.505 70.0837 216.434 69.7302C216.364 69.3767 216.328 69.0192 216.328 68.6657C216.469 66.0379 216.752 63.4807 217.179 60.9982C217.672 58.5118 218.205 56.1353 218.77 53.861C219.479 51.0918 220.29 48.3932 221.211 45.7654C222.132 43.1375 222.978 40.4743 223.758 37.7758C224.111 36.7113 224.432 35.6821 224.714 34.6883C225.067 33.6239 225.42 32.5947 225.776 31.6009C224.855 31.7423 223.974 31.9544 223.123 32.2412C222.343 32.4533 221.356 32.8461 220.153 33.4117C219.73 33.5532 219.232 33.7299 218.668 33.946C218.174 34.0874 217.676 34.2288 217.183 34.3702C216.971 34.5116 216.724 34.6884 216.442 34.9044C216.23 35.1165 215.984 35.2579 215.697 35.3286C215.345 35.3993 215.063 35.47 214.847 35.5407C214.565 35.5407 214.389 35.47 214.318 35.3286C213.965 35.1165 213.789 34.7944 213.789 34.3702C213.789 33.946 213.86 33.4471 214.001 32.8775C214.142 32.524 214.318 32.1666 214.53 31.813C214.671 31.4595 214.812 31.1374 214.953 30.8546L216.226 30.3204C216.72 30.179 217.394 30.0376 218.245 29.8962C219.165 29.6841 220.086 29.4719 221.003 29.2559C221.924 29.0438 222.771 28.867 223.55 28.7217C224.33 28.5803 224.824 28.5096 225.036 28.5096C225.388 28.4389 225.71 28.3682 225.992 28.2975C226.344 28.2268 226.697 28.1207 227.054 27.9793C227.833 25.7796 228.645 23.6113 229.495 21.4823C230.416 19.3534 231.368 17.1851 232.36 14.9854C232.853 14.0623 233.28 13.1392 233.633 12.2162C234.056 11.2224 234.448 10.2639 234.801 9.34084C235.153 8.77128 235.4 8.241 235.545 7.74214C235.686 7.53002 235.757 7.31791 235.757 7.10187C235.757 6.88583 235.827 6.713 235.969 6.56766C236.039 6.21414 236.18 5.89204 236.392 5.60922C236.603 5.2557 236.78 4.82755 236.921 4.33262C237.062 3.9791 237.168 3.58629 237.238 3.16207C237.379 2.73784 237.556 2.41574 237.767 2.20363C237.908 1.99152 238.367 1.74012 239.147 1.45731C239.926 1.17449 240.596 1.03308 241.165 1.03308C241.87 1.03308 242.579 1.20984 243.289 1.56729C243.998 1.85011 244.421 2.27826 244.562 2.8439C244.703 3.12672 244.668 3.44881 244.456 3.80233C244.315 4.08515 244.104 4.40725 243.822 4.76077C243.68 5.04359 243.575 5.33033 243.504 5.61315C243.504 5.89597 243.434 6.21807 243.293 6.57159C242.513 8.27635 241.772 10.0165 241.063 11.7919C240.354 13.5674 239.542 15.2722 238.621 16.9062C237.912 18.4696 237.172 19.9936 236.392 21.4863C235.686 22.9789 234.977 24.503 234.268 26.0663H234.374C235.224 25.8542 236.07 25.7128 236.921 25.6421C237.771 25.5007 238.582 25.3593 239.362 25.2179C240.495 25.0765 241.274 25.0058 241.698 25.0058C242.121 24.9351 242.477 24.9351 242.76 25.0058H243.822C244.315 24.9351 245.166 24.829 246.369 24.6876C247.148 24.6169 247.924 24.5816 248.704 24.5816C249.554 24.5109 250.436 24.6523 251.357 25.0058C251.216 25.1472 251.181 25.2886 251.251 25.43C251.322 25.5007 251.392 25.6068 251.463 25.7482C251.533 25.7482 251.569 25.7128 251.569 25.6421C251.569 25.5007 251.604 25.43 251.674 25.43C251.533 25.5714 251.463 25.7835 251.463 26.0703C251.463 26.357 251.428 26.5338 251.357 26.6045C251.004 26.8166 250.683 26.9227 250.401 26.9227C250.119 26.9227 249.872 26.9934 249.656 27.1348C249.586 27.2762 249.551 27.3469 249.551 27.3469C247.003 27.7004 244.209 28.0579 241.169 28.4114C238.198 28.7649 235.369 29.2638 232.677 29.904L232.36 30.9685C231.156 34.7316 229.918 38.4946 228.645 42.2576C227.371 46.0207 226.203 49.7837 225.141 53.5468C225 54.1163 224.789 54.682 224.507 55.2515C224.224 55.8211 224.013 56.4221 223.872 57.0623C223.519 57.6319 223.272 58.2682 223.127 58.9792C223.057 59.6902 222.88 60.3265 222.598 60.8961C222.528 61.0375 222.387 61.2143 222.175 61.4303C222.034 61.6424 221.963 61.8545 221.963 62.0706C221.822 62.4241 221.716 62.7815 221.646 63.1351C221.575 63.4886 221.505 63.846 221.434 64.1996C221.364 64.5531 221.329 64.9459 221.329 65.3701C221.329 65.7943 221.293 66.1164 221.223 66.3285L220.588 67.393C220.447 67.7466 220.376 68.104 220.376 68.4575C220.376 68.811 220.341 69.1685 220.27 69.522C219.918 69.6634 219.777 69.7695 219.847 69.8402C219.918 69.9816 219.777 70.0877 219.424 70.1584C219.212 70.2998 218.895 70.3705 218.468 70.3705C218.115 70.4412 217.798 70.5472 217.512 70.6886H217.496Z" fill="#F80059"/>
<path d="M266.361 53.4328C268.414 52.6512 269.613 52.4391 269.97 52.7926C270.393 53.0754 270.217 53.5389 269.441 54.1752C269.229 54.3874 268.947 54.5288 268.591 54.6034C268.308 54.6741 268.062 54.9923 267.846 55.5618C266.784 56.4849 266.043 57.0898 265.616 57.3726C265.193 57.5848 264.911 57.6555 264.766 57.5848C263.633 58.0836 262.607 58.72 261.69 59.5016C260.769 60.2833 259.817 60.9943 258.825 61.6306C257.904 62.2709 256.878 62.7658 255.749 63.1233C254.687 63.4768 253.414 63.4768 251.928 63.1233C251.787 63.1233 251.611 63.0879 251.399 63.0172C251.258 62.8758 251.082 62.7697 250.87 62.699C250.236 62.4162 249.773 62.0941 249.491 61.7406C249.279 61.3164 249.068 60.8529 248.856 60.3579C248.715 59.7884 248.609 59.1167 248.539 58.335C248.539 57.4826 248.609 56.6303 248.75 55.7779C248.609 55.7072 248.504 55.7425 248.433 55.8839C248.433 55.9546 248.398 55.99 248.327 55.99C248.186 56.0607 248.045 56.1668 247.904 56.3082C247.763 56.3789 247.587 56.4849 247.375 56.6263C247.022 57.0506 246.666 57.4434 246.313 57.7969C246.031 58.1504 245.639 58.4371 245.145 58.6493C245.004 58.9321 244.793 59.1442 244.51 59.2895C244.299 59.4309 244.123 59.5723 243.981 59.7138C243.911 59.7138 243.876 59.7845 243.876 59.9259C243.946 59.9966 243.946 60.0319 243.876 60.0319C243.735 60.1026 243.523 60.2087 243.241 60.3501C242.959 60.4208 242.747 60.5622 242.606 60.7743C240.98 61.9095 239.244 62.8679 237.406 63.6496C236.912 64.0031 236.379 64.3252 235.815 64.6081C235.321 64.8202 234.824 64.8909 234.33 64.8202H233.374C233.162 64.8202 232.88 64.7495 232.523 64.6081C231.955 64.5374 231.391 64.502 230.827 64.502C230.258 64.4313 229.8 64.1838 229.447 63.7557C228.667 63.2607 228.456 62.3377 228.812 60.9864C228.812 60.9157 228.848 60.8804 228.918 60.8804C228.989 60.8804 229.024 60.8097 229.024 60.6683C229.095 59.8866 229.341 59.1756 229.769 58.5393C230.121 57.8283 230.513 57.192 230.936 56.6224C231.501 55.6286 232.139 54.7055 232.845 53.8531C233.554 53.0008 234.224 52.113 234.863 51.19C235.427 50.6911 236.313 49.8741 237.516 48.7389C238.719 47.6037 239.992 46.4685 241.336 45.3293C242.68 44.1234 243.919 43.0943 245.051 42.2419C246.184 41.3188 246.96 40.8239 247.387 40.7493C248.163 40.3958 248.766 39.9676 249.189 39.4727C249.683 38.9031 250.428 38.4789 251.419 38.1961H251.525C251.525 38.1254 251.56 38.09 251.631 38.09C251.772 38.09 251.913 38.1254 252.054 38.1961C252.265 38.1961 252.442 38.1254 252.583 37.9839C253.006 38.1961 253.504 38.3021 254.068 38.3021C254.35 38.6556 254.668 39.0131 255.024 39.3666C255.377 39.6494 255.553 40.0069 255.553 40.4311C255.765 40.6432 255.8 40.926 255.659 41.2835C255.518 41.637 255.306 41.8884 255.024 42.0298C254.813 42.2419 254.566 42.348 254.28 42.348C253.998 42.2773 253.715 42.3126 253.429 42.454C252.72 42.7369 252.05 43.165 251.411 43.7306L250.138 44.583C250.138 44.583 250.067 44.6537 249.926 44.7951C249.714 44.7951 249.468 44.8658 249.181 45.0072C248.97 45.078 248.794 45.3254 248.652 45.7536C248.088 45.895 247.52 46.1778 246.956 46.606C246.391 46.9595 245.823 47.3169 245.259 47.6704C244.906 48.024 244.585 48.3461 244.303 48.6289C244.021 48.841 243.699 49.0885 243.347 49.3752C242.778 49.8701 242.179 50.4043 241.544 50.9739C240.909 51.5435 240.306 52.1091 239.741 52.6787C239.389 52.9615 239.036 53.3189 238.68 53.7432C238.397 54.0967 238.009 54.3834 237.512 54.5955C237.512 54.8784 237.371 55.1298 237.089 55.3419V55.554C236.665 55.7661 236.309 56.0882 236.027 56.5124C235.815 56.8659 235.568 57.2234 235.282 57.5769C235.141 58.2172 234.859 58.7828 234.432 59.2817C234.009 59.7766 233.762 60.3108 233.691 60.8804C234.396 60.6683 234.965 60.3462 235.388 59.9219C237.794 58.5 240.094 57.0113 242.285 55.4479C244.479 53.8139 246.74 52.1091 249.076 50.3336C249.71 49.7641 250.314 49.3045 250.878 48.947C251.513 48.5935 252.117 48.024 252.681 47.2423H252.998V47.1362C253.069 46.9241 253.175 46.7474 253.316 46.602C253.457 46.4606 253.563 46.2485 253.633 45.9618C253.704 45.8203 253.739 45.6436 253.739 45.4275C253.739 45.2115 253.809 45.0387 253.95 44.8933C254.162 44.8226 254.409 44.7873 254.695 44.7873H256.713C256.995 44.9287 257.383 45.1054 257.881 45.3215C258.375 45.5336 258.625 46.0325 258.625 46.8141C258.414 47.4544 258.096 48.0554 257.669 48.625C257.317 49.1945 256.925 49.7955 256.502 50.4358C256.36 51.076 256.114 51.6417 255.757 52.1405V52.6747C255.475 52.8162 255.263 53.1382 255.122 53.6332C255.052 53.9867 254.981 54.2734 254.911 54.4856C254.911 54.6977 254.805 55.0198 254.593 55.444L253.958 57.7851C253.958 58.7082 254.135 59.2424 254.487 59.3838C254.84 59.5252 255.267 59.4899 255.761 59.2777C256.325 59.0656 256.929 58.7789 257.563 58.4254C258.198 58.0011 258.766 57.679 259.26 57.4669C260.463 57.0388 261.702 56.4024 262.975 55.55C264.249 54.6977 265.381 53.9867 266.373 53.4211L266.361 53.4328Z" fill="#F80059"/>
<path d="M293.15 1.98758C293.503 2.3411 293.754 2.62784 293.895 2.83996C294.036 3.05207 294.036 3.44487 293.895 4.01051C293.895 4.50937 293.754 5.0043 293.472 5.50315C293.26 5.92738 293.048 6.32018 292.837 6.6737C292.696 7.31397 292.484 7.87961 292.202 8.37846C291.99 8.80269 291.814 9.37225 291.673 10.0832C290.968 11.9294 290.258 13.8109 289.549 15.7278C288.914 17.574 288.205 19.3141 287.425 20.9481C286.649 21.9419 286.046 22.9711 285.623 24.0355C285.27 25.1 284.913 26.1999 284.561 27.339C282.723 31.813 280.881 36.3577 279.043 40.9732C277.205 45.5886 275.469 50.3454 273.843 55.2476C273.632 56.5242 273.275 57.8047 272.781 59.0813C272.358 60.3579 272.001 61.6738 271.719 63.0211C271.719 63.52 271.649 63.9442 271.508 64.2977C271.155 65.4329 271.014 66.6428 271.084 67.9194C270.732 67.9194 270.485 68.0254 270.34 68.2375C270.199 68.5204 269.987 68.701 269.705 68.7717C269.137 68.7717 268.749 68.5243 268.537 68.0254C268.396 67.6012 268.114 67.4205 267.687 67.4912C267.546 67.1377 267.334 66.8509 267.052 66.6388C266.841 66.4267 266.699 66.1046 266.629 65.6804C266.699 64.6866 266.841 63.6221 267.052 62.483C267.264 61.3478 267.511 60.354 267.797 59.5016C268.29 56.4496 268.964 53.5742 269.815 50.8757C270.665 48.1064 271.512 45.4432 272.362 42.8861C272.291 42.8861 272.221 42.9215 272.15 42.9922L272.256 42.8861V42.674C272.538 42.5326 272.715 42.3205 272.785 42.0337C272.856 41.6802 272.961 41.3581 273.103 41.0753C273.385 40.0815 273.808 38.8402 274.376 37.3476C274.94 35.7842 275.544 34.2248 276.179 32.6615C276.813 31.0274 277.417 29.468 277.981 27.9753C278.616 26.4827 279.114 25.3122 279.466 24.4598V24.3537C280.317 22.5783 281.057 20.7674 281.696 18.9213C282.401 17.0751 283.111 15.1936 283.82 13.2767C284.384 11.8548 284.917 10.4014 285.411 8.90875C285.905 7.34539 286.367 5.89203 286.79 4.54079C287.143 3.4763 287.39 2.4118 287.535 1.34731C287.676 0.923084 288.17 0.565635 289.02 0.282817C289.941 0 290.682 -0.0707043 291.25 0.0707043C291.814 0.212113 292.206 0.424226 292.417 0.710971C292.7 0.993789 292.947 1.42194 293.162 1.98758H293.15Z" fill="#F80059"/>
<path d="M68.0281 203C67.8165 202.859 67.5696 202.717 67.2874 202.576C67.0053 202.505 66.7192 202.646 66.4371 203C66.4371 202.788 66.296 202.682 66.0139 202.682C65.8023 202.682 65.6965 202.611 65.6965 202.47C65.6259 202.611 65.5201 202.646 65.3791 202.576C65.3085 202.505 65.1674 202.47 64.9558 202.47C64.3876 201.9 64.035 201.122 63.8939 200.129C63.8939 199.917 63.8234 199.846 63.6823 199.917C63.6117 199.987 63.5412 199.952 63.4707 199.81C63.0475 196.829 62.9417 193.918 63.1533 191.075C63.4354 188.305 63.8978 185.571 64.5326 182.873C65.0969 180.386 65.7709 177.904 66.5468 175.417C67.3972 173.002 68.3141 170.661 69.3055 168.386C69.8698 167.322 70.3675 166.222 70.7907 165.083C71.2139 163.948 71.6763 162.848 72.1701 161.779C73.7258 158.586 75.3912 155.424 77.1585 152.301C78.9258 149.178 80.6618 146.052 82.3585 142.929C82.0059 143.07 81.614 143.353 81.1908 143.781C80.8381 144.209 80.4854 144.598 80.1288 144.952C78.5731 146.299 77.088 147.721 75.6733 149.214C74.2587 150.706 72.7383 152.089 71.1081 153.37C69.4819 154.717 67.8909 156.068 66.3313 157.415C64.8461 158.763 63.2904 160.114 61.6642 161.461C60.1085 162.809 58.5175 164.124 56.8874 165.401C55.3317 166.678 53.6349 167.923 51.7931 169.129C50.9428 169.628 50.0611 170.158 49.1402 170.727C48.2899 171.297 47.3729 171.863 46.3815 172.432C45.3901 173.002 44.3634 173.567 43.3053 174.137C42.3139 174.706 41.252 175.06 40.1234 175.201C38.4972 175.201 37.3294 174.954 36.6201 174.455C35.2761 174.597 34.1788 174.49 33.3285 174.137C32.5487 173.783 31.8081 173.214 31.0988 172.432C30.5306 171.792 30.1426 171.01 29.931 170.087C29.6489 169.235 29.5078 168.312 29.5078 167.318C29.5078 166.324 29.5783 165.33 29.7194 164.337C29.8605 163.343 30.0721 162.384 30.3542 161.461C31.3457 158.268 32.5487 155.212 33.9633 152.301C35.4485 149.39 36.9689 146.621 38.5285 143.993C42.7724 137.107 47.6903 130.642 53.2783 124.609C58.8663 118.571 64.8109 113.033 71.1081 107.993C72.6638 106.787 74.2195 105.542 75.7791 104.265C77.4054 102.989 79.1413 101.708 80.9792 100.432C82.1822 99.6499 83.4205 98.7975 84.694 97.8744C85.9676 96.9514 87.2412 96.0283 88.5147 95.1052C89.0829 94.7517 89.5767 94.4649 89.9999 94.2528C90.4231 93.97 90.8855 93.754 91.3792 93.6126C92.9349 93.4004 94.2438 93.7186 95.3057 94.571C96.3677 95.3527 96.9672 96.4525 97.1083 97.8744C97.2494 98.5854 97.1436 99.2218 96.7909 99.7913C96.4382 100.361 96.0111 100.82 95.5173 101.178C95.0236 101.531 94.4554 101.747 93.8206 101.818C93.2563 101.889 92.7233 101.995 92.2296 102.136C90.7444 102.49 89.3298 103.095 87.9857 103.947C86.7121 104.729 85.4033 105.511 84.0592 106.292C80.6618 108.421 77.5856 110.766 74.8269 113.323C71.8566 115.88 68.9529 118.402 66.1236 120.885C63.2943 123.371 60.5709 126.105 57.9532 129.086C56.6797 130.508 55.4061 131.962 54.1326 133.454C52.9295 134.947 51.6912 136.436 50.4177 137.928C49.8495 138.639 49.2852 139.382 48.7209 140.163C48.1527 140.945 47.6237 141.762 47.1299 142.615C46.5657 143.396 45.9975 144.213 45.4332 145.066C44.9394 145.847 44.4418 146.629 43.948 147.411C42.9566 149.045 42.0044 150.75 41.0835 152.521C40.1626 154.226 39.2104 156.001 38.219 157.847C37.7957 158.7 37.3333 159.588 36.8396 160.511C36.4164 161.504 36.0598 162.498 35.7776 163.492C35.566 164.698 35.425 165.868 35.3544 167.008C35.2839 168.143 35.6013 169.278 36.3106 170.417C36.8043 170.629 37.5489 170.594 38.5403 170.311C39.6022 170.028 40.4134 169.706 40.9816 169.353C42.8939 168.5 44.7317 167.471 46.499 166.265C48.2663 165.059 49.967 163.849 51.5933 162.644C53.8583 160.939 56.0527 159.234 58.1727 157.529C60.3671 155.825 62.4871 154.12 64.5405 152.415C68.7844 148.793 72.9577 145.242 77.0644 141.762C81.2378 138.211 85.3759 134.66 89.4787 131.109L64.3289 139.417C63.2669 139.771 62.205 140.128 61.1469 140.482C60.1555 140.835 59.1641 141.263 58.1766 141.758C57.8239 141.9 57.432 142.076 57.0088 142.292C56.6562 142.505 56.229 142.646 55.7353 142.717C55.171 142.787 54.6028 142.752 54.0385 142.611C53.4742 142.469 53.0118 142.222 52.6591 141.864C52.4475 141.723 52.1301 141.511 51.703 141.224C51.3503 140.871 51.1387 140.584 51.0682 140.372C51.0682 139.947 51.4914 139.59 52.3417 139.307C53.1921 138.954 53.8974 138.632 54.4656 138.349C58.4979 136.432 62.636 134.621 66.8799 132.916C71.1943 131.212 75.6185 129.542 80.1445 127.912C82.6211 127.13 85.2035 126.313 87.8916 125.461C90.5798 124.538 93.268 123.756 95.9562 123.116C98.6444 122.334 101.368 121.553 104.127 120.771C106.885 119.989 109.75 119.424 112.72 119.066C113.782 118.925 114.879 118.854 116.012 118.854C117.144 118.783 118.242 118.783 119.303 118.854C119.586 118.854 119.868 118.889 120.154 118.96C120.436 119.031 120.648 119.137 120.789 119.278C120.93 119.278 120.965 119.314 120.894 119.384C120.824 119.384 120.753 119.42 120.683 119.49C120.824 119.632 120.93 119.738 121 119.809C121.141 119.809 121.212 119.915 121.212 120.127C121.212 120.48 121.322 120.732 121.533 120.873C121.177 121.085 120.789 121.227 120.365 121.297C120.436 121.58 120.33 121.831 120.048 122.044C118.14 122.397 116.192 122.896 114.213 123.536C112.301 124.106 110.463 124.707 108.696 125.347C107.704 125.701 106.607 126.093 105.404 126.518C104.201 126.871 103.033 127.264 101.901 127.688C101.548 127.83 101.192 127.971 100.839 128.112C100.486 128.254 100.165 128.395 99.8827 128.537C99.6006 128.607 99.4242 128.784 99.3537 129.071C99.2831 129.283 99.1773 129.534 99.0363 129.817C97.8332 131.164 96.6302 132.586 95.4272 134.079C94.2947 135.572 93.2328 137.06 92.2453 138.553C91.6771 139.405 91.0775 140.258 90.4427 141.11C89.8745 141.963 89.3102 142.85 88.7459 143.773C87.6134 145.62 86.5515 147.501 85.564 149.418C84.6431 151.264 83.6556 153.11 82.5936 154.956C81.5317 156.873 80.5756 158.79 79.7291 160.707L74.6349 172.742C74.4938 173.312 74.2822 173.772 74.0001 174.125C73.7179 174.553 73.4711 175.013 73.2555 175.512C72.0525 178.78 70.8847 182.256 69.7523 185.948C68.6903 189.712 68.0555 193.581 67.8439 197.56C67.985 198.059 68.0555 198.66 68.0555 199.371C68.0555 200.081 68.126 200.647 68.2671 201.075C68.126 201.358 68.126 201.68 68.2671 202.034C68.4082 202.387 68.3376 202.709 68.0555 202.992L68.0281 203Z" fill="#F80059"/>
<path d="M134.299 130.465C134.157 130.677 134.087 130.854 134.087 130.999C134.157 131.141 134.052 131.282 133.77 131.424C133.77 131.565 133.664 131.636 133.452 131.636C133.311 131.989 133.025 132.205 132.602 132.276C132.249 132.347 131.932 132.559 131.646 132.916C130.231 133.341 128.746 133.875 127.19 134.515C125.634 135.155 124.114 135.862 122.625 136.644C121.21 137.355 119.901 138.101 118.698 138.879C117.495 139.661 116.575 140.442 115.94 141.224C115.371 141.794 114.772 142.395 114.137 143.035C113.502 143.675 112.934 144.382 112.44 145.164C112.229 145.733 111.982 146.441 111.696 147.293C111.484 148.145 111.273 148.998 111.061 149.85C110.849 150.632 110.603 151.343 110.32 151.979C110.109 152.619 109.897 153.008 109.686 153.15C109.544 153.432 109.262 153.825 108.835 154.32C108.412 154.815 108.055 155.031 107.773 154.96C106.711 155.455 105.794 155.389 105.015 154.748C104.309 154.108 104.058 153.22 104.27 152.085C104.411 151.374 104.728 150.31 105.226 148.892C105.72 147.47 106.041 146.37 106.182 145.588V145.482C106.253 145.27 106.288 145.054 106.288 144.842C106.852 143.848 107.315 142.819 107.667 141.754C108.02 140.69 108.447 139.661 108.941 138.667C108.941 138.596 108.976 138.561 109.047 138.561C109.188 138.49 109.258 138.419 109.258 138.349C109.611 136.927 110.038 135.544 110.532 134.193C111.096 132.775 111.594 131.424 112.017 130.147C112.088 129.864 112.193 129.652 112.335 129.507C112.476 129.365 112.617 129.189 112.758 128.973C113.11 128.831 113.393 128.69 113.608 128.548C113.89 128.407 114.172 128.336 114.458 128.336C114.6 128.195 114.776 128.124 114.991 128.124C115.132 128.124 115.274 128.16 115.415 128.23H115.944C116.578 128.301 117.041 128.548 117.323 128.977C118.173 130.112 118.103 131.176 117.111 132.17C117.041 132.74 116.9 133.305 116.688 133.875C116.547 134.444 116.441 134.939 116.371 135.367C118.847 133.521 121.285 132.245 123.691 131.534C126.097 130.823 128.327 130.398 130.376 130.257C130.944 130.186 131.579 130.116 132.288 130.045C133.064 129.974 133.738 130.116 134.302 130.469L134.299 130.465Z" fill="#F80059"/>
<path d="M155.037 138.561C155.108 139.056 155.072 139.625 154.931 140.266C154.79 140.835 154.579 141.295 154.293 141.648C154.151 142.002 153.975 142.465 153.764 143.035C153.552 143.604 153.305 144.099 153.019 144.528C152.455 145.026 151.926 145.769 151.428 146.763C151.005 147.686 150.507 148.326 149.943 148.679C149.943 148.679 149.59 149.068 148.881 149.85C148.176 150.561 147.325 151.343 146.334 152.195C145.346 152.977 144.284 153.688 143.152 154.324C142.09 154.964 141.169 155.212 140.393 155.07C139.261 155.498 138.163 155.675 137.101 155.605C136.04 155.463 135.087 155.18 134.237 154.752C133.387 154.253 132.681 153.617 132.113 152.835C131.549 151.983 131.196 151.024 131.055 149.96C130.984 149.819 130.949 149.571 130.949 149.214C130.949 148.789 131.055 148.503 131.267 148.361C131.055 147.866 131.055 147.332 131.267 146.763C131.549 146.193 131.69 145.698 131.69 145.27L133.602 139.837C133.814 139.767 133.92 139.661 133.92 139.519C133.99 139.307 134.096 139.201 134.237 139.201C134.66 138.207 135.228 137.214 135.934 136.22C136.714 135.226 137.493 134.303 138.269 133.45C138.692 132.881 139.155 132.28 139.649 131.64C140.217 130.999 140.781 130.434 141.345 129.935C141.984 129.436 142.619 129.118 143.258 128.976C143.892 128.835 144.496 129.012 145.06 129.511C145.77 129.652 146.369 129.864 146.867 130.151C146.937 130.292 147.008 130.292 147.078 130.151C147.219 130.01 147.36 129.974 147.502 130.045C147.643 129.974 147.889 129.974 148.246 130.045C148.669 130.116 149.093 130.222 149.52 130.363C149.943 130.504 150.331 130.646 150.687 130.791C151.04 130.933 151.287 131.074 151.428 131.215L152.49 132.708C153.34 132.496 154.649 132.245 156.416 131.962C158.254 131.679 160.167 131.463 162.146 131.322C164.128 131.109 165.966 131.039 167.667 131.109C169.364 131.109 170.602 131.357 171.378 131.856C171.452 131.926 171.523 131.962 171.593 131.962C171.734 131.962 171.84 131.997 171.911 132.068C171.981 132.139 172.052 132.174 172.122 132.174C172.546 132.103 172.761 132.139 172.761 132.28C172.832 132.421 173.008 132.492 173.29 132.492C173.643 132.775 173.713 133.097 173.502 133.45C173.29 133.733 173.043 133.945 172.761 134.091C171.981 134.161 171.488 134.268 171.272 134.409C171.131 134.55 170.955 134.692 170.743 134.833C170.602 134.904 170.32 134.975 169.893 135.045H167.451C166.464 135.045 165.402 135.116 164.269 135.257C163.207 135.399 162.11 135.611 160.982 135.898C159.849 136.18 158.752 136.467 157.69 136.75C156.699 136.962 155.852 137.174 155.143 137.39C155.072 137.673 155.037 137.925 155.037 138.137V138.561V138.561ZM147.396 133.447C147.043 133.305 146.69 133.234 146.334 133.234C145.977 133.234 145.664 133.093 145.382 132.81L145.06 133.128C144.637 133.482 144.284 133.91 144.002 134.405C143.787 134.904 143.505 135.434 143.152 136.004C142.799 136.428 142.337 137.068 141.773 137.921C141.204 138.773 140.64 139.696 140.076 140.69C139.508 141.613 138.979 142.536 138.481 143.459C138.058 144.311 137.811 144.987 137.74 145.482C137.529 146.405 137.243 147.399 136.89 148.463C136.537 149.528 136.608 150.557 137.101 151.551C138.657 150.981 140.001 150.274 141.134 149.422C142.337 148.569 143.434 147.611 144.425 146.546L145.06 145.8C145.346 145.305 145.875 144.378 146.655 143.031C147.431 141.684 148.07 140.297 148.564 138.875C149.128 137.457 149.379 136.212 149.308 135.147C149.308 134.012 148.669 133.443 147.396 133.443V133.447Z" fill="#F80059"/>
<path d="M188.408 138.561C188.479 139.056 188.443 139.625 188.302 140.266C188.161 140.835 187.946 141.295 187.664 141.648C187.523 142.002 187.346 142.465 187.135 143.035C186.923 143.604 186.672 144.099 186.39 144.528C185.826 145.026 185.293 145.769 184.799 146.763C184.376 147.686 183.878 148.326 183.314 148.679C183.314 148.679 182.961 149.068 182.252 149.85C181.543 150.561 180.696 151.343 179.705 152.195C178.713 152.977 177.655 153.688 176.523 154.324C175.461 154.964 174.54 155.212 173.764 155.07C172.632 155.498 171.535 155.675 170.473 155.605C169.411 155.463 168.454 155.18 167.608 154.752C166.758 154.253 166.052 153.617 165.484 152.835C164.92 151.983 164.563 151.024 164.422 149.96C164.352 149.819 164.316 149.571 164.316 149.214C164.316 148.789 164.422 148.503 164.638 148.361C164.422 147.866 164.422 147.332 164.638 146.763C164.92 146.193 165.061 145.698 165.061 145.27L166.969 139.837C167.181 139.767 167.291 139.661 167.291 139.519C167.361 139.307 167.467 139.201 167.608 139.201C168.031 138.207 168.599 137.214 169.305 136.22C170.085 135.226 170.861 134.303 171.64 133.45C172.064 132.881 172.526 132.28 173.02 131.64C173.584 130.999 174.152 130.434 174.716 129.935C175.355 129.436 175.99 129.118 176.629 128.976C177.264 128.835 177.867 129.012 178.431 129.511C179.141 129.652 179.74 129.864 180.234 130.151C180.308 130.292 180.379 130.292 180.449 130.151C180.591 130.01 180.732 129.974 180.873 130.045C181.014 129.974 181.261 129.974 181.617 130.045C182.04 130.116 182.464 130.222 182.891 130.363C183.314 130.504 183.702 130.646 184.055 130.791C184.411 130.933 184.658 131.074 184.799 131.215L185.861 132.708C186.708 132.496 188.016 132.245 189.788 131.962C191.625 131.679 193.538 131.463 195.517 131.322C197.499 131.109 199.337 131.039 201.034 131.109C202.735 131.109 203.973 131.357 204.749 131.856C204.819 131.926 204.89 131.962 204.961 131.962C205.106 131.962 205.211 131.997 205.282 132.068C205.352 132.139 205.423 132.174 205.493 132.174C205.917 132.103 206.128 132.139 206.128 132.28C206.199 132.421 206.375 132.492 206.661 132.492C207.014 132.775 207.084 133.097 206.873 133.45C206.661 133.733 206.414 133.945 206.128 134.091C205.352 134.161 204.855 134.268 204.643 134.409C204.502 134.55 204.326 134.692 204.114 134.833C203.973 134.904 203.687 134.975 203.264 135.045H200.822C199.831 135.045 198.773 135.116 197.641 135.257C196.579 135.399 195.481 135.611 194.349 135.898C193.216 136.18 192.123 136.467 191.061 136.75C190.07 136.962 189.219 137.174 188.514 137.39C188.443 137.673 188.408 137.925 188.408 138.137V138.561V138.561ZM180.767 133.447C180.414 133.305 180.058 133.234 179.705 133.234C179.352 133.234 179.035 133.093 178.749 132.81L178.431 133.128C178.008 133.482 177.655 133.91 177.369 134.405C177.158 134.904 176.876 135.434 176.523 136.004C176.166 136.428 175.708 137.068 175.144 137.921C174.575 138.773 174.011 139.696 173.443 140.69C172.879 141.613 172.346 142.536 171.852 143.459C171.429 144.311 171.182 144.987 171.107 145.482C170.896 146.405 170.614 147.399 170.261 148.463C169.908 149.528 169.979 150.557 170.473 151.551C172.028 150.981 173.372 150.274 174.505 149.422C175.708 148.569 176.805 147.611 177.797 146.546L178.431 145.8C178.713 145.305 179.246 144.378 180.022 143.031C180.802 141.684 181.437 140.297 181.935 138.875C182.499 137.457 182.746 136.212 182.675 135.147C182.675 134.012 182.04 133.443 180.767 133.443V133.447Z" fill="#F80059"/>
<path d="M228.249 128.87C228.394 128.8 228.5 128.764 228.571 128.764C228.712 128.694 228.712 128.764 228.571 128.976C228.641 129.118 228.782 129.153 228.994 129.083C229.276 128.941 229.488 128.906 229.633 128.976C229.774 128.976 229.738 129.189 229.523 129.617C229.382 130.041 228.959 130.893 228.249 132.174C228.324 132.245 228.002 132.743 227.297 133.667C226.588 134.59 225.706 135.654 224.644 136.86C223.653 137.995 222.661 139.134 221.67 140.27C220.753 141.334 220.114 142.045 219.762 142.399C219.197 142.968 218.347 143.927 217.214 145.274C216.152 146.55 214.914 147.937 213.5 149.43C212.155 150.848 210.706 152.199 209.15 153.476C207.594 154.752 206.07 155.605 204.585 156.033C203.17 156.461 201.861 156.315 200.658 155.608C199.455 154.827 198.503 153.157 197.794 150.604C197.935 150.321 197.935 150.035 197.794 149.752C197.653 149.469 197.582 149.257 197.582 149.111C197.653 148.118 197.794 147.195 198.005 146.342C198.217 145.419 198.432 144.461 198.644 143.467C198.644 142.968 198.75 142.509 198.961 142.084C199.244 141.585 199.49 141.126 199.706 140.702C199.988 140.273 200.235 139.849 200.447 139.425C200.658 139.001 200.764 138.502 200.764 137.932C201.05 137.434 201.262 136.974 201.403 136.546C201.614 136.047 201.791 135.517 201.932 134.947C202.359 134.523 202.782 133.989 203.205 133.348C203.703 132.708 204.444 132.602 205.435 133.03C205.647 133.101 205.823 133.207 205.964 133.348C206.109 133.49 206.285 133.631 206.497 133.773C206.779 133.914 206.955 134.02 207.026 134.091C207.167 134.161 207.273 134.374 207.343 134.731C207.343 134.943 207.273 135.12 207.132 135.265C207.061 135.407 207.026 135.619 207.026 135.906C207.026 135.976 206.92 136.012 206.709 136.012C206.567 136.365 206.426 136.723 206.285 137.076C206.144 137.43 205.999 137.787 205.858 138.141C205.788 138.282 205.717 138.353 205.647 138.353V138.565C205.506 138.777 205.435 139.024 205.435 139.311C205.435 139.523 205.4 139.7 205.329 139.845C205.329 139.987 205.294 140.093 205.223 140.163C205.153 140.163 205.118 140.199 205.118 140.27C204.761 141.475 204.302 142.862 203.738 144.421C203.17 145.985 202.747 147.367 202.465 148.573C202.606 149.284 203.276 149.39 204.479 148.892C205.752 148.322 207.167 147.505 208.727 146.44C210.353 145.376 211.909 144.205 213.394 142.925C214.879 141.574 215.941 140.438 216.58 139.515C217.214 138.946 217.779 138.345 218.276 137.705C218.77 137.064 219.338 136.463 219.973 135.894C220.255 135.611 220.823 135.041 221.67 134.189C222.52 133.337 223.406 132.484 224.323 131.632C225.244 130.709 226.094 129.962 226.87 129.397C227.65 128.827 228.108 128.65 228.249 128.863V128.87Z" fill="#F80059"/>
<path d="M239.574 152.301C239.005 152.655 238.371 152.941 237.661 153.153C237.026 153.295 236.388 153.472 235.753 153.688C234.903 153.9 233.95 154.116 232.888 154.328C231.826 154.54 230.764 154.646 229.702 154.646C228.644 154.575 227.618 154.363 226.626 154.006C225.705 153.582 224.93 152.906 224.291 151.983C223.797 151.343 223.515 150.565 223.444 149.642C223.374 148.719 223.444 147.796 223.656 146.873C223.868 145.879 224.15 144.92 224.502 143.997C224.93 143.003 225.353 142.116 225.776 141.334C226.133 141.051 226.415 140.694 226.626 140.27C226.838 139.845 226.979 139.488 227.05 139.205C228.535 137.43 230.059 135.725 231.615 134.095C233.241 132.461 234.903 131.184 236.603 130.261C237.379 129.766 238.194 129.338 239.045 128.984C239.891 128.631 240.671 128.273 241.376 127.92C241.662 127.778 241.874 127.637 242.015 127.496C242.226 127.354 242.509 127.284 242.861 127.284C245.408 127.284 247.074 127.747 247.85 128.67C248.63 129.522 249.017 130.375 249.017 131.227C248.947 131.51 248.7 131.832 248.277 132.186C247.85 132.539 247.532 132.897 247.321 133.25C246.968 133.604 246.647 133.961 246.365 134.315C246.082 134.597 245.871 134.884 245.73 135.167C242.897 137.653 240.067 139.853 237.238 141.77C236.533 142.34 235.577 142.728 234.373 142.941C233.241 143.153 232.073 143.188 230.87 143.047C230.447 143.471 230.024 144.04 229.597 144.751C229.173 145.392 228.821 146.099 228.535 146.88C228.323 147.591 228.217 148.338 228.217 149.115C228.288 149.826 228.609 150.427 229.173 150.926C230.588 151.068 231.826 150.926 232.888 150.502C233.95 150.078 234.973 149.72 235.964 149.438C236.744 149.225 237.555 148.974 238.406 148.691C239.256 148.408 239.997 148.122 240.635 147.839C242.121 147.128 243.324 146.562 244.241 146.134C245.232 145.635 246.153 145.176 247.003 144.751C247.85 144.323 248.735 143.864 249.656 143.365C250.573 142.866 251.741 142.23 253.156 141.448C254.288 140.878 255.421 140.313 256.553 139.743C257.756 139.103 258.889 138.502 259.95 137.932C260.374 137.579 260.762 137.327 261.114 137.186C261.471 136.974 261.929 136.797 262.494 136.652C262.568 136.652 262.639 136.616 262.709 136.546C262.85 136.475 262.956 136.44 263.027 136.44C263.661 136.44 263.983 136.546 263.983 136.758C263.983 136.97 263.802 137.292 263.45 137.716C263.168 138.07 262.78 138.463 262.282 138.887C261.859 139.311 261.506 139.739 261.22 140.163C261.295 140.163 261.185 140.27 260.903 140.482C260.691 140.623 260.409 140.8 260.056 141.016C259.77 141.157 259.488 141.334 259.206 141.55C258.994 141.691 258.889 141.762 258.889 141.762C258.109 142.332 257.153 142.968 256.024 143.679C254.892 144.319 253.759 144.991 252.627 145.702C251.494 146.342 250.432 146.943 249.441 147.513C248.453 148.082 247.709 148.471 247.215 148.683L239.574 152.305V152.301ZM231.932 141.33C232.571 141.33 233.17 141.153 233.735 140.796C234.373 140.442 234.973 140.085 235.541 139.731C236.956 138.596 238.406 137.351 239.891 136.004C241.376 134.582 242.72 133.164 243.923 131.742C244.064 131.742 244.135 131.636 244.135 131.424C241.588 132.347 239.327 133.694 237.344 135.469C235.435 137.245 233.629 139.197 231.932 141.326V141.33Z" fill="#F80059"/>
<path d="M285.227 140.372H285.759C285.971 140.301 286.218 140.195 286.5 140.053H287.139L287.456 139.947H288.518C289.651 140.658 290.039 141.295 289.686 141.864C289.404 142.363 288.871 142.681 288.095 142.823C287.386 143.176 286.43 143.569 285.227 143.993C284.094 144.418 282.93 144.846 281.727 145.27C280.595 145.623 279.568 145.946 278.647 146.228C277.73 146.511 277.197 146.656 277.056 146.656C276.986 146.656 276.915 146.692 276.845 146.763H276.633C276.492 146.833 276.386 146.869 276.316 146.869C275.324 148.856 274.544 150.243 273.98 151.024C273.482 151.735 273.024 152.301 272.601 152.729L271.962 153.26C270.336 154.611 268.921 155.746 267.718 156.669C266.515 157.592 265.453 158.374 264.536 159.014C263.686 159.654 262.941 160.149 262.306 160.507C261.668 160.931 261.103 161.253 260.61 161.465V161.359C259.191 162.141 257.918 162.675 256.789 162.958C255.727 163.241 254.912 163.382 254.348 163.382C252.933 163.382 251.977 163.064 251.483 162.424C250.915 161.854 250.633 161.112 250.633 160.189C250.633 158.841 251.268 157.49 252.541 156.143C253.744 154.795 255.194 153.515 256.895 152.309C258.662 151.103 260.535 150.035 262.518 149.112C264.497 148.118 266.233 147.301 267.718 146.66C269.203 145.949 270.265 145.455 270.9 145.168C271.609 144.814 271.539 144.744 270.688 144.956L270.265 144.85C269.344 144.85 268.106 144.92 266.55 145.062C264.995 145.132 263.509 145.345 262.095 145.702C261.386 145.843 260.715 145.985 260.077 146.13C259.442 146.201 258.627 146.166 257.635 146.024H257.53C257.53 145.953 257.494 145.918 257.424 145.918C257.283 145.918 257.071 145.883 256.789 145.812C256.573 145.671 256.432 145.565 256.362 145.494H256.468C255.903 144.995 255.515 144.5 255.3 144.001C255.088 143.502 254.982 143.043 254.982 142.618C254.982 142.194 255.053 141.837 255.194 141.554C255.41 141.2 255.586 140.914 255.727 140.702C256.08 140.132 256.573 139.566 257.212 138.997C257.847 138.427 258.627 137.65 259.548 136.652L259.865 136.334C260.715 135.764 261.597 135.128 262.518 134.417C263.439 133.706 264.391 133.069 265.383 132.5C266.374 131.86 267.365 131.329 268.353 130.901C269.415 130.406 270.442 130.12 271.433 130.049L272.174 129.837C272.601 129.837 273.059 129.943 273.553 130.155C274.051 130.296 274.474 130.438 274.827 130.583C275.183 131.223 275.289 131.718 275.148 132.076C275.077 132.429 274.897 132.681 274.615 132.822L273.447 133.462L273.236 133.568C273.024 133.78 272.707 133.957 272.279 134.103C272.424 133.961 272.279 134.032 271.856 134.315C271.503 134.527 271.151 134.704 270.794 134.849C270.23 135.418 269.45 135.843 268.463 136.125C267.471 136.408 266.656 136.766 266.021 137.19L264.959 137.83L263.368 139.107L262.412 139.853C261.491 140.423 260.68 141.13 259.971 141.982C261.103 141.841 262.13 141.664 263.047 141.448C264.038 141.307 265.136 141.2 266.339 141.13C267.612 140.988 268.851 140.953 270.054 141.024C270.688 141.094 271.398 141.2 272.174 141.342C272.953 141.483 273.623 141.731 274.192 142.088H274.086C274.862 142.512 275.254 142.764 275.254 142.835C275.324 142.905 275.395 142.941 275.465 142.941L275.571 143.153C275.642 143.082 275.712 143.047 275.783 143.047H275.994C276.135 142.976 276.241 142.941 276.316 142.941L276.845 142.728L284.38 140.493C284.592 140.493 284.874 140.458 285.227 140.387V140.372ZM259.971 154.43C259.83 154.571 259.407 154.964 258.697 155.601C257.988 156.241 257.53 156.7 257.318 156.987C256.754 157.341 256.256 157.734 255.833 158.158C255.48 158.582 255.229 158.904 255.088 159.116C254.877 159.47 254.983 159.611 255.41 159.544C255.833 159.544 256.362 159.403 257.001 159.116C257.635 158.904 258.274 158.621 258.909 158.264C259.618 157.981 260.077 157.765 260.288 157.624H260.183L262.835 156.131C264.889 154.709 266.409 153.538 267.401 152.615C268.388 151.622 269.274 150.557 270.054 149.422L268.78 149.846C266.656 150.84 265.1 151.586 264.109 152.081C263.118 152.505 262.306 152.898 261.668 153.252L260.288 154.316L259.971 154.422V154.43Z" fill="#F80059"/>
<path d="M100.196 186.209C100.699 186.209 101.107 186.153 101.421 186.04C102.016 185.824 102.314 185.422 102.314 184.834C102.314 184.491 102.166 184.225 101.871 184.037C101.576 183.854 101.112 183.692 100.479 183.551L99.3994 183.304C98.3378 183.059 97.6039 182.794 97.1977 182.507C96.51 182.028 96.1662 181.278 96.1662 180.258C96.1662 179.327 96.4985 178.554 97.1631 177.938C97.8278 177.322 98.804 177.014 100.092 177.014C101.167 177.014 102.083 177.306 102.84 177.888C103.602 178.467 104.001 179.308 104.038 180.413H101.989C101.952 179.788 101.684 179.343 101.186 179.08C100.853 178.906 100.44 178.819 99.9463 178.819C99.3971 178.819 98.9586 178.932 98.6309 179.158C98.3032 179.383 98.1393 179.698 98.1393 180.103C98.1393 180.474 98.3009 180.751 98.624 180.935C98.8317 181.057 99.2748 181.2 99.9532 181.365L101.712 181.795C102.483 181.983 103.064 182.234 103.456 182.549C104.066 183.038 104.37 183.746 104.37 184.672C104.37 185.621 104.013 186.411 103.297 187.041C102.586 187.666 101.58 187.979 100.279 187.979C98.9494 187.979 97.9039 187.671 97.1424 187.055C96.3808 186.435 96 185.584 96 184.503H98.0355C98.1001 184.977 98.227 185.332 98.4163 185.567C98.7624 185.995 99.3555 186.209 100.196 186.209Z" fill="#F80059"/>
<path d="M113.364 177.317V179.158H110.311V187.711H108.164V179.158H105.097V177.317H113.364Z" fill="#F80059"/>
<path d="M119.539 185.574H115.78L115.074 187.711H112.845L116.486 177.317H118.896L122.51 187.711H120.197L119.539 185.574ZM118.944 183.783L117.67 179.694L116.355 183.783H118.944Z" fill="#F80059"/>
<path d="M130.174 177.317V179.158H127.121V187.711H124.974V179.158H121.907V177.317H130.174Z" fill="#F80059"/>
<path d="M138.53 183.17H133.573V185.842H139.223V187.711H131.489V177.317H138.973V179.158H133.573V181.365H138.53V183.17Z" fill="#F80059"/>
<path d="M149.345 188C147.886 188 146.771 187.596 146.001 186.787C144.967 185.795 144.45 184.366 144.45 182.5C144.45 180.596 144.967 179.167 146.001 178.213C146.771 177.404 147.886 177 149.345 177C150.803 177 151.918 177.404 152.688 178.213C153.718 179.167 154.232 180.596 154.232 182.5C154.232 184.366 153.718 185.795 152.688 186.787C151.918 187.596 150.803 188 149.345 188ZM151.359 185.208C151.853 184.573 152.1 183.671 152.1 182.5C152.1 181.334 151.851 180.434 151.352 179.799C150.858 179.16 150.189 178.84 149.345 178.84C148.5 178.84 147.826 179.158 147.323 179.792C146.82 180.427 146.568 181.329 146.568 182.5C146.568 183.671 146.82 184.573 147.323 185.208C147.826 185.842 148.5 186.16 149.345 186.16C150.189 186.16 150.861 185.842 151.359 185.208Z" fill="#F80059"/>
<path d="M163.101 179.158H157.985V181.548H162.464V183.353H157.985V187.711H155.866V177.331H163.101V179.158Z" fill="#F80059"/>
<path d="M175.896 177.317V179.158H172.842V187.711H170.696V179.158H167.629V177.317H175.896Z" fill="#F80059"/>
<path d="M183.234 187.711V183.071H179.247V187.711H177.135V177.317H179.247V181.28H183.234V177.317H185.353V187.711H183.234Z" fill="#F80059"/>
<path d="M194.499 183.17H189.542V185.842H195.191V187.711H187.458V177.317H194.942V179.158H189.542V181.365H194.499V183.17Z" fill="#F80059"/>
<path d="M206.248 185.574H202.488L201.782 187.711H199.553L203.194 177.317H205.604L209.218 187.711H206.905L206.248 185.574ZM205.652 183.783L204.378 179.694L203.063 183.783H205.652Z" fill="#F80059"/>
<path d="M214.853 183.635H212.652V187.711H210.568V177.317H215.573C216.289 177.331 216.838 177.421 217.221 177.585C217.609 177.75 217.937 177.992 218.204 178.312C218.426 178.575 218.601 178.866 218.73 179.186C218.86 179.506 218.924 179.87 218.924 180.279C218.924 180.772 218.802 181.259 218.557 181.738C218.313 182.213 217.909 182.549 217.346 182.747C217.817 182.94 218.149 183.215 218.343 183.572C218.541 183.924 218.64 184.465 218.64 185.194V185.892C218.64 186.366 218.659 186.688 218.696 186.858C218.751 187.126 218.88 187.323 219.084 187.45V187.711H216.737C216.672 187.481 216.626 187.295 216.598 187.154C216.543 186.862 216.513 186.564 216.508 186.258L216.494 185.292C216.485 184.629 216.365 184.188 216.134 183.967C215.908 183.746 215.481 183.635 214.853 183.635ZM216.148 181.746C216.573 181.548 216.785 181.158 216.785 180.575C216.785 179.945 216.58 179.522 216.169 179.306C215.938 179.184 215.592 179.122 215.13 179.122H212.652V181.915H215.068C215.548 181.915 215.908 181.858 216.148 181.746Z" fill="#F80059"/>
<path d="M228.181 177.317V179.158H225.128V187.711H222.981V179.158H219.914V177.317H228.181Z" fill="#F80059"/>
<path d="M237.084 186.209C237.587 186.209 237.996 186.153 238.31 186.04C238.905 185.824 239.203 185.422 239.203 184.834C239.203 184.491 239.055 184.225 238.76 184.037C238.464 183.854 238 183.692 237.368 183.551L236.288 183.304C235.227 183.059 234.493 182.794 234.086 182.507C233.399 182.028 233.055 181.278 233.055 180.258C233.055 179.327 233.387 178.554 234.052 177.938C234.716 177.322 235.693 177.014 236.98 177.014C238.056 177.014 238.972 177.306 239.729 177.888C240.491 178.467 240.89 179.308 240.927 180.413H238.877C238.841 179.788 238.573 179.343 238.074 179.08C237.742 178.906 237.329 178.819 236.835 178.819C236.286 178.819 235.847 178.932 235.52 179.158C235.192 179.383 235.028 179.698 235.028 180.103C235.028 180.474 235.19 180.751 235.513 180.935C235.72 181.057 236.163 181.2 236.842 181.365L238.6 181.795C239.371 181.983 239.953 182.234 240.345 182.549C240.954 183.038 241.259 183.746 241.259 184.672C241.259 185.621 240.901 186.411 240.186 187.041C239.475 187.666 238.469 187.979 237.167 187.979C235.838 187.979 234.793 187.671 234.031 187.055C233.27 186.435 232.889 185.584 232.889 184.503H234.924C234.989 184.977 235.116 185.332 235.305 185.567C235.651 185.995 236.244 186.209 237.084 186.209Z" fill="#F80059"/>
<path d="M247.352 188C245.893 188 244.778 187.596 244.008 186.787C242.974 185.795 242.457 184.366 242.457 182.5C242.457 180.596 242.974 179.167 244.008 178.213C244.778 177.404 245.893 177 247.352 177C248.81 177 249.925 177.404 250.696 178.213C251.725 179.167 252.24 180.596 252.24 182.5C252.24 184.366 251.725 185.795 250.696 186.787C249.925 187.596 248.81 188 247.352 188ZM249.366 185.208C249.86 184.573 250.107 183.671 250.107 182.5C250.107 181.334 249.858 180.434 249.359 179.799C248.866 179.16 248.196 178.84 247.352 178.84C246.507 178.84 245.833 179.158 245.33 179.792C244.827 180.427 244.575 181.329 244.575 182.5C244.575 183.671 244.827 184.573 245.33 185.208C245.833 185.842 246.507 186.16 247.352 186.16C248.196 186.16 248.868 185.842 249.366 185.208Z" fill="#F80059"/>
<path d="M259.911 183.706V177.317H262.078V183.706C262.078 184.81 261.909 185.671 261.572 186.287C260.944 187.415 259.747 187.979 257.979 187.979C256.211 187.979 255.011 187.415 254.379 186.287C254.042 185.671 253.873 184.81 253.873 183.706V177.317H256.04V183.706C256.04 184.42 256.124 184.942 256.29 185.271C256.548 185.854 257.111 186.146 257.979 186.146C258.842 186.146 259.403 185.854 259.661 185.271C259.828 184.942 259.911 184.42 259.911 183.706Z" fill="#F80059"/>
<path d="M272.373 187.711H270.24L266.072 180.328V187.711H264.085V177.317H266.322L270.386 184.573V177.317H272.373V187.711Z" fill="#F80059"/>
<path d="M278.763 187.711H274.367V177.317H278.763C279.395 177.327 279.921 177.402 280.341 177.543C281.057 177.783 281.636 178.222 282.079 178.862C282.435 179.379 282.677 179.938 282.806 180.54C282.935 181.141 283 181.715 283 182.26C283 183.642 282.728 184.813 282.183 185.772C281.445 187.065 280.305 187.711 278.763 187.711ZM280.348 179.969C280.021 179.404 279.372 179.122 278.403 179.122H276.437V185.906H278.403C279.409 185.906 280.111 185.4 280.508 184.39C280.725 183.835 280.833 183.175 280.833 182.408C280.833 181.351 280.671 180.537 280.348 179.969Z" fill="#F80059"/>
</g>
<defs>
<clipPath id="clip0_31_5">
<rect width="294" height="203" fill="white"/>
</clipPath>
</defs>
</svg>
