<svg width="262" height="59" viewBox="0 0 262 59" fill="none" xmlns="http://www.w3.org/2000/svg">
<path d="M65.3374 22.4453C65.2713 22.6445 65.1227 22.7441 64.8915 22.7441C64.6602 22.7109 64.4951 22.7275 64.396 22.7939C64.429 22.8271 64.3464 22.8935 64.1482 22.9931C63.95 23.0595 63.7519 23.1425 63.5537 23.2421C63.3555 23.3085 63.2068 23.3749 63.1077 23.4413C63.0417 23.4745 63.1573 23.4413 63.4546 23.3417C63.4876 23.4413 63.2233 23.5742 62.6618 23.7402C62.1333 23.873 61.5222 24.0058 60.8285 24.1386C60.1679 24.2714 59.5237 24.3876 58.8961 24.4872C58.3016 24.5868 57.9547 24.6367 57.8556 24.6367C57.4592 24.6699 56.8977 24.7529 56.171 24.8857C55.4443 25.0185 54.6846 25.1845 53.8918 25.3837C53.099 25.5497 52.3228 25.7158 51.563 25.8818C50.8363 26.0146 50.2583 26.1142 49.8288 26.1806L49.7297 26.2802C49.7297 26.247 49.7297 26.2304 49.7297 26.2304C49.7297 26.2304 49.6637 26.2802 49.5316 26.3798C49.4325 26.4462 49.2673 26.579 49.0361 26.7782C48.8048 26.9775 48.4745 27.2597 48.0451 27.6249C47.6818 27.9902 47.3019 28.3554 46.9055 28.7206C46.5422 29.0527 46.1623 29.3515 45.7659 29.6171C45.5677 29.8495 45.3695 30.0487 45.1713 30.2148C44.9731 30.3808 44.7419 30.5468 44.4776 30.7128C44.3125 30.9452 44.1143 31.1112 43.8831 31.2109C43.6849 31.3437 43.4702 31.5097 43.2389 31.7089C43.0408 31.8749 42.826 32.0409 42.5948 32.2069C42.3636 32.373 42.1324 32.539 41.9011 32.705C41.2405 33.1698 40.5799 33.6513 39.9192 34.1493C39.2586 34.6806 38.5979 35.1786 37.9373 35.6435C37.1445 36.0751 36.4013 36.5565 35.7076 37.0878C35.014 37.619 34.2542 38.0673 33.4284 38.4325C33.2633 38.5321 33.0981 38.6483 32.9329 38.7811C32.7678 38.914 32.5531 38.9804 32.2888 38.9804C31.8264 39.2792 31.3309 39.578 30.8024 39.8768C30.2739 40.2089 29.7123 40.4745 29.1178 40.6737C28.6883 40.9061 28.2589 41.0888 27.8295 41.2216C27.4001 41.3876 26.9541 41.5702 26.4917 41.7694C26.4256 41.7362 26.4256 41.7362 26.4917 41.7694C26.5578 41.8358 26.5578 41.869 26.4917 41.869C26.2605 41.9354 26.0623 42.0018 25.8971 42.0682C25.732 42.1679 25.5668 42.2509 25.4016 42.3173C25.1704 42.4169 24.9227 42.5165 24.6584 42.6161C24.3942 42.7489 24.1464 42.8983 23.9152 43.0643C23.7831 42.9979 23.684 42.9979 23.6179 43.0643C23.5849 43.1307 23.5023 43.1639 23.3702 43.1639C23.0729 43.4296 22.7095 43.6288 22.2801 43.7616C21.8507 43.8944 21.4543 44.0604 21.091 44.2597C21.091 44.2597 21.0249 44.2597 20.8928 44.2597C20.0339 44.6581 19.1751 45.0233 18.3163 45.3554C17.4905 45.6874 16.5986 45.9696 15.6407 46.202C15.5746 46.2352 15.5251 46.2684 15.492 46.3016C15.492 46.368 15.4425 46.4178 15.3434 46.451C14.8809 46.5839 14.4515 46.7167 14.0551 46.8495C13.6918 46.9823 13.2293 47.0653 12.6678 47.0985C12.6017 47.0985 12.5687 47.1317 12.5687 47.1981C12.6017 47.2645 12.5852 47.2977 12.5191 47.2977C12.2549 47.2977 12.0237 47.3309 11.8255 47.3973C11.6603 47.4969 11.4786 47.5467 11.2804 47.5467C10.0252 47.7792 8.67091 47.9452 7.2175 48.0448C5.76409 48.1444 4.36023 48.0116 3.00592 47.6464L2.55998 47.4471C2.36179 47.3807 2.18012 47.3309 2.01496 47.2977C1.81676 47.2977 1.60205 47.2479 1.37083 47.1483C0.974445 46.9491 0.627609 46.6669 0.33032 46.3016C1.77198e-07 45.9696 -0.0825801 45.455 0.08258 44.7577C0.214708 44.5585 0.346837 44.3427 0.478965 44.1102C0.578061 43.911 0.660641 43.7284 0.726704 43.5624C0.957929 43.0311 1.27173 42.5497 1.66812 42.1181C2.0645 41.6864 2.44437 41.3046 2.80772 40.9725C2.93985 40.7401 3.12153 40.5409 3.35275 40.3749C3.55095 40.2421 3.73262 40.0761 3.89778 39.8768C5.18603 38.8476 6.45776 37.9511 7.71298 37.1874C8.9682 36.4569 10.2399 35.7929 11.5282 35.1952C12.8164 34.5976 14.1377 34.0165 15.492 33.4521C16.8463 32.8876 18.2832 32.2568 19.8027 31.5595C20.0009 30.8954 20.2486 30.1318 20.5459 29.2685C20.8432 28.372 21.157 27.4755 21.4873 26.579C21.8177 25.6826 22.1315 24.8193 22.4288 23.9892C22.7591 23.1259 23.0233 22.3622 23.2215 21.6982C23.2876 21.3662 23.3867 21.1171 23.5188 20.9511C23.5518 20.6855 23.5849 20.4697 23.6179 20.3037C23.6509 20.1376 23.717 19.9882 23.8161 19.8554C24.4437 18.0957 25.0548 16.3857 25.6494 14.7255C26.244 13.0322 26.9046 11.3886 27.6313 9.7949L28.2259 8.25096C28.2919 8.08494 28.3745 7.96873 28.4736 7.90232C28.5727 7.80271 28.6223 7.6367 28.6223 7.40428C28.5232 7.23826 28.4241 7.20506 28.325 7.30467C28.2259 7.37107 28.1103 7.43748 27.9781 7.50389C26.3596 8.10154 25.0383 8.58298 24.0143 8.94822C23.0233 9.31345 22.148 9.64548 21.3882 9.94431C20.6285 10.2431 19.8853 10.5752 19.1586 10.9404C18.4319 11.2724 17.5565 11.7373 16.5325 12.3349C16.2683 12.5009 16.004 12.7002 15.7398 12.9326C15.4755 13.1318 15.1782 13.2812 14.8479 13.3808C14.5506 13.5468 14.2368 13.6963 13.9065 13.8291C13.5762 13.9287 13.3119 14.0781 13.1137 14.2773C12.8164 14.4765 12.5357 14.6923 12.2714 14.9248C12.0071 15.124 11.6438 15.1904 11.1813 15.124C11.1153 15.124 11.0492 15.1074 10.9832 15.0742C10.8841 15.0078 10.785 14.9414 10.6859 14.875C10.4546 14.8086 10.2565 14.7588 10.0913 14.7255C9.92613 14.6923 9.76097 14.5927 9.59581 14.4267C9.49671 14.3271 9.36458 14.2109 9.19942 14.0781C9.03426 13.9121 8.95168 13.7793 8.95168 13.6797C8.95168 13.5136 9.10033 13.331 9.39762 13.1318C9.69491 12.8994 9.87658 12.75 9.94265 12.6836C10.1078 12.6172 10.2895 12.5507 10.4877 12.4843C10.6859 12.3847 10.8841 12.2685 11.0823 12.1357C11.5447 11.8701 12.0402 11.6045 12.5687 11.3388C13.0972 11.0732 13.6092 10.791 14.1047 10.4922C14.8644 10.1269 15.6076 9.7949 16.3343 9.49607C17.0611 9.16404 17.8208 8.83201 18.6136 8.49998C20.3643 7.76951 22.181 7.03904 24.0638 6.30858C25.9467 5.57811 27.879 4.98045 29.861 4.51561C29.9601 4.3496 30.0426 4.18358 30.1087 4.01757C30.1748 3.81835 30.2739 3.65233 30.406 3.51952V3.17089C30.5051 2.97167 30.6042 2.78906 30.7033 2.62304C30.8354 2.42382 31.0336 2.30761 31.2979 2.27441C31.3309 2.27441 31.3474 2.2578 31.3474 2.2246V2.12499C31.5126 2.05859 31.6447 1.99218 31.7438 1.92578C31.8759 1.85937 31.9915 1.79296 32.0906 1.72656C32.7513 1.82617 33.2468 2.04199 33.5771 2.37402C33.9404 2.67284 34.2542 3.03808 34.5185 3.46972C35.2452 3.43651 35.9719 3.37011 36.6986 3.2705C37.4583 3.17089 38.2346 3.10448 39.0274 3.07128C40.1505 3.00487 41.3892 2.97167 42.7435 2.97167C44.1308 2.93847 45.5016 3.00487 46.856 3.17089C48.2103 3.3037 49.4985 3.55272 50.7207 3.91796C51.9759 4.24999 53.0329 4.76464 53.8918 5.4619C54.3542 5.82713 54.7836 6.25877 55.18 6.75682C55.5764 7.25486 55.9233 7.73631 56.2205 8.20115C56.5178 8.6992 56.7821 9.24705 57.0133 9.8447C57.2776 10.4092 57.4592 11.0234 57.5583 11.6875C57.6574 12.5507 57.4758 13.58 57.0133 14.7754C56.5839 15.9707 56.0389 17.166 55.3782 18.3613C54.7176 19.5566 54.0239 20.6689 53.2972 21.6982C52.5705 22.7275 51.9759 23.4911 51.5135 23.9892C51.9759 23.956 52.5044 23.873 53.099 23.7402C53.7266 23.6074 54.3377 23.4745 54.9323 23.3417C55.5599 23.1757 56.171 23.0429 56.7656 22.9433C57.3932 22.8105 57.9382 22.7109 58.4007 22.6445C58.731 22.5781 59.0613 22.5449 59.3916 22.5449C59.7219 22.5117 60.0688 22.4951 60.4321 22.4951C60.9606 22.3955 61.4066 22.329 61.7699 22.2958C62.1333 22.2294 62.4471 22.1796 62.7113 22.1464C62.9756 22.1132 63.2233 22.0966 63.4546 22.0966C63.7188 22.0634 64.0326 22.0136 64.396 21.9472C64.4951 21.9472 64.6272 21.9638 64.7924 21.997C64.9906 22.0302 65.0896 22.08 65.0896 22.1464C65.2218 22.3124 65.2548 22.3955 65.1887 22.3955C65.1227 22.3622 65.1722 22.3788 65.3374 22.4453ZM30.3564 28.7704C31.8429 28.3388 33.2798 27.9238 34.6671 27.5253C36.0545 27.0937 37.4418 26.6952 38.8292 26.33C40.2165 25.9648 41.6204 25.6327 43.0408 25.3339C44.4942 25.0019 45.9971 24.7031 47.5496 24.4374C47.8469 24.1386 48.1938 23.7402 48.5901 23.2421C49.0196 22.7441 49.449 22.2294 49.8784 21.6982C50.3078 21.1669 50.7042 20.6523 51.0675 20.1542C51.4639 19.6562 51.7942 19.2578 52.0585 18.9589C52.3558 18.5273 52.6531 18.0293 52.9504 17.4648C53.2477 16.9003 53.5119 16.3193 53.7431 15.7216C54.0074 15.124 54.2221 14.5263 54.3873 13.9287C54.5855 13.2978 54.7011 12.7168 54.7341 12.1855C54.8002 11.123 54.5524 10.0771 53.9909 9.04783C53.4293 8.01853 52.6696 7.32127 51.7117 6.95604C49.7958 6.22557 47.9625 5.76073 46.2118 5.56151C44.4942 5.32909 42.8591 5.26268 41.3066 5.36229C39.7871 5.4287 38.3667 5.57811 37.0454 5.81053C35.7242 6.04295 34.502 6.22557 33.3789 6.35838C33.0816 6.95604 32.8504 7.42088 32.6852 7.75291C32.5531 8.05174 32.3714 8.40037 32.1402 8.7988C31.8429 9.36326 31.6282 9.8779 31.4961 10.3427C31.3309 10.5088 31.2318 10.6748 31.1988 10.8408C31.1988 10.9404 31.1327 11.1562 31.0006 11.4883C30.8684 11.7539 30.7363 12.0029 30.6042 12.2353C30.5051 12.4677 30.4225 12.7334 30.3564 13.0322C30.1913 13.331 30.0426 13.6132 29.9105 13.8789C29.8114 14.1445 29.7123 14.4101 29.6132 14.6757C29.6132 14.7754 29.5967 14.8916 29.5637 15.0244C29.5637 15.1572 29.5472 15.3066 29.5141 15.4726L28.6223 17.2656C28.358 17.7636 28.1268 18.3115 27.9286 18.9091C27.7634 19.4736 27.5983 20.0048 27.4331 20.5029C27.268 21.0673 27.0367 21.6318 26.7394 22.1962C26.4752 22.7275 26.244 23.2753 26.0458 23.8398C25.9467 24.1386 25.765 24.6201 25.5007 25.2841C25.2365 25.915 24.9722 26.6122 24.708 27.3759C24.4437 28.1064 24.1795 28.8202 23.9152 29.5175C23.684 30.2148 23.5353 30.746 23.4693 31.1112C23.9647 30.9784 24.4933 30.8124 25.0548 30.6132C25.6494 30.3808 26.2605 30.165 26.8881 29.9657C27.5157 29.7333 28.1268 29.5175 28.7214 29.3183C29.3159 29.0859 29.861 28.9032 30.3564 28.7704ZM42.0002 27.1269C39.3246 27.8574 37.1445 28.4716 35.4599 28.9697C33.8083 29.4345 32.5035 29.8163 31.5456 30.1152C30.5877 30.414 29.9105 30.6298 29.5141 30.7626C29.1177 30.8954 28.8535 30.9784 28.7214 31.0116C28.6223 31.1777 28.5562 31.2441 28.5232 31.2109C27.4331 31.5097 26.3596 31.9413 25.3025 32.5058C24.2786 33.0702 23.4197 33.4687 22.726 33.7011C22.4618 34.6972 22.1645 35.5937 21.8342 36.3905C21.5369 37.2206 21.2066 38.0175 20.8432 38.7811C20.8102 38.7811 20.7772 38.7977 20.7441 38.831C20.7441 38.8642 20.7111 38.8808 20.645 38.8808C20.5459 39.2128 20.4138 39.4286 20.2486 39.5282C20.0835 39.661 19.9018 39.7274 19.7036 39.7274C19.5385 39.7274 19.3403 39.6942 19.109 39.6278C18.8778 39.5946 18.6466 39.578 18.4154 39.578C18.3163 39.412 18.2502 39.2128 18.2172 38.9804C18.2172 38.7479 18.2337 38.5155 18.2667 38.2831C18.2998 38.0175 18.3493 37.6356 18.4154 37.1376C18.5145 36.6396 18.6136 36.1581 18.7127 35.6933C18.8448 35.1288 18.9604 34.5644 19.0595 33.9999C18.7292 34.0663 18.3823 34.1991 18.019 34.3983C17.6887 34.6308 17.3418 34.83 16.9785 34.996C16.8133 35.0624 16.6316 35.1122 16.4334 35.1454C16.2353 35.1786 16.0536 35.2782 15.8884 35.4442C14.6332 35.9091 13.5101 36.3407 12.5191 36.7392C11.5282 37.1376 10.4712 37.702 9.34807 38.4325C8.58833 38.9638 7.87814 39.4286 7.2175 39.827C6.52383 40.2255 5.79712 40.7235 5.03739 41.3212C5.03739 41.3876 5.0539 41.4208 5.08694 41.4208C5.08694 41.454 5.07042 41.5038 5.03739 41.5702C4.90526 41.7694 4.77313 41.9188 4.641 42.0184C4.47584 42.1181 4.3272 42.2011 4.19507 42.2675C4.02991 42.3671 3.88127 42.4667 3.74914 42.5663C3.61701 42.6991 3.48488 42.8651 3.35275 43.0643C3.38578 43.1307 3.45185 43.1473 3.55095 43.1141C3.61701 43.0809 3.66656 43.0809 3.69959 43.1141C3.53443 43.413 3.35275 43.7118 3.15456 44.0106C2.92334 44.3095 2.79121 44.6913 2.75818 45.1561C3.02243 45.3553 3.31972 45.4716 3.65004 45.5048C3.98036 45.5712 4.3272 45.6044 4.69055 45.6044C5.02087 45.6044 5.36771 45.5878 5.73106 45.5546C6.06138 45.5214 6.37518 45.5214 6.67247 45.5546C6.93673 45.4882 7.16795 45.4218 7.36615 45.3554C7.53131 45.3221 7.69647 45.3221 7.86163 45.3554C7.99375 45.3221 8.12588 45.2889 8.25801 45.2557C8.35711 45.2225 8.43969 45.2059 8.50575 45.2059C9.99219 44.9403 11.3795 44.5917 12.6678 44.16C13.956 43.7616 15.2443 43.3632 16.5325 42.9647C16.6316 42.8651 16.7472 42.7655 16.8794 42.6659C17.0115 42.5995 17.1601 42.5663 17.3253 42.5663C17.4574 42.4999 17.5896 42.4169 17.7217 42.3173C17.8869 42.2509 18.0685 42.2011 18.2667 42.1679C19.7532 41.5038 21.2066 40.8231 22.627 40.1259C24.0473 39.4286 25.4512 38.6815 26.8385 37.8847C26.9046 37.9511 26.9376 37.9511 26.9376 37.8847C26.9707 37.8515 27.0202 37.8349 27.0863 37.8349C27.1523 37.7685 27.2349 37.702 27.334 37.6356C27.4661 37.5692 27.5818 37.5028 27.6809 37.4364C27.9121 37.4364 28.1103 37.3368 28.2754 37.1376C28.4736 36.9716 28.6553 36.872 28.8205 36.8388C29.2168 36.7392 29.7454 36.5233 30.406 36.1913C31.0666 35.8593 31.7768 35.4608 32.5366 34.996C33.3293 34.5644 34.1221 34.0829 34.9149 33.5517C35.7407 33.0536 36.5004 32.5722 37.1941 32.1073C37.8878 31.6425 38.4823 31.2275 38.9778 30.8622C39.4733 30.4638 39.8036 30.1982 39.9688 30.0654C40.2 29.9657 40.4973 29.7831 40.8606 29.5175C41.224 29.2519 41.6039 28.9531 42.0002 28.621C42.4297 28.2558 42.8756 27.8906 43.338 27.5253C43.8005 27.1269 44.2464 26.7782 44.6758 26.4794C44.4116 26.5126 43.9987 26.5956 43.4371 26.7284C42.8756 26.8613 42.5288 26.9609 42.3966 27.0273C42.3306 27.0273 42.281 27.0605 42.248 27.1269C42.215 27.1933 42.1324 27.1933 42.0002 27.1269Z" fill="black"/>
<path d="M63.4952 27.874C63.5943 27.9736 63.8751 27.9404 64.3375 27.7743C64.8 27.5751 65.3615 27.3261 66.0222 27.0273C66.7158 26.6952 67.4756 26.33 68.3014 25.9316C69.1272 25.5331 69.953 25.1845 70.7788 24.8857C71.01 24.8193 71.2742 24.7197 71.5715 24.5869C71.9019 24.454 72.1496 24.3378 72.3148 24.2382C72.579 24.0722 72.8433 23.9062 73.1075 23.7402C73.3718 23.5742 73.6856 23.4579 74.0489 23.3915C74.1811 23.3583 74.2471 23.3085 74.2471 23.2421C74.2471 23.1425 74.2636 23.1591 74.2967 23.2919C74.3627 23.3251 74.4123 23.3417 74.4453 23.3417C74.4784 23.3085 74.5114 23.3085 74.5444 23.3417C74.5444 23.4745 74.4618 23.6572 74.2967 23.8896L73.9498 24.1884C73.6856 24.4208 73.4048 24.6533 73.1075 24.8857C72.8102 25.0849 72.4799 25.2675 72.1166 25.4335C71.8193 25.6992 71.4559 25.9482 71.0265 26.1806C70.6301 26.413 70.2337 26.6288 69.8374 26.8281C69.474 26.9609 68.9455 27.2597 68.2518 27.7245C67.5912 28.1894 66.881 28.6708 66.1212 29.1689C65.3945 29.6669 64.7174 30.1152 64.0898 30.5136C63.4622 30.8788 63.0328 31.0116 62.8015 30.912C62.7024 31.0116 62.6364 31.0448 62.6033 31.0116C62.5703 31.0116 62.5042 31.0116 62.4051 31.0116C61.8766 31.0116 61.4142 30.9618 61.0178 30.8622C60.6544 30.7294 60.3406 30.4804 60.0764 30.1152C59.9773 29.7167 59.9773 29.3183 60.0764 28.9198C60.1755 28.5214 60.3076 28.0732 60.4728 27.5751C60.5719 27.3095 60.671 27.0605 60.7701 26.8281C60.9022 26.5956 61.0013 26.3466 61.0673 26.081C61.1995 25.8154 61.3316 25.5331 61.4637 25.2343C61.5959 24.9355 61.7115 24.6533 61.8106 24.3876C62.1739 23.624 62.5538 22.8603 62.9502 22.0966C63.3466 21.2997 63.776 20.5693 64.2384 19.9052C64.5027 19.7392 64.7504 19.6396 64.9816 19.6064C65.1138 19.54 65.2459 19.5566 65.378 19.6562C65.5432 19.7226 65.6753 19.7226 65.7744 19.6562C65.8735 19.789 65.9726 19.9052 66.0717 20.0048C66.2038 20.1044 66.2864 20.2373 66.3194 20.4033C66.3525 20.6357 66.369 20.8183 66.369 20.9511C66.402 21.0839 66.3855 21.2333 66.3194 21.3994C66.3525 21.6318 66.2864 21.8808 66.1212 22.1464C66.0552 22.246 66.0056 22.3622 65.9726 22.4951C65.9396 22.5947 65.89 22.7109 65.824 22.8437C65.7909 22.8769 65.7579 22.8935 65.7249 22.8935C65.7249 22.8603 65.7084 22.8603 65.6753 22.8935C65.6093 22.9267 65.5762 22.9765 65.5762 23.0429C65.5762 23.1093 65.5432 23.1591 65.4771 23.1923C65.2459 23.6572 64.9982 24.1386 64.7339 24.6367C64.4696 25.1347 64.2219 25.6161 63.9907 26.081C63.7595 26.5126 63.5943 26.8945 63.4952 27.2265C63.3961 27.5585 63.3961 27.7743 63.4952 27.874ZM65.5267 15.7216C65.4936 15.622 65.5762 15.4394 65.7744 15.1738C65.9726 14.9082 66.2038 14.6591 66.4681 14.4267C66.7323 14.1943 66.9966 14.0283 67.2609 13.9287C67.5251 13.8291 67.7398 13.8789 67.905 14.0781C67.971 14.0781 68.0206 14.0947 68.0536 14.1279C68.1197 14.1611 68.1692 14.1777 68.2023 14.1777C68.4335 14.4433 68.4996 14.7754 68.4005 15.1738C68.3344 15.539 68.1692 15.788 67.905 15.9209C67.938 15.9873 67.938 16.0371 67.905 16.0703C67.8719 16.0703 67.8554 16.1035 67.8554 16.1699C67.7563 16.1035 67.7068 16.1367 67.7068 16.2695C67.7398 16.4023 67.6903 16.4355 67.5581 16.3691C67.5912 16.4687 67.5416 16.5683 67.4095 16.6679C67.3104 16.7675 67.2609 16.8671 67.2609 16.9668C67.1948 16.9335 67.1618 16.9335 67.1618 16.9668C67.1618 16.9668 67.1287 16.9668 67.0627 16.9668C66.9966 17.1328 66.848 17.2656 66.6167 17.3652C66.4185 17.4316 66.2699 17.5312 66.1708 17.664C66.1047 17.664 66.0387 17.6806 65.9726 17.7138C65.9396 17.747 65.857 17.7304 65.7249 17.664C65.5267 17.5976 65.3945 17.498 65.3285 17.3652C65.2624 17.1992 65.2294 17.0166 65.2294 16.8173C65.2624 16.6181 65.312 16.4189 65.378 16.2197C65.4441 16.0205 65.4936 15.8545 65.5267 15.7216Z" fill="black"/>
<path d="M63.6233 53.8221C63.26 53.5565 62.9792 53.2411 62.781 52.8758C62.5498 52.5438 62.4837 52.3612 62.5828 52.328C62.5168 50.6014 62.9297 48.7919 63.8215 46.8993C64.7134 45.0067 65.8695 43.1307 67.2899 41.2714C68.7103 39.4452 70.2628 37.6854 71.9474 35.9921C73.632 34.3319 75.2341 32.8212 76.7536 31.4599C76.9848 31.2939 77.2821 31.0448 77.6454 30.7128C78.0088 30.3476 78.2896 30.0986 78.4877 29.9657C78.8181 29.7997 79.0328 29.6835 79.1319 29.6171C79.264 29.5175 79.3466 29.4511 79.3796 29.4179C79.4126 29.4179 79.4787 29.2685 79.5778 28.9697C79.7099 28.6708 79.743 28.5214 79.6769 28.5214C79.809 28.289 79.9081 28.123 79.9742 28.0234C80.0403 27.8906 80.0898 27.7743 80.1228 27.6747C80.1889 27.5751 80.2384 27.4755 80.2715 27.3759C80.3045 27.2431 80.3706 27.0439 80.4697 26.7782C80.5357 26.6122 80.5853 26.4462 80.6183 26.2802C80.6844 26.1142 80.6844 25.9316 80.6183 25.7324C80.5523 25.7324 80.4862 25.832 80.4201 26.0312C80.321 26.0312 80.2715 26.0478 80.2715 26.081C80.2054 26.1474 80.1394 26.2138 80.0733 26.2802C80.0072 26.3466 79.9412 26.413 79.8751 26.4794C79.7099 26.5458 79.5943 26.6288 79.5283 26.7284C79.231 27.0273 78.9172 27.2929 78.5868 27.5253C78.2896 27.7245 78.0088 27.957 77.7445 28.2226C77.6454 28.3222 77.4638 28.455 77.1995 28.621C76.9352 28.7538 76.6545 28.9032 76.3572 29.0693C76.0599 29.2021 75.7626 29.3349 75.4653 29.4677C75.2011 29.5673 74.9864 29.6337 74.8212 29.6669C74.7551 29.7001 74.5569 29.7167 74.2266 29.7167C73.9293 29.7167 73.599 29.7001 73.2357 29.6669C72.9053 29.6337 72.575 29.6005 72.2447 29.5673C71.9474 29.5341 71.7657 29.4843 71.6997 29.4179H71.7988C71.7327 29.3847 71.6832 29.3349 71.6501 29.2685C71.6171 29.2021 71.5345 29.1689 71.4024 29.1689C71.2702 28.9697 71.1877 28.7372 71.1546 28.4716C71.1216 28.206 71.1216 27.9238 71.1546 27.6249C71.1877 27.3261 71.2372 27.0439 71.3033 26.7782C71.3693 26.5126 71.4354 26.2802 71.5015 26.081C71.6006 25.915 71.6832 25.749 71.7492 25.5829C71.8483 25.3837 71.9309 25.2011 71.997 25.0351C72.063 25.0351 72.096 25.0185 72.096 24.9853C72.096 24.9521 72.1291 24.9355 72.1951 24.9355C72.2942 24.6699 72.542 24.288 72.9384 23.79C73.3678 23.2587 73.8467 22.7275 74.3753 22.1962C74.9038 21.6318 75.3992 21.1171 75.8617 20.6523C76.3572 20.1542 76.704 19.8056 76.9022 19.6064C76.9352 19.5732 77.0178 19.5068 77.1499 19.4072C77.2821 19.3076 77.4307 19.208 77.5959 19.1083C77.761 19.0087 77.9097 18.9091 78.0418 18.8095C78.1739 18.7099 78.273 18.6601 78.3391 18.6601C78.7025 18.4609 79.0658 18.2451 79.4292 18.0126C79.7925 17.747 80.1559 17.5478 80.5192 17.415C80.6514 17.3486 80.7835 17.3154 80.9156 17.3154C81.0477 17.2822 81.1468 17.2656 81.2129 17.2656C81.7414 17.2988 81.9726 17.415 81.9066 17.6142C81.8735 17.8134 81.7084 18.0459 81.4111 18.3115C81.1138 18.5439 80.767 18.8095 80.3706 19.1083C79.9742 19.374 79.6934 19.6064 79.5283 19.8056C79.297 19.9716 79.0823 20.1376 78.8841 20.3037C78.6859 20.4697 78.5208 20.6855 78.3886 20.9511C78.2235 21.1171 78.0418 21.2665 77.8436 21.3994C77.6454 21.5322 77.5133 21.7314 77.4472 21.997C77.249 22.163 77.0508 22.3456 76.8527 22.5449C76.6875 22.7441 76.5389 22.9433 76.4067 23.1425C76.0764 23.3085 75.8121 23.5576 75.614 23.8896C75.4488 24.2216 75.2341 24.5038 74.9698 24.7363C74.7056 25.1347 74.4413 25.5497 74.1771 25.9814C73.9458 26.413 73.7477 26.8945 73.5825 27.4257C73.5825 27.5253 73.5495 27.6249 73.4834 27.7245C73.4504 27.8241 73.4338 27.9072 73.4338 27.9736C73.566 28.04 73.6651 28.0566 73.7311 28.0234C73.8302 27.9902 73.9128 27.957 73.9789 27.9238C74.2431 27.7577 74.4744 27.6083 74.6725 27.4755C74.9038 27.3095 75.168 27.1435 75.4653 26.9775C75.6305 26.8447 75.7626 26.745 75.8617 26.6786C75.9608 26.6122 76.0929 26.5458 76.2581 26.4794C76.9187 26.0146 77.5959 25.4999 78.2896 24.9355C78.9832 24.371 79.6604 23.8066 80.321 23.2421C80.4862 23.1425 80.6513 22.9931 80.8165 22.7939C81.0147 22.5947 81.1964 22.4121 81.3615 22.246C81.5267 22.1132 81.7084 21.997 81.9066 21.8974C82.1048 21.7646 82.2038 21.6152 82.2038 21.4492C82.2699 21.2831 82.2864 21.1835 82.2534 21.1503C82.2534 21.1171 82.336 21.0175 82.5011 20.8515C82.6002 20.7519 82.6993 20.6357 82.7984 20.5029C82.9306 20.3369 83.1288 20.2539 83.393 20.2539C83.4921 20.2539 83.5747 20.2871 83.6407 20.3535C83.7398 20.3867 83.8555 20.3867 83.9876 20.3535C84.0206 20.4199 84.0867 20.4531 84.1858 20.4531C84.2849 20.4199 84.3674 20.4365 84.4335 20.5029C84.6978 20.7685 84.8464 21.0009 84.8795 21.2001C84.9455 21.3994 84.9455 21.6484 84.8795 21.9472C84.7804 22.2128 84.6978 22.5117 84.6317 22.8437C84.5987 23.1425 84.5161 23.4247 84.384 23.6904C84.3179 24.1884 84.1858 24.6699 83.9876 25.1347C83.8224 25.5663 83.6903 26.0146 83.5912 26.4794C83.7894 26.1474 84.1362 25.8154 84.6317 25.4833C85.1272 25.1513 85.6392 24.8359 86.1677 24.537C86.7292 24.2382 87.2578 23.9726 87.7532 23.7402C88.2487 23.5078 88.5956 23.3085 88.7937 23.1425H88.9424C89.0085 23.0761 89.0745 23.0097 89.1406 22.9433C89.2397 22.8769 89.3223 22.8437 89.3883 22.8437C89.5535 22.7109 89.7352 22.5947 89.9333 22.4951C90.1315 22.3622 90.3628 22.2792 90.627 22.246C90.627 22.2128 90.6105 22.1962 90.5775 22.1962C91.2381 21.831 91.8988 21.4824 92.5594 21.1503C93.22 20.8183 93.9302 20.5527 94.69 20.3535C94.69 20.3867 94.6735 20.4033 94.6404 20.4033C94.6074 20.4033 94.5909 20.4199 94.5909 20.4531C94.5578 20.4863 94.5083 20.5029 94.4422 20.5029C94.4092 20.4697 94.3596 20.4697 94.2936 20.5029C94.3596 20.5693 94.3927 20.5859 94.3927 20.5527C94.3927 20.5195 94.4257 20.5029 94.4918 20.5029C94.4918 20.5361 94.4753 20.5527 94.4422 20.5527C94.4422 20.5527 94.4422 20.5859 94.4422 20.6523C94.5744 20.6855 94.6404 20.6855 94.6404 20.6523C94.6735 20.5859 94.723 20.5527 94.7891 20.5527C94.723 20.6855 94.6239 20.7685 94.4918 20.8017C94.3927 20.8017 94.2936 20.8681 94.1945 21.0009C94.1945 21.0673 94.2275 21.0673 94.2936 21.0009C94.2275 21.1337 94.1449 21.2167 94.0458 21.2499C93.9467 21.2499 93.8642 21.2831 93.7981 21.3496C93.8311 21.3828 93.9467 21.3662 94.1449 21.2998C93.8146 21.499 93.4678 21.665 93.1044 21.7978C92.7741 21.8974 92.4768 22.08 92.2126 22.3456C92.1795 22.4121 92.2126 22.4453 92.3117 22.4453C92.1465 22.6113 91.8327 22.8769 91.3702 23.2421C90.9078 23.5742 90.3958 23.9394 89.8343 24.3378C89.3057 24.7031 88.7772 25.0683 88.2487 25.4335C87.7532 25.7656 87.3734 26.0312 87.1091 26.2304C86.8118 26.4296 86.5145 26.6288 86.2172 26.8281C85.92 27.0273 85.6392 27.2597 85.3749 27.5253C85.1767 27.5917 84.9951 27.6747 84.8299 27.7743C84.6978 27.8739 84.5491 27.9902 84.384 28.123L83.9876 28.4218C83.7564 28.5878 83.5416 28.7372 83.3435 28.87C83.1783 28.9697 83.0462 29.1357 82.9471 29.3681C82.6498 29.5673 82.4351 29.8661 82.3029 30.2646C82.2038 30.663 82.0717 31.0448 81.9066 31.4101C81.0147 33.4355 80.0898 35.5771 79.1319 37.8349C78.207 40.0927 77.1334 42.2509 75.9112 44.3095C74.6891 46.4012 73.2687 48.2772 71.6501 49.9374C70.0646 51.5975 68.1983 52.8592 66.0512 53.7225C65.6548 53.8553 65.2584 53.9383 64.862 53.9715C64.4326 54.0379 64.0197 53.9881 63.6233 53.8221ZM77.5959 33.4023C76.8031 34.1659 75.9938 34.9462 75.168 35.7431C74.3422 36.5731 73.5825 37.3368 72.8888 38.0341C72.1952 38.7313 71.6006 39.3456 71.1051 39.8768C70.6096 40.4413 70.2628 40.8397 70.0646 41.0722C69.5361 41.7362 68.9745 42.4169 68.3799 43.1141C67.7854 43.8114 67.2238 44.5419 66.6953 45.3055C66.1338 46.1024 65.6548 46.9325 65.2584 47.7958C64.862 48.659 64.5978 49.5887 64.4657 50.5848C64.5647 50.6512 64.5978 50.784 64.5647 50.9833C64.5317 51.2157 64.5978 51.4149 64.7629 51.5809C65.853 51.4149 66.91 50.9501 67.934 50.1864C68.925 49.4559 69.8664 48.5262 70.7583 47.3973C71.6832 46.3016 72.542 45.0897 73.3347 43.7616C74.1606 42.4667 74.9038 41.1552 75.5644 39.827C76.2251 38.5321 76.8196 37.3036 77.3481 36.1415C77.8767 34.9794 78.3061 34.0165 78.6364 33.2528C78.5703 33.12 78.5703 33.0204 78.6364 32.954C78.7355 32.8876 78.7685 32.8046 78.7355 32.705C78.5703 32.871 78.3556 32.9872 78.0914 33.0536C77.8271 33.12 77.6619 33.2362 77.5959 33.4023Z" fill="black"/>
<path d="M93.5434 27.874C93.6425 27.9736 93.9233 27.9404 94.3857 27.7743C94.8482 27.5751 95.4097 27.3261 96.0704 27.0273C96.764 26.6952 97.5238 26.33 98.3496 25.9316C99.1754 25.5331 100.001 25.1845 100.827 24.8857C101.058 24.8193 101.322 24.7197 101.62 24.5869C101.95 24.454 102.198 24.3378 102.363 24.2382C102.627 24.0722 102.891 23.9062 103.156 23.7402C103.42 23.5742 103.734 23.4579 104.097 23.3915C104.229 23.3583 104.295 23.3085 104.295 23.2421C104.295 23.1425 104.312 23.1591 104.345 23.2919C104.411 23.3251 104.46 23.3417 104.494 23.3417C104.527 23.3085 104.56 23.3085 104.593 23.3417C104.593 23.4745 104.51 23.6572 104.345 23.8896L103.998 24.1884C103.734 24.4208 103.453 24.6533 103.156 24.8857C102.858 25.0849 102.528 25.2675 102.165 25.4335C101.867 25.6992 101.504 25.9482 101.075 26.1806C100.678 26.413 100.282 26.6288 99.8855 26.8281C99.5222 26.9609 98.9937 27.2597 98.3 27.7245C97.6394 28.1894 96.9292 28.6708 96.1694 29.1689C95.4427 29.6669 94.7656 30.1152 94.138 30.5136C93.5104 30.8788 93.0809 31.0116 92.8497 30.912C92.7506 31.0116 92.6846 31.0448 92.6515 31.0116C92.6185 31.0116 92.5524 31.0116 92.4533 31.0116C91.9248 31.0116 91.4624 30.9618 91.066 30.8622C90.7026 30.7294 90.3888 30.4804 90.1246 30.1152C90.0255 29.7167 90.0255 29.3183 90.1246 28.9198C90.2237 28.5214 90.3558 28.0732 90.521 27.5751C90.6201 27.3095 90.7192 27.0605 90.8183 26.8281C90.9504 26.5956 91.0495 26.3466 91.1155 26.081C91.2477 25.8154 91.3798 25.5331 91.5119 25.2343C91.6441 24.9355 91.7597 24.6533 91.8588 24.3876C92.2221 23.624 92.602 22.8603 92.9984 22.0966C93.3947 21.2997 93.8242 20.5693 94.2866 19.9052C94.5509 19.7392 94.7986 19.6396 95.0298 19.6064C95.162 19.54 95.2941 19.5566 95.4262 19.6562C95.5914 19.7226 95.7235 19.7226 95.8226 19.6562C95.9217 19.789 96.0208 19.9052 96.1199 20.0048C96.252 20.1044 96.3346 20.2373 96.3676 20.4033C96.4007 20.6357 96.4172 20.8183 96.4172 20.9511C96.4502 21.0839 96.4337 21.2333 96.3676 21.3994C96.4007 21.6318 96.3346 21.8808 96.1694 22.1464C96.1034 22.246 96.0538 22.3622 96.0208 22.4951C95.9878 22.5947 95.9382 22.7109 95.8721 22.8437C95.8391 22.8769 95.8061 22.8935 95.7731 22.8935C95.7731 22.8603 95.7565 22.8603 95.7235 22.8935C95.6574 22.9267 95.6244 22.9765 95.6244 23.0429C95.6244 23.1093 95.5914 23.1591 95.5253 23.1923C95.2941 23.6572 95.0463 24.1386 94.7821 24.6367C94.5178 25.1347 94.2701 25.6161 94.0389 26.081C93.8076 26.5126 93.6425 26.8945 93.5434 27.2265C93.4443 27.5585 93.4443 27.7743 93.5434 27.874ZM95.5749 15.7216C95.5418 15.622 95.6244 15.4394 95.8226 15.1738C96.0208 14.9082 96.252 14.6591 96.5163 14.4267C96.7805 14.1943 97.0448 14.0283 97.3091 13.9287C97.5733 13.8291 97.788 13.8789 97.9532 14.0781C98.0192 14.0781 98.0688 14.0947 98.1018 14.1279C98.1679 14.1611 98.2174 14.1777 98.2505 14.1777C98.4817 14.4433 98.5477 14.7754 98.4486 15.1738C98.3826 15.539 98.2174 15.788 97.9532 15.9209C97.9862 15.9873 97.9862 16.0371 97.9532 16.0703C97.9201 16.0703 97.9036 16.1035 97.9036 16.1699C97.8045 16.1035 97.755 16.1367 97.755 16.2695C97.788 16.4023 97.7385 16.4355 97.6063 16.3691C97.6394 16.4687 97.5898 16.5683 97.4577 16.6679C97.3586 16.7675 97.3091 16.8671 97.3091 16.9668C97.243 16.9335 97.2099 16.9335 97.2099 16.9668C97.2099 16.9668 97.1769 16.9668 97.1109 16.9668C97.0448 17.1328 96.8961 17.2656 96.6649 17.3652C96.4667 17.4316 96.3181 17.5312 96.219 17.664C96.1529 17.664 96.0869 17.6806 96.0208 17.7138C95.9878 17.747 95.9052 17.7304 95.7731 17.664C95.5749 17.5976 95.4427 17.498 95.3767 17.3652C95.3106 17.1992 95.2776 17.0166 95.2776 16.8173C95.3106 16.6181 95.3602 16.4189 95.4262 16.2197C95.4923 16.0205 95.5418 15.8545 95.5749 15.7216Z" fill="black"/>
<path d="M101.55 33.0536H101.5C101.236 32.9208 101.087 32.7714 101.054 32.6054C101.021 32.4394 101.005 32.2734 101.005 32.1073C101.071 30.8788 101.203 29.6835 101.401 28.5214C101.632 27.3593 101.88 26.247 102.144 25.1845C102.475 23.8896 102.854 22.6279 103.284 21.3994C103.713 20.1708 104.11 18.9257 104.473 17.664C104.638 17.166 104.787 16.6845 104.919 16.2197C105.084 15.7216 105.249 15.2402 105.414 14.7754C104.985 14.8418 104.572 14.9414 104.176 15.0742C103.812 15.1738 103.35 15.3564 102.788 15.622C102.59 15.6884 102.359 15.7714 102.095 15.8711C101.863 15.9375 101.632 16.0039 101.401 16.0703C101.302 16.1367 101.186 16.2197 101.054 16.3193C100.955 16.4189 100.839 16.4853 100.707 16.5185C100.542 16.5517 100.41 16.5849 100.311 16.6181C100.179 16.6181 100.096 16.5849 100.063 16.5185C99.8981 16.4189 99.8155 16.2695 99.8155 16.0703C99.8155 15.8711 99.8485 15.6386 99.9146 15.373C99.9806 15.207 100.063 15.041 100.162 14.875C100.228 14.7089 100.294 14.5595 100.361 14.4267L100.955 14.1777C101.186 14.1113 101.5 14.0449 101.896 13.9785C102.326 13.8789 102.755 13.7793 103.185 13.6797C103.614 13.58 104.011 13.497 104.374 13.4306C104.737 13.3642 104.968 13.331 105.068 13.331C105.233 13.2978 105.381 13.2646 105.514 13.2314C105.679 13.1982 105.844 13.1484 106.009 13.082C106.372 12.0527 106.752 11.04 107.149 10.0439C107.578 9.04783 108.024 8.03513 108.486 7.00584C108.718 6.5742 108.916 6.14256 109.081 5.71092C109.279 5.24608 109.461 4.79784 109.626 4.3662C109.791 4.10057 109.907 3.85155 109.973 3.61913C110.039 3.51952 110.072 3.41991 110.072 3.3203C110.072 3.22069 110.105 3.13769 110.171 3.07128C110.204 2.90527 110.27 2.75585 110.369 2.62304C110.468 2.45703 110.551 2.25781 110.617 2.02538C110.683 1.85937 110.733 1.67675 110.766 1.47754C110.832 1.27832 110.914 1.1289 111.013 1.02929C111.079 0.929684 111.294 0.813473 111.657 0.68066C112.021 0.54785 112.335 0.481445 112.599 0.481445C112.929 0.481445 113.26 0.564453 113.59 0.730468C113.92 0.863278 114.118 1.0625 114.184 1.32812C114.25 1.46093 114.234 1.61035 114.135 1.77636C114.069 1.90917 113.97 2.05859 113.838 2.2246C113.772 2.35741 113.722 2.49023 113.689 2.62304C113.689 2.75585 113.656 2.90527 113.59 3.07128C113.226 3.86815 112.88 4.68163 112.549 5.5117C112.219 6.34178 111.839 7.13865 111.41 7.90232C111.079 8.63279 110.733 9.34666 110.369 10.0439C110.039 10.7412 109.709 11.455 109.378 12.1855H109.428C109.824 12.0859 110.221 12.0195 110.617 11.9863C111.013 11.9199 111.393 11.8535 111.757 11.7871C112.285 11.7207 112.648 11.6875 112.847 11.6875C113.045 11.6543 113.21 11.6543 113.342 11.6875C113.474 11.6875 113.639 11.6875 113.838 11.6875C114.069 11.6543 114.465 11.6045 115.027 11.5381C115.39 11.5049 115.753 11.4883 116.117 11.4883C116.513 11.455 116.926 11.5215 117.355 11.6875C117.289 11.7539 117.273 11.8203 117.306 11.8867C117.339 11.9199 117.372 11.9697 117.405 12.0361C117.438 12.0361 117.455 12.0195 117.455 11.9863C117.455 11.9199 117.471 11.8867 117.504 11.8867C117.438 11.9531 117.405 12.0527 117.405 12.1855C117.405 12.3183 117.389 12.4013 117.355 12.4345C117.19 12.5341 117.042 12.584 116.91 12.584C116.777 12.584 116.662 12.6172 116.563 12.6836C116.53 12.75 116.513 12.7832 116.513 12.7832C115.324 12.9492 114.019 13.1152 112.599 13.2812C111.212 13.4472 109.89 13.6797 108.635 13.9785L108.486 14.4765C107.925 16.2363 107.347 17.996 106.752 19.7558C106.158 21.5156 105.613 23.2753 105.117 25.0351C105.051 25.3007 104.952 25.5663 104.82 25.832C104.688 26.0976 104.589 26.3798 104.523 26.6786C104.357 26.9443 104.242 27.2431 104.176 27.5751C104.143 27.9072 104.06 28.206 103.928 28.4716C103.895 28.538 103.829 28.621 103.73 28.7206C103.664 28.8202 103.631 28.9198 103.631 29.0195C103.565 29.1855 103.515 29.3515 103.482 29.5175C103.449 29.6835 103.416 29.8495 103.383 30.0155C103.35 30.1816 103.333 30.3642 103.333 30.5634C103.333 30.7626 103.317 30.912 103.284 31.0116L102.987 31.5097C102.92 31.6757 102.887 31.8417 102.887 32.0077C102.887 32.1737 102.871 32.3398 102.838 32.5058C102.673 32.5722 102.607 32.622 102.64 32.6552C102.673 32.7216 102.607 32.7714 102.442 32.8046C102.342 32.871 102.194 32.9042 101.996 32.9042C101.83 32.9374 101.682 32.9872 101.55 33.0536Z" fill="black"/>
<path d="M124.363 24.9853C125.321 24.6201 125.883 24.5204 126.048 24.6865C126.246 24.8193 126.164 25.0351 125.8 25.3339C125.701 25.4335 125.569 25.4999 125.404 25.5331C125.272 25.5663 125.156 25.7158 125.057 25.9814C124.562 26.413 124.215 26.6952 124.017 26.8281C123.818 26.9277 123.686 26.9609 123.62 26.9277C123.092 27.1601 122.613 27.4589 122.183 27.8241C121.754 28.1894 121.308 28.5214 120.846 28.8202C120.416 29.1191 119.937 29.3515 119.409 29.5175C118.913 29.6835 118.319 29.6835 117.625 29.5175C117.559 29.5175 117.476 29.5009 117.377 29.4677C117.311 29.4013 117.229 29.3515 117.129 29.3183C116.832 29.1855 116.617 29.0361 116.485 28.87C116.386 28.6708 116.287 28.455 116.188 28.2226C116.122 27.957 116.072 27.6415 116.039 27.2763C116.039 26.8779 116.072 26.4794 116.138 26.081C116.072 26.0478 116.023 26.0644 115.99 26.1308C115.99 26.164 115.973 26.1806 115.94 26.1806C115.874 26.2138 115.808 26.2636 115.742 26.33C115.676 26.3632 115.593 26.413 115.494 26.4794C115.329 26.6786 115.164 26.8613 114.999 27.0273C114.867 27.1933 114.685 27.3261 114.454 27.4257C114.388 27.5585 114.289 27.6581 114.157 27.7245C114.057 27.7909 113.975 27.8573 113.909 27.9238C113.876 27.9238 113.859 27.957 113.859 28.0234C113.892 28.0566 113.892 28.0732 113.859 28.0732C113.793 28.1064 113.694 28.1562 113.562 28.2226C113.43 28.2558 113.331 28.3222 113.265 28.4218C112.505 28.9531 111.696 29.4013 110.837 29.7665C110.606 29.9325 110.358 30.082 110.094 30.2148C109.862 30.3144 109.631 30.3476 109.4 30.3144C109.235 30.3144 109.086 30.3144 108.954 30.3144C108.855 30.3144 108.723 30.2812 108.558 30.2148C108.293 30.1816 108.029 30.165 107.765 30.165C107.501 30.1318 107.286 30.0155 107.121 29.8163C106.757 29.5839 106.658 29.1523 106.823 28.5214C106.823 28.4882 106.84 28.4716 106.873 28.4716C106.906 28.4716 106.923 28.4384 106.923 28.372C106.956 28.0068 107.071 27.6747 107.269 27.3759C107.435 27.0439 107.616 26.745 107.814 26.4794C108.079 26.0146 108.376 25.5829 108.706 25.1845C109.037 24.7861 109.35 24.371 109.648 23.9394C109.912 23.707 110.325 23.3251 110.886 22.7939C111.448 22.2626 112.042 21.7314 112.67 21.2001C113.298 20.6357 113.876 20.1542 114.404 19.7558C114.933 19.3242 115.296 19.0917 115.494 19.0585C115.858 18.8925 116.138 18.6933 116.337 18.4609C116.568 18.1953 116.915 17.996 117.377 17.8632C117.41 17.8632 117.427 17.8632 117.427 17.8632C117.427 17.83 117.443 17.8134 117.476 17.8134C117.542 17.8134 117.608 17.83 117.674 17.8632C117.774 17.8632 117.856 17.83 117.922 17.7636C118.12 17.8632 118.352 17.913 118.616 17.913C118.748 18.0791 118.897 18.2451 119.062 18.4111C119.227 18.5439 119.31 18.7099 119.31 18.9091C119.409 19.0087 119.425 19.1416 119.359 19.3076C119.293 19.4736 119.194 19.5898 119.062 19.6562C118.963 19.7558 118.847 19.8056 118.715 19.8056C118.583 19.7724 118.451 19.789 118.319 19.8554C117.988 19.9882 117.674 20.1874 117.377 20.4531L116.783 20.8515C116.783 20.8515 116.75 20.8847 116.684 20.9511C116.584 20.9511 116.469 20.9843 116.337 21.0507C116.238 21.0839 116.155 21.2001 116.089 21.3994C115.825 21.4658 115.56 21.5986 115.296 21.7978C115.032 21.9638 114.768 22.1298 114.503 22.2958C114.338 22.4619 114.19 22.6113 114.057 22.7441C113.925 22.8437 113.777 22.9599 113.612 23.0927C113.347 23.3251 113.066 23.5742 112.769 23.8398C112.472 24.1054 112.191 24.371 111.927 24.6367C111.762 24.7695 111.597 24.9355 111.431 25.1347C111.299 25.3007 111.118 25.4335 110.886 25.5331C110.886 25.6659 110.82 25.7822 110.688 25.8818V25.9316C110.688 25.9648 110.688 25.9814 110.688 25.9814C110.49 26.081 110.325 26.2304 110.193 26.4296C110.094 26.5956 109.978 26.7617 109.846 26.9277C109.78 27.2265 109.648 27.4921 109.449 27.7245C109.251 27.957 109.136 28.206 109.103 28.4716C109.433 28.372 109.697 28.2226 109.895 28.0234C111.019 27.3593 112.092 26.662 113.116 25.9316C114.14 25.1679 115.197 24.371 116.287 23.541C116.584 23.2753 116.865 23.0595 117.129 22.8935C117.427 22.7275 117.707 22.4619 117.972 22.0966H118.12V22.0468C118.153 21.9472 118.203 21.8642 118.269 21.7978C118.335 21.7314 118.385 21.6318 118.418 21.499C118.451 21.4326 118.467 21.3496 118.467 21.2499C118.467 21.1503 118.5 21.0673 118.566 21.0009C118.665 20.9677 118.781 20.9511 118.913 20.9511C119.045 20.9511 119.144 20.9511 119.21 20.9511H119.855C119.987 21.0175 120.168 21.1005 120.4 21.2001C120.631 21.2997 120.746 21.5322 120.746 21.8974C120.647 22.1962 120.499 22.4785 120.301 22.7441C120.135 23.0097 119.954 23.2919 119.755 23.5908C119.689 23.8896 119.574 24.1552 119.409 24.3876V24.6367C119.277 24.7031 119.177 24.8525 119.111 25.0849C119.078 25.2509 119.045 25.3837 119.012 25.4833C119.012 25.5829 118.963 25.7324 118.864 25.9316L118.566 27.0273C118.566 27.4589 118.649 27.7079 118.814 27.7743C118.979 27.8407 119.177 27.8241 119.409 27.7245C119.673 27.6249 119.954 27.4921 120.251 27.3261C120.548 27.1269 120.813 26.9775 121.044 26.8779C121.605 26.6786 122.183 26.3798 122.778 25.9814C123.372 25.5829 123.901 25.2509 124.363 24.9853Z" fill="black"/>
<path d="M136.872 0.929683C137.037 1.0957 137.153 1.22851 137.219 1.32812C137.285 1.42773 137.285 1.61035 137.219 1.87597C137.219 2.10839 137.153 2.34081 137.021 2.57324C136.922 2.77245 136.822 2.95507 136.723 3.12108C136.657 3.41991 136.558 3.68554 136.426 3.91796C136.327 4.11718 136.244 4.3828 136.178 4.71483C135.848 5.57811 135.518 6.45799 135.187 7.35447C134.89 8.21775 134.56 9.03123 134.196 9.7949C133.833 10.2597 133.552 10.7412 133.354 11.2392C133.189 11.7373 133.024 12.2519 132.859 12.7832C132 14.875 131.141 17 130.282 19.1582C129.423 21.3164 128.614 23.541 127.854 25.832C127.755 26.4296 127.59 27.0273 127.359 27.6249C127.161 28.2226 126.995 28.8368 126.863 29.4677C126.863 29.7001 126.83 29.8993 126.764 30.0654C126.599 30.5966 126.533 31.1611 126.566 31.7587C126.401 31.7587 126.285 31.8085 126.219 31.9081C126.153 32.0409 126.054 32.1239 125.922 32.1571C125.658 32.1571 125.476 32.0409 125.377 31.8085C125.311 31.6093 125.179 31.5263 124.98 31.5595C124.914 31.3935 124.815 31.2607 124.683 31.1611C124.584 31.0614 124.518 30.912 124.485 30.7128C124.518 30.248 124.584 29.7499 124.683 29.2187C124.782 28.6874 124.898 28.2226 125.03 27.8241C125.261 26.3964 125.575 25.0517 125.971 23.79C126.368 22.4951 126.764 21.2499 127.161 20.0546C127.128 20.0546 127.095 20.0712 127.062 20.1044L127.111 20.0546V19.955C127.243 19.8886 127.326 19.789 127.359 19.6562C127.392 19.4902 127.441 19.3408 127.507 19.208C127.64 18.7431 127.838 18.1621 128.102 17.4648C128.366 16.7343 128.647 16.0039 128.944 15.2734C129.242 14.5097 129.522 13.7793 129.787 13.082C130.084 12.3847 130.315 11.8369 130.48 11.4384V11.3886C130.877 10.5586 131.224 9.71189 131.521 8.84861C131.851 7.98533 132.181 7.10545 132.512 6.20897C132.776 5.54491 133.024 4.86424 133.255 4.16698C133.486 3.43651 133.701 2.75585 133.899 2.12499C134.064 1.62695 134.18 1.1289 134.246 0.630857C134.312 0.431639 134.543 0.265624 134.94 0.132812C135.369 -8.46046e-07 135.716 -0.0332032 135.98 0.033204C136.244 0.0996092 136.426 0.199218 136.525 0.33203C136.657 0.464843 136.773 0.66406 136.872 0.929683Z" fill="black"/>
<path d="M158.451 53.0751C158.352 53.0086 158.236 52.9422 158.104 52.8758C157.972 52.8426 157.84 52.909 157.708 53.0751C157.708 52.9754 157.642 52.9256 157.51 52.9256C157.41 52.9256 157.361 52.8924 157.361 52.826C157.328 52.8924 157.278 52.909 157.212 52.8758C157.179 52.8426 157.113 52.826 157.014 52.826C156.75 52.5604 156.585 52.1952 156.519 51.7303C156.519 51.6307 156.486 51.5975 156.42 51.6307C156.386 51.6639 156.353 51.6473 156.32 51.5809C156.122 50.1864 156.073 48.8251 156.172 47.4969C156.304 46.202 156.519 44.9237 156.816 43.662C157.08 42.4999 157.394 41.3378 157.757 40.1757C158.154 39.0468 158.583 37.9511 159.046 36.8886C159.31 36.3905 159.541 35.8759 159.739 35.3446C159.937 34.8134 160.152 34.2987 160.383 33.8007C161.11 32.3066 161.886 30.829 162.712 29.3681C163.538 27.9072 164.347 26.4462 165.14 24.9853C164.975 25.0517 164.793 25.1845 164.595 25.3837C164.43 25.5829 164.265 25.7656 164.099 25.9316C163.373 26.5624 162.679 27.2265 162.018 27.9238C161.358 28.621 160.648 29.2685 159.888 29.8661C159.128 30.497 158.385 31.1278 157.658 31.7587C156.965 32.3896 156.238 33.0204 155.478 33.6513C154.751 34.2821 154.008 34.8964 153.248 35.494C152.522 36.0917 151.729 36.6728 150.87 37.2372C150.474 37.4696 150.061 37.7186 149.631 37.9843C149.235 38.2499 148.806 38.5155 148.343 38.7811C147.881 39.0468 147.402 39.3124 146.906 39.578C146.444 39.8436 145.948 40.0097 145.42 40.0761C144.66 40.0761 144.115 39.9599 143.785 39.7274C143.157 39.7938 142.645 39.744 142.249 39.578C141.885 39.412 141.539 39.1464 141.208 38.7811C140.944 38.4823 140.762 38.1171 140.663 37.6854C140.531 37.287 140.465 36.8554 140.465 36.3905C140.465 35.9257 140.498 35.4608 140.564 34.996C140.63 34.5312 140.729 34.0829 140.861 33.6513C141.324 32.1571 141.885 30.7294 142.546 29.3681C143.24 28.0068 143.95 26.7118 144.677 25.4833C146.659 22.2626 148.954 19.2412 151.564 16.4189C154.173 13.5966 156.948 11.0068 159.888 8.64939C160.615 8.08494 161.341 7.50389 162.068 6.90623C162.828 6.30858 163.637 5.71092 164.496 5.11327C165.057 4.74803 165.635 4.3496 166.23 3.91796C166.825 3.48632 167.419 3.05468 168.014 2.62304C168.278 2.45703 168.509 2.32421 168.707 2.2246C168.906 2.09179 169.12 1.99218 169.352 1.92578C170.078 1.82617 170.689 1.97558 171.185 2.37402C171.68 2.73925 171.961 3.2539 172.027 3.91796C172.093 4.24999 172.044 4.54882 171.879 4.81444C171.713 5.08006 171.515 5.29588 171.284 5.4619C171.053 5.62791 170.788 5.72752 170.491 5.76073C170.227 5.79393 169.979 5.84374 169.748 5.91014C169.054 6.07616 168.394 6.35838 167.766 6.75682C167.171 7.12205 166.56 7.48728 165.933 7.85252C164.347 8.84861 162.91 9.94431 161.622 11.1396C160.235 12.3349 158.88 13.5136 157.559 14.6757C156.238 15.8378 154.966 17.1162 153.744 18.5107C153.149 19.1748 152.555 19.8554 151.96 20.5527C151.399 21.2499 150.821 21.9472 150.226 22.6445C149.962 22.9765 149.697 23.3251 149.433 23.6904C149.169 24.0556 148.921 24.4374 148.69 24.8359C148.426 25.2011 148.161 25.5829 147.897 25.9814C147.666 26.3466 147.435 26.7118 147.204 27.0771C146.741 27.8407 146.295 28.6376 145.866 29.4677C145.436 30.2646 144.99 31.0946 144.528 31.9579C144.33 32.3564 144.115 32.7714 143.884 33.203C143.686 33.6679 143.52 34.1327 143.388 34.5976C143.289 35.162 143.223 35.7099 143.19 36.2411C143.157 36.7724 143.306 37.3036 143.636 37.8349C143.867 37.9345 144.214 37.9179 144.677 37.7851C145.172 37.6522 145.552 37.5028 145.816 37.3368C146.708 36.9384 147.567 36.4569 148.393 35.8925C149.219 35.328 150.011 34.7636 150.771 34.1991C151.828 33.4023 152.852 32.6054 153.843 31.8085C154.867 31.0116 155.858 30.2148 156.816 29.4179C158.798 27.7245 160.747 26.0644 162.663 24.4374C164.611 22.7773 166.544 21.1171 168.46 19.457L156.717 23.3417C156.221 23.5078 155.726 23.6738 155.23 23.8398C154.768 24.0058 154.305 24.205 153.843 24.4374C153.678 24.5038 153.496 24.5869 153.298 24.6865C153.133 24.7861 152.935 24.8525 152.703 24.8857C152.439 24.9189 152.175 24.9023 151.911 24.8359C151.646 24.7695 151.432 24.6533 151.267 24.4872C151.167 24.4208 151.019 24.3212 150.821 24.1884C150.655 24.0224 150.556 23.8896 150.523 23.79C150.523 23.5908 150.721 23.4247 151.118 23.2919C151.514 23.1259 151.845 22.9765 152.109 22.8437C153.992 21.9472 155.924 21.1005 157.906 20.3037C159.921 19.5068 161.985 18.7265 164.099 17.9628C165.256 17.5976 166.461 17.2158 167.716 16.8173C168.972 16.3857 170.227 16.0205 171.482 15.7216C172.737 15.3564 174.009 14.9912 175.297 14.6259C176.586 14.2607 177.923 13.9951 179.311 13.8291C179.806 13.7627 180.318 13.7295 180.847 13.7295C181.375 13.6963 181.887 13.6963 182.383 13.7295C182.515 13.7295 182.647 13.7461 182.779 13.7793C182.911 13.8125 183.01 13.8623 183.076 13.9287C183.142 13.9287 183.159 13.9453 183.126 13.9785C183.093 13.9785 183.06 13.9951 183.027 14.0283C183.093 14.0947 183.142 14.1445 183.175 14.1777C183.242 14.1777 183.275 14.2275 183.275 14.3271C183.275 14.4931 183.324 14.6093 183.423 14.6757C183.258 14.7754 183.076 14.8418 182.878 14.875C182.911 15.0078 182.862 15.124 182.73 15.2236C181.838 15.3896 180.929 15.622 180.004 15.9209C179.113 16.1865 178.254 16.4687 177.428 16.7675C176.965 16.9335 176.453 17.1162 175.892 17.3154C175.33 17.4814 174.785 17.664 174.257 17.8632C174.092 17.9296 173.926 17.996 173.761 18.0625C173.596 18.1289 173.448 18.1953 173.315 18.2617C173.183 18.2949 173.101 18.3779 173.068 18.5107C173.035 18.6103 172.985 18.7265 172.919 18.8593C172.357 19.4902 171.796 20.1542 171.234 20.8515C170.706 21.5488 170.21 22.246 169.748 22.9433C169.484 23.3417 169.203 23.7402 168.906 24.1386C168.641 24.537 168.377 24.9521 168.113 25.3837C167.584 26.247 167.089 27.1269 166.626 28.0234C166.197 28.8866 165.735 29.7499 165.239 30.6132C164.744 31.5097 164.298 32.4062 163.901 33.3026L161.523 38.9306C161.457 39.1962 161.358 39.412 161.226 39.578C161.094 39.7772 160.978 39.9931 160.879 40.2255C160.317 41.7528 159.772 43.3798 159.244 45.1063C158.748 46.8661 158.451 48.6757 158.352 50.535C158.418 50.7674 158.451 51.0497 158.451 51.3817C158.451 51.7137 158.484 51.9794 158.55 52.1786C158.484 52.3114 158.484 52.4608 158.55 52.6268C158.616 52.7928 158.583 52.9422 158.451 53.0751Z" fill="black"/>
<path d="M189.393 19.1582C189.327 19.2578 189.293 19.3408 189.293 19.4072C189.327 19.4736 189.277 19.54 189.145 19.6064C189.145 19.6728 189.095 19.706 188.996 19.706C188.93 19.872 188.798 19.9716 188.6 20.0048C188.435 20.038 188.286 20.1376 188.154 20.3037C187.493 20.5029 186.8 20.7519 186.073 21.0507C185.346 21.3496 184.636 21.6816 183.942 22.0468C183.282 22.3788 182.671 22.7275 182.109 23.0927C181.547 23.4579 181.118 23.8232 180.821 24.1884C180.557 24.454 180.276 24.7363 179.978 25.0351C179.681 25.3339 179.417 25.6659 179.186 26.0312C179.087 26.2968 178.971 26.6288 178.839 27.0273C178.74 27.4257 178.641 27.8241 178.542 28.2226C178.442 28.5878 178.327 28.9198 178.195 29.2187C178.096 29.5175 177.997 29.7001 177.897 29.7665C177.831 29.8993 177.699 30.082 177.501 30.3144C177.303 30.5468 177.138 30.6464 177.006 30.6132C176.51 30.8456 176.081 30.8124 175.717 30.5136C175.387 30.2148 175.271 29.7997 175.37 29.2685C175.437 28.9364 175.585 28.4384 175.816 27.7743C176.048 27.1103 176.196 26.5956 176.262 26.2304C176.262 26.2304 176.262 26.2138 176.262 26.1806C176.295 26.081 176.312 25.9814 176.312 25.8818C176.576 25.4169 176.791 24.9355 176.956 24.4374C177.121 23.9394 177.319 23.4579 177.551 22.9931C177.551 22.9599 177.567 22.9433 177.6 22.9433C177.666 22.9101 177.699 22.8769 177.699 22.8437C177.864 22.1796 178.063 21.5322 178.294 20.9013C178.558 20.2373 178.789 19.6064 178.987 19.0087C179.021 18.8759 179.07 18.7763 179.136 18.7099C179.202 18.6435 179.268 18.5605 179.334 18.4609C179.499 18.3945 179.632 18.3281 179.731 18.2617C179.863 18.1953 179.995 18.1621 180.127 18.1621C180.193 18.0957 180.276 18.0625 180.375 18.0625C180.441 18.0625 180.507 18.0791 180.573 18.1123C180.672 18.1123 180.755 18.1123 180.821 18.1123C181.118 18.1455 181.333 18.2617 181.465 18.4609C181.861 18.9921 181.828 19.4902 181.366 19.955C181.333 20.2207 181.267 20.4863 181.168 20.7519C181.102 21.0175 181.052 21.2499 181.019 21.4492C182.175 20.5859 183.315 19.9882 184.438 19.6562C185.561 19.3242 186.601 19.125 187.559 19.0585C187.824 19.0253 188.121 18.9921 188.451 18.9589C188.815 18.9257 189.128 18.9921 189.393 19.1582Z" fill="black"/>
<path d="M199.074 22.9433C199.107 23.1757 199.091 23.4413 199.025 23.7402C198.959 24.0058 198.859 24.2216 198.727 24.3876C198.661 24.5536 198.579 24.7695 198.48 25.0351C198.381 25.3007 198.265 25.5331 198.133 25.7324C197.869 25.9648 197.621 26.3134 197.39 26.7782C197.191 27.2099 196.96 27.5087 196.696 27.6747C196.696 27.6747 196.531 27.8573 196.2 28.2226C195.87 28.5546 195.474 28.9198 195.011 29.3183C194.549 29.6835 194.053 30.0155 193.525 30.3144C193.029 30.6132 192.6 30.7294 192.237 30.663C191.708 30.8622 191.196 30.9452 190.701 30.912C190.205 30.8456 189.759 30.7128 189.363 30.5136C188.966 30.2812 188.636 29.9823 188.372 29.6171C188.108 29.2187 187.942 28.7704 187.876 28.2724C187.843 28.206 187.827 28.0898 187.827 27.9238C187.827 27.7245 187.876 27.5917 187.975 27.5253C187.876 27.2929 187.876 27.0439 187.975 26.7782C188.108 26.5126 188.174 26.2802 188.174 26.081L189.065 23.541C189.165 23.5078 189.214 23.4579 189.214 23.3915C189.247 23.2919 189.297 23.2421 189.363 23.2421C189.561 22.7773 189.825 22.3124 190.156 21.8476C190.519 21.3828 190.882 20.9511 191.246 20.5527C191.444 20.2871 191.659 20.0048 191.89 19.706C192.154 19.4072 192.418 19.1416 192.683 18.9091C192.98 18.6767 193.277 18.5273 193.574 18.4609C193.872 18.3945 194.152 18.4775 194.417 18.7099C194.747 18.7763 195.028 18.8759 195.259 19.0087C195.292 19.0751 195.325 19.0751 195.358 19.0087C195.424 18.9423 195.49 18.9257 195.556 18.9589C195.622 18.9257 195.738 18.9257 195.903 18.9589C196.101 18.9921 196.299 19.0419 196.498 19.1083C196.696 19.1748 196.878 19.2412 197.043 19.3076C197.208 19.374 197.324 19.4404 197.39 19.5068L197.885 20.2041C198.281 20.1044 198.893 19.9882 199.718 19.8554C200.577 19.7226 201.469 19.623 202.394 19.5566C203.319 19.457 204.178 19.4238 204.97 19.457C205.763 19.457 206.341 19.5732 206.705 19.8056C206.738 19.8388 206.771 19.8554 206.804 19.8554C206.87 19.8554 206.919 19.872 206.952 19.9052C206.985 19.9384 207.018 19.955 207.051 19.955C207.25 19.9218 207.349 19.9384 207.349 20.0048C207.382 20.0712 207.464 20.1044 207.596 20.1044C207.762 20.2373 207.795 20.3867 207.696 20.5527C207.596 20.6855 207.481 20.7851 207.349 20.8515C206.985 20.8847 206.754 20.9345 206.655 21.0009C206.589 21.0673 206.506 21.1337 206.407 21.2001C206.341 21.2333 206.209 21.2665 206.011 21.2998C205.813 21.2998 205.433 21.2998 204.871 21.2998C204.409 21.2998 203.913 21.333 203.385 21.3994C202.889 21.4658 202.377 21.5654 201.849 21.6982C201.32 21.831 200.808 21.9638 200.313 22.0966C199.85 22.1962 199.454 22.2958 199.124 22.3955C199.091 22.5283 199.074 22.6445 199.074 22.7441C199.074 22.8105 199.074 22.8769 199.074 22.9433ZM195.507 20.5527C195.342 20.4863 195.176 20.4531 195.011 20.4531C194.846 20.4531 194.697 20.3867 194.565 20.2539L194.417 20.4033C194.218 20.5693 194.053 20.7685 193.921 21.0009C193.822 21.2333 193.69 21.4824 193.525 21.748C193.36 21.9472 193.145 22.246 192.881 22.6445C192.616 23.0429 192.352 23.4745 192.088 23.9394C191.824 24.371 191.576 24.8027 191.345 25.2343C191.147 25.6327 191.031 25.9482 190.998 26.1806C190.899 26.6122 190.767 27.0771 190.601 27.5751C190.436 28.0732 190.469 28.5546 190.701 29.0195C191.427 28.7538 192.055 28.4218 192.583 28.0234C193.145 27.6249 193.657 27.1767 194.119 26.6786L194.417 26.33C194.549 26.0976 194.797 25.666 195.16 25.0351C195.523 24.4042 195.821 23.7568 196.052 23.0927C196.316 22.4287 196.432 21.8476 196.399 21.3496C196.399 20.8183 196.101 20.5527 195.507 20.5527Z" fill="black"/>
<path d="M214.655 22.9433C214.688 23.1757 214.671 23.4413 214.605 23.7402C214.539 24.0058 214.44 24.2216 214.308 24.3876C214.242 24.5536 214.159 24.7695 214.06 25.0351C213.961 25.3007 213.845 25.5331 213.713 25.7324C213.449 25.9648 213.201 26.3134 212.97 26.7782C212.772 27.2099 212.541 27.5087 212.276 27.6747C212.276 27.6747 212.111 27.8573 211.781 28.2226C211.451 28.5546 211.054 28.9198 210.592 29.3183C210.129 29.6835 209.634 30.0155 209.105 30.3144C208.61 30.6132 208.18 30.7294 207.817 30.663C207.289 30.8622 206.777 30.9452 206.281 30.912C205.786 30.8456 205.34 30.7128 204.943 30.5136C204.547 30.2812 204.217 29.9823 203.952 29.6171C203.688 29.2187 203.523 28.7704 203.457 28.2724C203.424 28.206 203.407 28.0898 203.407 27.9238C203.407 27.7245 203.457 27.5917 203.556 27.5253C203.457 27.2929 203.457 27.0439 203.556 26.7782C203.688 26.5126 203.754 26.2802 203.754 26.081L204.646 23.541C204.745 23.5078 204.795 23.4579 204.795 23.3915C204.828 23.2919 204.877 23.2421 204.943 23.2421C205.142 22.7773 205.406 22.3124 205.736 21.8476C206.099 21.3828 206.463 20.9511 206.826 20.5527C207.024 20.2871 207.239 20.0048 207.47 19.706C207.735 19.4072 207.999 19.1416 208.263 18.9091C208.56 18.6767 208.858 18.5273 209.155 18.4609C209.452 18.3945 209.733 18.4775 209.997 18.7099C210.328 18.7763 210.608 18.8759 210.84 19.0087C210.873 19.0751 210.906 19.0751 210.939 19.0087C211.005 18.9423 211.071 18.9257 211.137 18.9589C211.203 18.9257 211.319 18.9257 211.484 18.9589C211.682 18.9921 211.88 19.0419 212.078 19.1083C212.276 19.1748 212.458 19.2412 212.623 19.3076C212.788 19.374 212.904 19.4404 212.97 19.5068L213.466 20.2041C213.862 20.1044 214.473 19.9882 215.299 19.8554C216.158 19.7226 217.05 19.623 217.974 19.5566C218.899 19.457 219.758 19.4238 220.551 19.457C221.344 19.457 221.922 19.5732 222.285 19.8056C222.318 19.8388 222.351 19.8554 222.384 19.8554C222.45 19.8554 222.5 19.872 222.533 19.9052C222.566 19.9384 222.599 19.955 222.632 19.955C222.83 19.9218 222.929 19.9384 222.929 20.0048C222.962 20.0712 223.045 20.1044 223.177 20.1044C223.342 20.2373 223.375 20.3867 223.276 20.5527C223.177 20.6855 223.061 20.7851 222.929 20.8515C222.566 20.8847 222.335 20.9345 222.236 21.0009C222.17 21.0673 222.087 21.1337 221.988 21.2001C221.922 21.2333 221.79 21.2665 221.591 21.2998C221.393 21.2998 221.013 21.2998 220.452 21.2998C219.989 21.2998 219.494 21.333 218.965 21.3994C218.47 21.4658 217.958 21.5654 217.429 21.6982C216.901 21.831 216.389 21.9638 215.893 22.0966C215.431 22.1962 215.035 22.2958 214.704 22.3955C214.671 22.5283 214.655 22.6445 214.655 22.7441C214.655 22.8105 214.655 22.8769 214.655 22.9433ZM211.087 20.5527C210.922 20.4863 210.757 20.4531 210.592 20.4531C210.427 20.4531 210.278 20.3867 210.146 20.2539L209.997 20.4033C209.799 20.5693 209.634 20.7685 209.502 21.0009C209.403 21.2333 209.271 21.4824 209.105 21.748C208.94 21.9472 208.725 22.246 208.461 22.6445C208.197 23.0429 207.933 23.4745 207.668 23.9394C207.404 24.371 207.156 24.8027 206.925 25.2343C206.727 25.6327 206.611 25.9482 206.578 26.1806C206.479 26.6122 206.347 27.0771 206.182 27.5751C206.017 28.0732 206.05 28.5546 206.281 29.0195C207.008 28.7538 207.635 28.4218 208.164 28.0234C208.725 27.6249 209.237 27.1767 209.7 26.6786L209.997 26.33C210.129 26.0976 210.377 25.666 210.74 25.0351C211.104 24.4042 211.401 23.7568 211.632 23.0927C211.897 22.4287 212.012 21.8476 211.979 21.3496C211.979 20.8183 211.682 20.5527 211.087 20.5527Z" fill="black"/>
<path d="M233.258 18.4111C233.324 18.3779 233.373 18.3613 233.406 18.3613C233.472 18.3281 233.472 18.3613 233.406 18.4609C233.439 18.5273 233.505 18.5439 233.605 18.5107C233.737 18.4443 233.836 18.4277 233.902 18.4609C233.968 18.4609 233.951 18.5605 233.852 18.7597C233.786 18.9589 233.588 19.3574 233.258 19.955C233.291 19.9882 233.142 20.2206 232.812 20.6523C232.481 21.0839 232.069 21.582 231.573 22.1464C231.111 22.6777 230.648 23.2089 230.186 23.7402C229.756 24.2382 229.459 24.5702 229.294 24.7363C229.03 25.0019 228.633 25.4501 228.105 26.081C227.609 26.6786 227.031 27.3261 226.371 28.0234C225.743 28.6874 225.066 29.3183 224.339 29.9159C223.612 30.5136 222.902 30.912 222.208 31.1112C221.548 31.3105 220.937 31.2441 220.375 30.912C219.814 30.5468 219.368 29.7665 219.037 28.5712C219.103 28.4384 219.103 28.3056 219.037 28.1728C218.971 28.04 218.938 27.9404 218.938 27.874C218.971 27.4091 219.037 26.9775 219.137 26.579C219.236 26.1474 219.335 25.6992 219.434 25.2343C219.434 25.0019 219.483 24.7861 219.582 24.5869C219.715 24.3544 219.83 24.1386 219.929 23.9394C220.061 23.7402 220.177 23.541 220.276 23.3417C220.375 23.1425 220.425 22.9101 220.425 22.6445C220.557 22.4121 220.656 22.1962 220.722 21.997C220.821 21.7646 220.904 21.5156 220.97 21.2499C221.168 21.0507 221.366 20.8017 221.564 20.5029C221.796 20.204 222.142 20.1542 222.605 20.3535C222.704 20.3867 222.787 20.4365 222.853 20.5029C222.919 20.5693 223.001 20.6357 223.1 20.7021C223.232 20.7685 223.315 20.8183 223.348 20.8515C223.414 20.8847 223.464 20.9843 223.497 21.1503C223.497 21.2499 223.464 21.333 223.398 21.3994C223.365 21.4658 223.348 21.5654 223.348 21.6982C223.348 21.7314 223.299 21.748 223.199 21.748C223.133 21.914 223.067 22.08 223.001 22.246C222.935 22.4121 222.869 22.5781 222.803 22.7441C222.77 22.8105 222.737 22.8437 222.704 22.8437C222.704 22.8437 222.704 22.8769 222.704 22.9433C222.638 23.0429 222.605 23.1591 222.605 23.2919C222.605 23.3915 222.588 23.4745 222.555 23.541C222.555 23.6074 222.539 23.6572 222.506 23.6904C222.473 23.6904 222.456 23.707 222.456 23.7402C222.291 24.3046 222.076 24.9521 221.812 25.6826C221.548 26.413 221.35 27.0605 221.218 27.6249C221.284 27.957 221.597 28.0068 222.159 27.7743C222.754 27.5087 223.414 27.1269 224.141 26.6288C224.901 26.1308 225.627 25.5829 226.321 24.9853C227.015 24.3544 227.51 23.8232 227.807 23.3915C228.105 23.1259 228.369 22.8437 228.6 22.5449C228.831 22.246 229.096 21.9638 229.393 21.6982C229.525 21.5654 229.789 21.2997 230.186 20.9013C230.582 20.5029 230.995 20.1044 231.424 19.706C231.854 19.2744 232.25 18.9257 232.614 18.6601C232.977 18.3945 233.192 18.3115 233.258 18.4111Z" fill="black"/>
<path d="M238.544 29.3681C238.28 29.5341 237.983 29.6669 237.652 29.7665C237.355 29.8329 237.058 29.9159 236.761 30.0155C236.364 30.1152 235.918 30.2148 235.423 30.3144C234.927 30.414 234.432 30.4638 233.936 30.4638C233.441 30.4306 232.962 30.331 232.499 30.165C232.07 29.9657 231.707 29.6503 231.409 29.2187C231.178 28.9198 231.046 28.5546 231.013 28.123C230.98 27.6913 231.013 27.2597 231.112 26.8281C231.211 26.3632 231.343 25.915 231.508 25.4833C231.707 25.0185 231.905 24.6035 232.103 24.2382C232.268 24.1054 232.4 23.9394 232.499 23.7402C232.598 23.541 232.665 23.3749 232.698 23.2421C233.391 22.4121 234.101 21.6152 234.828 20.8515C235.588 20.0878 236.364 19.4902 237.157 19.0585C237.52 18.8261 237.9 18.6269 238.297 18.4609C238.693 18.2949 239.056 18.1289 239.387 17.9628C239.519 17.8964 239.618 17.83 239.684 17.7636C239.783 17.6972 239.915 17.664 240.08 17.664C241.269 17.664 242.046 17.8798 242.409 18.3115C242.772 18.7099 242.954 19.1083 242.954 19.5068C242.921 19.6396 242.805 19.789 242.607 19.955C242.409 20.121 242.26 20.2871 242.161 20.4531C241.996 20.6191 241.847 20.7851 241.715 20.9511C241.583 21.0839 241.484 21.2167 241.418 21.3496C240.097 22.5117 238.775 23.541 237.454 24.4374C237.124 24.7031 236.678 24.8857 236.116 24.9853C235.588 25.0849 235.043 25.1015 234.481 25.0351C234.283 25.2343 234.085 25.4999 233.887 25.832C233.689 26.1308 233.523 26.4628 233.391 26.8281C233.292 27.1601 233.243 27.5087 233.243 27.874C233.276 28.206 233.424 28.4882 233.689 28.7206C234.349 28.787 234.927 28.7206 235.423 28.5214C235.918 28.3222 236.397 28.1562 236.86 28.0234C237.223 27.9238 237.603 27.8075 237.999 27.6747C238.396 27.5419 238.742 27.4091 239.04 27.2763C239.733 26.9443 240.295 26.6786 240.724 26.4794C241.187 26.247 241.616 26.0312 242.013 25.832C242.409 25.6327 242.822 25.4169 243.251 25.1845C243.681 24.9521 244.226 24.6533 244.886 24.288C245.415 24.0224 245.943 23.7568 246.472 23.4911C247.034 23.1923 247.562 22.9101 248.057 22.6445C248.256 22.4785 248.437 22.3622 248.603 22.2958C248.768 22.1962 248.982 22.1132 249.247 22.0468C249.28 22.0468 249.313 22.0302 249.346 21.997C249.412 21.9638 249.461 21.9472 249.494 21.9472C249.792 21.9472 249.94 21.997 249.94 22.0966C249.94 22.1962 249.858 22.3456 249.693 22.5449C249.56 22.7109 249.379 22.8935 249.148 23.0927C248.949 23.2919 248.784 23.4911 248.652 23.6904C248.685 23.6904 248.636 23.7402 248.503 23.8398C248.404 23.9062 248.272 23.9892 248.107 24.0888C247.975 24.1552 247.843 24.2382 247.711 24.3378C247.612 24.4042 247.562 24.4374 247.562 24.4374C247.199 24.7031 246.753 25.0019 246.224 25.3339C245.696 25.6327 245.167 25.9482 244.639 26.2802C244.11 26.579 243.615 26.8613 243.152 27.1269C242.69 27.3925 242.343 27.5751 242.112 27.6747L238.544 29.3681ZM234.977 24.2382C235.274 24.2382 235.555 24.1552 235.819 23.9892C236.116 23.8232 236.397 23.6572 236.661 23.4911C237.322 22.9599 237.999 22.3788 238.693 21.748C239.387 21.0839 240.014 20.4199 240.576 19.7558C240.642 19.7558 240.675 19.706 240.675 19.6064C239.486 20.038 238.429 20.6689 237.504 21.499C236.612 22.329 235.77 23.2421 234.977 24.2382Z" fill="black"/>
<path d="M259.86 23.79C259.926 23.79 260.009 23.79 260.108 23.79C260.207 23.7568 260.322 23.707 260.455 23.6406H260.752L260.901 23.5908H261.396C261.924 23.9228 262.106 24.2216 261.941 24.4872C261.809 24.7197 261.561 24.8691 261.198 24.9355C260.867 25.1015 260.422 25.2841 259.86 25.4833C259.331 25.6826 258.786 25.8818 258.225 26.081C257.696 26.247 257.217 26.3964 256.788 26.5292C256.359 26.662 256.111 26.7284 256.045 26.7284C256.012 26.7284 255.979 26.745 255.946 26.7782C255.946 26.7782 255.913 26.7782 255.847 26.7782C255.781 26.8115 255.731 26.8281 255.698 26.8281C255.236 27.7577 254.872 28.4052 254.608 28.7704C254.377 29.1025 254.162 29.3681 253.964 29.5673L253.666 29.8163C252.907 30.4472 252.246 30.9784 251.685 31.4101C251.123 31.8417 250.628 32.2069 250.198 32.5058C249.802 32.8046 249.455 33.037 249.158 33.203C248.86 33.4023 248.596 33.5517 248.365 33.6513V33.6015C247.704 33.9667 247.11 34.2157 246.581 34.3485C246.086 34.4814 245.706 34.5478 245.442 34.5478C244.781 34.5478 244.335 34.3983 244.104 34.0995C243.839 33.8339 243.707 33.4853 243.707 33.0536C243.707 32.4228 244.005 31.7919 244.599 31.1611C245.161 30.5302 245.838 29.9325 246.631 29.3681C247.456 28.8036 248.332 28.3056 249.257 27.874C250.182 27.4091 250.991 27.0273 251.685 26.7284C252.378 26.3964 252.874 26.164 253.171 26.0312C253.501 25.8652 253.468 25.832 253.072 25.9316L252.874 25.8818C252.444 25.8818 251.866 25.915 251.14 25.9814C250.413 26.0146 249.719 26.1142 249.059 26.2802C248.728 26.3466 248.414 26.413 248.117 26.4794C247.82 26.5126 247.44 26.496 246.977 26.4296H247.027C246.994 26.4296 246.961 26.4296 246.928 26.4296C246.928 26.3964 246.911 26.3798 246.878 26.3798C246.812 26.3798 246.713 26.3632 246.581 26.33C246.482 26.2636 246.416 26.2138 246.383 26.1806H246.432C246.168 25.9482 245.987 25.7158 245.887 25.4833C245.788 25.2509 245.739 25.0351 245.739 24.8359C245.739 24.6367 245.772 24.4706 245.838 24.3378C245.937 24.1718 246.02 24.039 246.086 23.9394C246.251 23.6738 246.482 23.4081 246.779 23.1425C247.077 22.8769 247.44 22.5117 247.869 22.0468L248.018 21.8974C248.414 21.6318 248.827 21.333 249.257 21.0009C249.686 20.6689 250.132 20.3701 250.595 20.1044C251.057 19.8056 251.519 19.5566 251.982 19.3574C252.477 19.125 252.956 18.9921 253.419 18.9589L253.766 18.8593C253.964 18.8593 254.178 18.9091 254.41 19.0087C254.641 19.0751 254.839 19.1416 255.004 19.208C255.169 19.5068 255.219 19.7392 255.153 19.9052C255.12 20.0712 255.037 20.1874 254.905 20.2539L254.36 20.5527L254.261 20.6025C254.162 20.7021 254.013 20.7851 253.815 20.8515C253.881 20.7851 253.815 20.8183 253.617 20.9511C253.452 21.0507 253.287 21.1337 253.121 21.2001C252.857 21.4658 252.494 21.665 252.031 21.7978C251.569 21.9306 251.189 22.0966 250.892 22.2958L250.396 22.5947L249.653 23.1923L249.207 23.541C248.778 23.8066 248.398 24.1386 248.068 24.537C248.596 24.4706 249.075 24.3876 249.504 24.288C249.967 24.2216 250.479 24.1718 251.04 24.1386C251.635 24.0722 252.213 24.0556 252.775 24.0888C253.072 24.122 253.402 24.1718 253.766 24.2382C254.129 24.3046 254.443 24.4208 254.707 24.5869H254.657C255.021 24.7861 255.202 24.9023 255.202 24.9355C255.236 24.9687 255.269 24.9853 255.302 24.9853L255.351 25.0849C255.384 25.0517 255.417 25.0351 255.45 25.0351C255.483 25.0351 255.516 25.0351 255.549 25.0351C255.615 25.0019 255.665 24.9853 255.698 24.9853L255.946 24.8857L259.464 23.8398C259.563 23.8398 259.695 23.8232 259.86 23.79ZM248.068 30.3642C248.001 30.4306 247.803 30.6132 247.473 30.912C247.143 31.2109 246.928 31.4267 246.829 31.5595C246.565 31.7255 246.333 31.9081 246.135 32.1073C245.97 32.3066 245.854 32.456 245.788 32.5556C245.689 32.7216 245.739 32.788 245.937 32.7548C246.135 32.7548 246.383 32.6884 246.68 32.5556C246.978 32.456 247.275 32.3232 247.572 32.1571C247.902 32.0243 248.117 31.9247 248.216 31.8583H248.167L249.405 31.1611C250.363 30.497 251.073 29.9491 251.536 29.5175C251.998 29.0527 252.411 28.5546 252.775 28.0234L252.18 28.2226C251.189 28.6874 250.462 29.0361 250 29.2685C249.537 29.4677 249.158 29.6503 248.86 29.8163L248.216 30.3144L248.068 30.3642Z" fill="black"/>
<path d="M92.1484 51.0312C92.6406 51.0312 93.0234 50.9629 93.2969 50.8262C93.7266 50.6113 93.9414 50.2246 93.9414 49.666C93.9414 49.1035 93.7129 48.7246 93.2559 48.5293C92.998 48.4199 92.6152 48.3652 92.1074 48.3652H90.0273V51.0312H92.1484ZM92.541 55.0039C93.2559 55.0039 93.7656 54.7969 94.0703 54.3828C94.2617 54.1211 94.3574 53.8047 94.3574 53.4336C94.3574 52.8086 94.0781 52.3828 93.5195 52.1562C93.2227 52.0352 92.8301 51.9746 92.3418 51.9746H90.0273V55.0039H92.541ZM88.8848 47.3926H92.582C93.5898 47.3926 94.3066 47.6934 94.7324 48.2949C94.9824 48.6504 95.1074 49.0605 95.1074 49.5254C95.1074 50.0684 94.9531 50.5137 94.6445 50.8613C94.4844 51.0449 94.2539 51.2129 93.9531 51.3652C94.3945 51.5332 94.7246 51.7227 94.9434 51.9336C95.3301 52.3086 95.5234 52.8262 95.5234 53.4863C95.5234 54.041 95.3496 54.543 95.002 54.9922C94.4824 55.6641 93.6562 56 92.5234 56H88.8848V47.3926ZM96.7773 49.7539H97.8496V56H96.7773V49.7539ZM96.7773 47.3926H97.8496V48.5879H96.7773V47.3926ZM99.4785 47.3926H100.533V56H99.4785V47.3926ZM102.15 47.3926H103.205V56H102.15V47.3926ZM111.508 51.0312C112 51.0312 112.383 50.9629 112.656 50.8262C113.086 50.6113 113.301 50.2246 113.301 49.666C113.301 49.1035 113.072 48.7246 112.615 48.5293C112.357 48.4199 111.975 48.3652 111.467 48.3652H109.387V51.0312H111.508ZM111.9 55.0039C112.615 55.0039 113.125 54.7969 113.43 54.3828C113.621 54.1211 113.717 53.8047 113.717 53.4336C113.717 52.8086 113.438 52.3828 112.879 52.1562C112.582 52.0352 112.189 51.9746 111.701 51.9746H109.387V55.0039H111.9ZM108.244 47.3926H111.941C112.949 47.3926 113.666 47.6934 114.092 48.2949C114.342 48.6504 114.467 49.0605 114.467 49.5254C114.467 50.0684 114.312 50.5137 114.004 50.8613C113.844 51.0449 113.613 51.2129 113.312 51.3652C113.754 51.5332 114.084 51.7227 114.303 51.9336C114.689 52.3086 114.883 52.8262 114.883 53.4863C114.883 54.041 114.709 54.543 114.361 54.9922C113.842 55.6641 113.016 56 111.883 56H108.244V47.3926ZM118.627 55.3203C119.326 55.3203 119.805 55.0566 120.062 54.5293C120.324 53.998 120.455 53.4082 120.455 52.7598C120.455 52.1738 120.361 51.6973 120.174 51.3301C119.877 50.752 119.365 50.4629 118.639 50.4629C117.994 50.4629 117.525 50.709 117.232 51.2012C116.939 51.6934 116.793 52.2871 116.793 52.9824C116.793 53.6504 116.939 54.207 117.232 54.6523C117.525 55.0977 117.99 55.3203 118.627 55.3203ZM118.668 49.543C119.477 49.543 120.16 49.8125 120.719 50.3516C121.277 50.8906 121.557 51.6836 121.557 52.7305C121.557 53.7422 121.311 54.5781 120.818 55.2383C120.326 55.8984 119.562 56.2285 118.527 56.2285C117.664 56.2285 116.979 55.9375 116.471 55.3555C115.963 54.7695 115.709 53.9844 115.709 53C115.709 51.9453 115.977 51.1055 116.512 50.4805C117.047 49.8555 117.766 49.543 118.668 49.543ZM123.303 49.7246L124.51 54.6699L125.734 49.7246H126.918L128.148 54.6406L129.432 49.7246H130.486L128.664 56H127.568L126.291 51.1426L125.055 56H123.959L122.148 49.7246H123.303ZM134.102 49.584C134.547 49.584 134.979 49.6895 135.396 49.9004C135.814 50.1074 136.133 50.377 136.352 50.709C136.562 51.0254 136.703 51.3945 136.773 51.8164C136.836 52.1055 136.867 52.5664 136.867 53.1992H132.268C132.287 53.8359 132.438 54.3477 132.719 54.7344C133 55.1172 133.436 55.3086 134.025 55.3086C134.576 55.3086 135.016 55.127 135.344 54.7637C135.531 54.5527 135.664 54.3086 135.742 54.0312H136.779C136.752 54.2617 136.66 54.5195 136.504 54.8047C136.352 55.0859 136.18 55.3164 135.988 55.4961C135.668 55.8086 135.271 56.0195 134.799 56.1289C134.545 56.1914 134.258 56.2227 133.938 56.2227C133.156 56.2227 132.494 55.9395 131.951 55.373C131.408 54.8027 131.137 54.0059 131.137 52.9824C131.137 51.9746 131.41 51.1562 131.957 50.5273C132.504 49.8984 133.219 49.584 134.102 49.584ZM135.783 52.3613C135.74 51.9043 135.641 51.5391 135.484 51.2656C135.195 50.7578 134.713 50.5039 134.037 50.5039C133.553 50.5039 133.146 50.6797 132.818 51.0312C132.49 51.3789 132.316 51.8223 132.297 52.3613H135.783ZM138.168 49.7246H139.17V50.6152C139.467 50.248 139.781 49.9844 140.113 49.8242C140.445 49.6641 140.814 49.584 141.221 49.584C142.111 49.584 142.713 49.8945 143.025 50.5156C143.197 50.8555 143.283 51.3418 143.283 51.9746V56H142.211V52.0449C142.211 51.6621 142.154 51.3535 142.041 51.1191C141.854 50.7285 141.514 50.5332 141.021 50.5332C140.771 50.5332 140.566 50.5586 140.406 50.6094C140.117 50.6953 139.863 50.8672 139.645 51.125C139.469 51.332 139.354 51.5469 139.299 51.7695C139.248 51.9883 139.223 52.3027 139.223 52.7129V56H138.168V49.7246Z" fill="black"/>
</svg>
