<svg width="1432" height="294" viewBox="0 0 1432 294" fill="none" xmlns="http://www.w3.org/2000/svg">
<path d="M357.111 122.202C356.75 123.287 355.938 123.829 354.674 123.829C353.41 123.648 352.507 123.739 351.966 124.1C352.146 124.281 351.695 124.642 350.612 125.185C349.528 125.546 348.445 125.998 347.362 126.54C346.279 126.902 345.466 127.264 344.925 127.625C344.564 127.806 345.195 127.625 346.82 127.083C347.001 127.625 345.557 128.348 342.487 129.252C339.599 129.975 336.259 130.698 332.467 131.421C328.856 132.144 325.336 132.777 321.906 133.319C318.656 133.862 316.76 134.133 316.219 134.133C314.052 134.314 310.983 134.766 307.011 135.489C303.039 136.212 298.887 137.116 294.554 138.2C290.221 139.104 285.978 140.008 281.825 140.912C277.853 141.635 274.694 142.177 272.347 142.539L271.805 143.081C271.805 142.9 271.805 142.81 271.805 142.81C271.805 142.81 271.444 143.081 270.722 143.623C270.18 143.985 269.278 144.708 268.014 145.793C266.75 146.877 264.945 148.414 262.598 150.402C260.612 152.391 258.536 154.379 256.369 156.368C254.383 158.176 252.307 159.803 250.14 161.249C249.057 162.514 247.974 163.599 246.891 164.503C245.807 165.406 244.544 166.31 243.099 167.214C242.196 168.48 241.113 169.383 239.849 169.926C238.766 170.649 237.593 171.553 236.329 172.637C235.246 173.541 234.072 174.445 232.808 175.349C231.545 176.253 230.281 177.157 229.017 178.061C225.406 180.591 221.795 183.213 218.184 185.924C214.574 188.816 210.963 191.528 207.352 194.059C203.019 196.409 198.957 199.03 195.165 201.922C191.374 204.815 187.222 207.255 182.708 209.244C181.805 209.786 180.903 210.419 180 211.142C179.097 211.865 177.924 212.226 176.479 212.226C173.952 213.853 171.244 215.48 168.355 217.107C165.466 218.915 162.397 220.361 159.147 221.446C156.8 222.711 154.453 223.705 152.106 224.429C149.759 225.332 147.322 226.327 144.794 227.411C144.433 227.231 144.433 227.231 144.794 227.411C145.155 227.773 145.155 227.954 144.794 227.954C143.531 228.315 142.447 228.677 141.545 229.038C140.642 229.581 139.739 230.032 138.836 230.394C137.573 230.936 136.219 231.479 134.774 232.021C133.33 232.744 131.976 233.558 130.712 234.461C129.99 234.1 129.448 234.1 129.087 234.461C128.907 234.823 128.455 235.004 127.733 235.004C126.108 236.45 124.122 237.535 121.775 238.258C119.428 238.981 117.262 239.885 115.276 240.969C115.276 240.969 114.915 240.969 114.193 240.969C109.498 243.138 104.804 245.127 100.11 246.935C95.5968 248.742 90.7221 250.279 85.4864 251.544C85.1253 251.725 84.8545 251.906 84.674 252.087C84.674 252.448 84.4032 252.719 83.8616 252.9C81.334 253.623 78.9869 254.346 76.8204 255.069C74.8345 255.793 72.3069 256.244 69.2377 256.425C68.8766 256.425 68.6961 256.606 68.6961 256.968C68.8766 257.329 68.7863 257.51 68.4253 257.51C66.9809 257.51 65.7171 257.691 64.6339 258.052C63.7312 258.594 62.7382 258.866 61.6549 258.866C54.7944 260.131 47.3922 261.035 39.4483 261.577C31.5045 262.12 23.8315 261.396 16.4293 259.408L13.992 258.323C12.9087 257.962 11.9157 257.691 11.013 257.51C9.92979 257.51 8.75626 257.239 7.49247 256.696C5.32597 255.612 3.43029 254.075 1.80541 252.087C9.685e-07 250.279 -0.451354 247.477 0.451353 243.681C1.17352 242.596 1.89569 241.421 2.61785 240.156C3.15948 239.071 3.61083 238.077 3.97191 237.173C5.2357 234.281 6.95085 231.659 9.11735 229.309C11.2838 226.959 13.3601 224.88 15.346 223.073C16.0682 221.807 17.0612 220.723 18.325 219.819C19.4082 219.096 20.4012 218.192 21.3039 217.107C28.345 211.503 35.2959 206.623 42.1565 202.465C49.017 198.488 55.9679 194.872 63.009 191.618C70.0501 188.365 77.2718 185.201 84.674 182.128C92.0762 179.055 99.9297 175.62 108.235 171.824C109.318 168.208 110.672 164.051 112.297 159.351C113.922 154.47 115.637 149.589 117.442 144.708C119.248 139.827 120.963 135.127 122.588 130.608C124.393 125.908 125.837 121.75 126.921 118.135C127.282 116.327 127.823 114.971 128.546 114.067C128.726 112.621 128.907 111.446 129.087 110.542C129.268 109.638 129.629 108.825 130.17 108.102C133.601 98.5208 136.941 89.211 140.191 80.1724C143.44 70.9531 147.051 62.0048 151.023 53.3278L154.273 44.9219C154.634 44.018 155.085 43.3853 155.627 43.0238C156.168 42.4814 156.439 41.5776 156.439 40.3122C155.898 39.4083 155.356 39.2275 154.814 39.7699C154.273 40.1314 153.641 40.4929 152.919 40.8545C144.072 44.1084 136.851 46.7296 131.254 48.7181C125.837 50.7066 121.053 52.5143 116.901 54.1412C112.748 55.7682 108.686 57.5759 104.714 59.5644C100.742 61.3721 95.9578 63.9029 90.361 67.1568C88.9167 68.0607 87.4724 69.1453 86.0281 70.4107C84.5837 71.4954 82.9588 72.3088 81.1534 72.8512C79.5286 73.755 77.8134 74.5685 76.008 75.2916C74.2026 75.8339 72.7582 76.6474 71.675 77.732C70.0501 78.8166 68.5155 79.9917 67.0712 81.2571C65.6269 82.3417 63.6409 82.7032 61.1133 82.3417C60.7522 82.3417 60.3912 82.2513 60.0301 82.0705C59.4884 81.709 58.9468 81.3474 58.4052 80.9859C57.1414 80.6244 56.0582 80.3532 55.1554 80.1724C54.2527 79.9917 53.35 79.4493 52.4473 78.5455C51.9057 78.0032 51.1835 77.3705 50.2808 76.6474C49.3781 75.7435 48.9268 75.0204 48.9268 74.4781C48.9268 73.5742 49.7392 72.58 51.3641 71.4954C52.9889 70.23 53.9819 69.4165 54.343 69.0549C55.2457 68.6934 56.2387 68.3319 57.3219 67.9703C58.4052 67.428 59.4884 66.7953 60.5717 66.0722C63.0993 64.626 65.8074 63.1799 68.6961 61.7337C71.5847 60.2875 74.3831 58.7509 77.0912 57.124C81.2437 55.1355 85.3059 53.3278 89.2778 51.7008C93.2497 49.8931 97.4022 48.0854 101.735 46.2777C111.304 42.3007 121.234 38.3237 131.525 34.3467C141.815 30.3697 152.377 27.1158 163.21 24.585C163.751 23.6811 164.203 22.7773 164.564 21.8734C164.925 20.7888 165.466 19.8849 166.189 19.1618V17.2637C166.73 16.1791 167.272 15.1849 167.813 14.281C168.536 13.1964 169.619 12.5637 171.063 12.3829C171.244 12.3829 171.334 12.2925 171.334 12.1117V11.5694C172.237 11.2079 172.959 10.8463 173.5 10.4848C174.223 10.1232 174.854 9.76169 175.396 9.40015C179.007 9.94247 181.715 11.1175 183.52 12.9252C185.506 14.5522 187.222 16.5406 188.666 18.8907C192.638 18.7099 196.61 18.3484 200.582 17.8061C204.734 17.2637 208.977 16.9022 213.31 16.7214C219.448 16.3599 226.219 16.1791 233.621 16.1791C241.204 15.9983 248.696 16.3599 256.098 17.2637C263.5 17.9868 270.542 19.3426 277.222 21.3311C284.082 23.1388 289.859 25.9408 294.554 29.737C297.081 31.7255 299.428 34.0755 301.595 36.7871C303.761 39.4987 305.657 42.1199 307.282 44.6507C308.907 47.3623 310.351 50.345 311.615 53.5989C313.059 56.6721 314.052 60.0163 314.594 63.6318C315.135 68.3319 314.142 73.9358 311.615 80.4436C309.268 86.9514 306.289 93.4592 302.678 99.967C299.067 106.475 295.276 112.531 291.304 118.135C287.332 123.739 284.082 127.896 281.555 130.608C284.082 130.427 286.971 129.975 290.221 129.252C293.651 128.529 296.991 127.806 300.241 127.083C303.671 126.179 307.011 125.456 310.261 124.914C313.691 124.19 316.67 123.648 319.197 123.287C321.003 122.925 322.808 122.744 324.614 122.744C326.419 122.563 328.315 122.473 330.301 122.473C333.189 121.931 335.627 121.569 337.613 121.388C339.599 121.027 341.314 120.756 342.758 120.575C344.202 120.394 345.557 120.304 346.82 120.304C348.265 120.123 349.98 119.852 351.966 119.49C352.507 119.49 353.23 119.581 354.132 119.762C355.216 119.942 355.757 120.213 355.757 120.575C356.479 121.479 356.66 121.931 356.299 121.931C355.938 121.75 356.208 121.84 357.111 122.202ZM165.918 156.639C174.042 154.289 181.896 152.029 189.478 149.86C197.061 147.51 204.644 145.341 212.227 143.352C219.809 141.364 227.482 139.556 235.246 137.929C243.189 136.121 251.404 134.494 259.89 133.048C261.514 131.421 263.41 129.252 265.577 126.54C267.924 123.829 270.271 121.027 272.618 118.135C274.965 115.242 277.131 112.44 279.117 109.729C281.284 107.017 283.089 104.848 284.533 103.221C286.158 100.871 287.783 98.1593 289.408 95.0861C291.033 92.013 292.477 88.8495 293.741 85.5956C295.185 82.3417 296.359 79.0878 297.262 75.8339C298.345 72.3992 298.977 69.2357 299.157 66.3434C299.518 60.5587 298.164 54.8643 295.095 49.2604C292.026 43.6565 287.873 39.8602 282.638 37.8717C272.166 33.8948 262.146 31.364 252.578 30.2793C243.189 29.0139 234.253 28.6524 225.767 29.1947C217.462 29.5562 209.699 30.3697 202.477 31.6351C195.256 32.9005 188.576 33.8948 182.437 34.6179C180.812 37.8718 179.549 40.4026 178.646 42.2103C177.924 43.8372 176.931 45.7353 175.667 47.9046C174.042 50.9777 172.869 53.7797 172.146 56.3105C171.244 57.2144 170.702 58.1182 170.522 59.0221C170.522 59.5644 170.16 60.7394 169.438 62.5472C168.716 63.9933 167.994 65.3491 167.272 66.6145C166.73 67.8799 166.279 69.3261 165.918 70.9531C165.015 72.58 164.203 74.1166 163.48 75.5627C162.939 77.0089 162.397 78.4551 161.856 79.9013C161.856 80.4436 161.765 81.0763 161.585 81.7994C161.585 82.5225 161.494 83.3359 161.314 84.2398L156.439 94.0015C154.995 96.7131 153.731 99.6958 152.648 102.95C151.745 106.023 150.842 108.915 149.94 111.627C149.037 114.7 147.773 117.773 146.148 120.846C144.704 123.739 143.44 126.721 142.357 129.794C141.815 131.421 140.822 134.043 139.378 137.658C137.934 141.093 136.489 144.889 135.045 149.047C133.601 153.024 132.156 156.91 130.712 160.706C129.448 164.503 128.636 167.395 128.275 169.383C130.983 168.66 133.872 167.757 136.941 166.672C140.191 165.406 143.531 164.231 146.961 163.147C150.391 161.881 153.731 160.706 156.981 159.622C160.231 158.356 163.21 157.362 165.918 156.639ZM229.559 147.691C214.935 151.668 203.019 155.012 193.811 157.724C184.784 160.254 177.653 162.333 172.417 163.96C167.181 165.587 163.48 166.762 161.314 167.485C159.147 168.208 157.703 168.66 156.981 168.841C156.439 169.745 156.078 170.107 155.898 169.926C149.94 171.553 144.072 173.903 138.295 176.976C132.698 180.049 128.004 182.218 124.213 183.484C122.768 188.907 121.143 193.788 119.338 198.126C117.713 202.646 115.908 206.984 113.922 211.142C113.741 211.142 113.561 211.232 113.38 211.413C113.38 211.594 113.2 211.684 112.838 211.684C112.297 213.492 111.575 214.667 110.672 215.209C109.769 215.932 108.776 216.294 107.693 216.294C106.79 216.294 105.707 216.113 104.443 215.751C103.18 215.571 101.916 215.48 100.652 215.48C100.11 214.576 99.7492 213.492 99.5687 212.226C99.5687 210.961 99.6589 209.696 99.8395 208.43C100.02 206.984 100.291 204.905 100.652 202.194C101.194 199.482 101.735 196.861 102.277 194.33C102.999 191.257 103.631 188.184 104.172 185.111C102.367 185.472 100.471 186.195 98.4854 187.28C96.68 188.545 94.7843 189.63 92.7984 190.534C91.8957 190.895 90.9027 191.166 89.8194 191.347C88.7362 191.528 87.7432 192.07 86.8405 192.974C79.9799 195.505 73.8415 197.855 68.4253 200.024C63.009 202.194 57.2317 205.267 51.0933 209.244C46.9408 212.136 43.0592 214.667 39.4483 216.836C35.657 219.005 31.685 221.717 27.5326 224.971C27.5326 225.332 27.6229 225.513 27.8034 225.513C27.8034 225.694 27.7131 225.965 27.5326 226.327C26.8104 227.411 26.0883 228.225 25.3661 228.767C24.4634 229.309 23.6509 229.761 22.9288 230.123C22.0261 230.665 21.2136 231.208 20.4915 231.75C19.7693 232.473 19.0471 233.377 18.325 234.461C18.5055 234.823 18.8666 234.913 19.4082 234.733C19.7693 234.552 20.0401 234.552 20.2207 234.733C19.3179 236.36 18.325 237.986 17.2417 239.613C15.9779 241.24 15.2558 243.319 15.0752 245.85C16.5196 246.935 18.1444 247.567 19.9498 247.748C21.7553 248.11 23.6509 248.29 25.6369 248.29C27.4423 248.29 29.338 248.2 31.324 248.019C33.1294 247.839 34.8445 247.839 36.4694 248.019C37.9137 247.658 39.1775 247.296 40.2608 246.935C41.1635 246.754 42.0662 246.754 42.9689 246.935C43.6911 246.754 44.4132 246.573 45.1354 246.392C45.677 246.212 46.1284 246.121 46.4895 246.121C54.6138 244.675 62.1966 242.777 69.2377 240.427C76.2788 238.258 83.3199 236.088 90.361 233.919C90.9027 233.377 91.5346 232.834 92.2567 232.292C92.9789 231.931 93.7913 231.75 94.694 231.75C95.4162 231.388 96.1384 230.936 96.8605 230.394C97.7633 230.032 98.7562 229.761 99.8395 229.581C107.964 225.965 115.908 222.259 123.671 218.463C131.434 214.667 139.107 210.599 146.69 206.261C147.051 206.623 147.232 206.623 147.232 206.261C147.412 206.08 147.683 205.99 148.044 205.99C148.405 205.628 148.857 205.267 149.398 204.905C150.12 204.544 150.752 204.182 151.294 203.821C152.558 203.821 153.641 203.278 154.544 202.194C155.627 201.29 156.62 200.747 157.523 200.567C159.689 200.024 162.578 198.849 166.189 197.042C169.799 195.234 173.681 193.065 177.833 190.534C182.166 188.184 186.499 185.563 190.832 182.67C195.346 179.959 199.498 177.337 203.29 174.807C207.081 172.276 210.331 170.016 213.039 168.028C215.747 165.858 217.553 164.412 218.455 163.689C219.719 163.147 221.344 162.153 223.33 160.706C225.316 159.26 227.392 157.633 229.559 155.826C231.906 153.837 234.343 151.849 236.871 149.86C239.398 147.691 241.835 145.793 244.182 144.166C242.738 144.347 240.481 144.798 237.412 145.522C234.343 146.245 232.447 146.787 231.725 147.148C231.364 147.148 231.093 147.329 230.913 147.691C230.732 148.052 230.281 148.052 229.559 147.691Z" fill="#F80059"/>
<path d="M347.042 151.758C347.584 152.301 349.119 152.12 351.646 151.216C354.174 150.131 357.243 148.775 360.854 147.148C364.645 145.341 368.798 143.352 373.311 141.183C377.825 139.014 382.338 137.116 386.852 135.489C388.116 135.127 389.56 134.585 391.185 133.862C392.99 133.139 394.344 132.506 395.247 131.964C396.691 131.06 398.136 130.156 399.58 129.252C401.024 128.348 402.74 127.715 404.725 127.354C405.448 127.173 405.809 126.902 405.809 126.54C405.809 125.998 405.899 126.089 406.08 126.812C406.441 126.992 406.711 127.083 406.892 127.083C407.073 126.902 407.253 126.902 407.434 127.083C407.434 127.806 406.982 128.8 406.08 130.066L404.184 131.692C402.74 132.958 401.205 134.223 399.58 135.489C397.955 136.573 396.15 137.568 394.164 138.471C392.539 139.918 390.553 141.273 388.206 142.539C386.039 143.804 383.873 144.979 381.706 146.064C379.72 146.787 376.832 148.414 373.04 150.945C369.43 153.476 365.548 156.097 361.396 158.808C357.424 161.52 353.722 163.96 350.292 166.13C346.862 168.118 344.515 168.841 343.251 168.299C342.709 168.841 342.348 169.022 342.168 168.841C341.987 168.841 341.626 168.841 341.085 168.841C338.196 168.841 335.668 168.57 333.502 168.028C331.516 167.305 329.801 165.949 328.356 163.96C327.815 161.791 327.815 159.622 328.356 157.453C328.898 155.283 329.62 152.843 330.523 150.131C331.065 148.685 331.606 147.329 332.148 146.064C332.87 144.798 333.412 143.443 333.773 141.996C334.495 140.55 335.217 139.014 335.939 137.387C336.661 135.76 337.293 134.223 337.835 132.777C339.821 128.619 341.897 124.462 344.064 120.304C346.23 115.965 348.577 111.988 351.105 108.373C352.549 107.469 353.903 106.927 355.167 106.746C355.889 106.384 356.611 106.475 357.333 107.017C358.236 107.379 358.958 107.379 359.5 107.017C360.041 107.74 360.583 108.373 361.125 108.915C361.847 109.458 362.298 110.181 362.479 111.084C362.659 112.35 362.75 113.344 362.75 114.067C362.93 114.79 362.84 115.604 362.479 116.508C362.659 117.773 362.298 119.129 361.396 120.575C361.034 121.117 360.764 121.75 360.583 122.473C360.403 123.015 360.132 123.648 359.771 124.371C359.59 124.552 359.41 124.642 359.229 124.642C359.229 124.462 359.139 124.462 358.958 124.642C358.597 124.823 358.417 125.094 358.417 125.456C358.417 125.817 358.236 126.089 357.875 126.269C356.611 128.8 355.257 131.421 353.813 134.133C352.368 136.844 351.014 139.466 349.751 141.996C348.487 144.347 347.584 146.425 347.042 148.233C346.501 150.041 346.501 151.216 347.042 151.758ZM358.146 85.5956C357.965 85.0533 358.417 84.059 359.5 82.6129C360.583 81.1667 361.847 79.8109 363.291 78.5455C364.736 77.2801 366.18 76.3762 367.624 75.8339C369.069 75.2916 370.242 75.5627 371.145 76.6474C371.506 76.6474 371.777 76.7378 371.957 76.9185C372.318 77.0993 372.589 77.1897 372.77 77.1897C374.033 78.6359 374.395 80.4436 373.853 82.6129C373.492 84.6013 372.589 85.9571 371.145 86.6802C371.325 87.0418 371.325 87.3129 371.145 87.4937C370.964 87.4937 370.874 87.6745 370.874 88.036C370.332 87.6745 370.062 87.8552 370.062 88.5783C370.242 89.3014 369.971 89.4822 369.249 89.1206C369.43 89.663 369.159 90.2053 368.437 90.7476C367.895 91.2899 367.624 91.8322 367.624 92.3745C367.263 92.1938 367.083 92.1938 367.083 92.3745C367.083 92.3745 366.902 92.3745 366.541 92.3745C366.18 93.2784 365.367 94.0015 364.104 94.5438C363.02 94.9054 362.208 95.4477 361.666 96.1708C361.305 96.1708 360.944 96.2612 360.583 96.4419C360.403 96.6227 359.951 96.5323 359.229 96.1708C358.146 95.8092 357.424 95.2669 357.063 94.5438C356.701 93.64 356.521 92.6457 356.521 91.5611C356.701 90.4764 356.972 89.3918 357.333 88.3072C357.694 87.2225 357.965 86.3187 358.146 85.5956Z" fill="#F80059"/>
<path d="M347.743 293.032C345.757 291.585 344.222 289.868 343.139 287.88C341.875 286.072 341.514 285.078 342.056 284.897C341.695 275.497 343.951 265.645 348.826 255.341C353.701 245.037 360.02 234.823 367.783 224.7C375.546 214.757 384.032 205.176 393.239 195.957C402.447 186.918 411.203 178.693 419.508 171.282C420.772 170.378 422.397 169.022 424.383 167.214C426.369 165.226 427.903 163.87 428.986 163.147C430.792 162.243 431.965 161.61 432.507 161.249C433.229 160.706 433.681 160.345 433.861 160.164C434.042 160.164 434.403 159.351 434.944 157.724C435.666 156.097 435.847 155.283 435.486 155.283C436.208 154.018 436.75 153.114 437.111 152.572C437.472 151.849 437.743 151.216 437.923 150.674C438.284 150.131 438.555 149.589 438.736 149.047C438.916 148.324 439.277 147.239 439.819 145.793C440.18 144.889 440.451 143.985 440.631 143.081C440.992 142.177 440.992 141.183 440.631 140.098C440.27 140.098 439.909 140.641 439.548 141.725C439.007 141.725 438.736 141.816 438.736 141.996C438.375 142.358 438.014 142.72 437.652 143.081C437.291 143.443 436.93 143.804 436.569 144.166C435.666 144.527 435.035 144.979 434.674 145.522C433.049 147.148 431.333 148.595 429.528 149.86C427.903 150.945 426.369 152.21 424.924 153.656C424.383 154.199 423.39 154.922 421.945 155.826C420.501 156.549 418.966 157.362 417.342 158.266C415.717 158.989 414.092 159.712 412.467 160.435C411.023 160.978 409.849 161.339 408.946 161.52C408.585 161.701 407.502 161.791 405.697 161.791C404.072 161.791 402.266 161.701 400.28 161.52C398.475 161.339 396.67 161.158 394.864 160.978C393.239 160.797 392.246 160.526 391.885 160.164H392.427C392.066 159.983 391.795 159.712 391.614 159.351C391.434 158.989 390.982 158.808 390.26 158.808C389.538 157.724 389.087 156.458 388.906 155.012C388.726 153.566 388.726 152.029 388.906 150.402C389.087 148.775 389.358 147.239 389.719 145.793C390.08 144.347 390.441 143.081 390.802 141.996C391.344 141.093 391.795 140.189 392.156 139.285C392.698 138.2 393.149 137.206 393.51 136.302C393.871 136.302 394.052 136.212 394.052 136.031C394.052 135.85 394.232 135.76 394.593 135.76C395.135 134.314 396.489 132.235 398.655 129.523C401.003 126.631 403.62 123.739 406.509 120.846C409.398 117.773 412.106 114.971 414.633 112.44C417.342 109.729 419.237 107.831 420.32 106.746C420.501 106.565 420.952 106.204 421.675 105.661C422.397 105.119 423.209 104.577 424.112 104.034C425.015 103.492 425.827 102.95 426.549 102.407C427.271 101.865 427.813 101.594 428.174 101.594C430.16 100.509 432.146 99.3343 434.132 98.0689C436.118 96.6227 438.104 95.5381 440.09 94.815C440.812 94.4534 441.534 94.2727 442.256 94.2727C442.978 94.0919 443.52 94.0015 443.881 94.0015C446.77 94.1823 448.034 94.815 447.673 95.8996C447.492 96.9842 446.589 98.2496 444.964 99.6958C443.34 100.961 441.444 102.407 439.277 104.034C437.111 105.481 435.576 106.746 434.674 107.831C433.41 108.734 432.236 109.638 431.153 110.542C430.07 111.446 429.167 112.621 428.445 114.067C427.542 114.971 426.549 115.785 425.466 116.508C424.383 117.231 423.661 118.315 423.299 119.762C422.216 120.665 421.133 121.66 420.05 122.744C419.147 123.829 418.335 124.914 417.612 125.998C415.807 126.902 414.363 128.258 413.279 130.066C412.377 131.873 411.203 133.41 409.759 134.675C408.314 136.844 406.87 139.104 405.426 141.454C404.162 143.804 403.079 146.425 402.176 149.318C402.176 149.86 401.996 150.402 401.634 150.945C401.454 151.487 401.364 151.939 401.364 152.3C402.086 152.662 402.627 152.752 402.988 152.572C403.53 152.391 403.981 152.21 404.343 152.029C405.787 151.125 407.051 150.312 408.134 149.589C409.398 148.685 410.842 147.781 412.467 146.877C413.37 146.154 414.092 145.612 414.633 145.25C415.175 144.889 415.897 144.527 416.8 144.166C420.411 141.635 424.112 138.833 427.903 135.76C431.695 132.687 435.396 129.614 439.006 126.54C439.909 125.998 440.812 125.185 441.715 124.1C442.798 123.015 443.791 122.021 444.694 121.117C445.596 120.394 446.589 119.762 447.673 119.219C448.756 118.496 449.297 117.683 449.297 116.779C449.658 115.875 449.749 115.333 449.568 115.152C449.568 114.971 450.02 114.429 450.922 113.525C451.464 112.983 452.006 112.35 452.547 111.627C453.269 110.723 454.353 110.271 455.797 110.271C456.339 110.271 456.79 110.452 457.151 110.813C457.693 110.994 458.324 110.994 459.047 110.813C459.227 111.175 459.588 111.356 460.13 111.356C460.671 111.175 461.123 111.265 461.484 111.627C462.928 113.073 463.741 114.338 463.921 115.423C464.282 116.508 464.282 117.863 463.921 119.49C463.38 120.937 462.928 122.563 462.567 124.371C462.387 125.998 461.935 127.535 461.213 128.981C460.852 131.692 460.13 134.314 459.047 136.844C458.144 139.195 457.422 141.635 456.88 144.166C457.963 142.358 459.859 140.55 462.567 138.743C465.275 136.935 468.074 135.218 470.962 133.591C474.032 131.964 476.92 130.517 479.628 129.252C482.336 127.987 484.232 126.902 485.315 125.998H486.128C486.489 125.637 486.85 125.275 487.211 124.914C487.753 124.552 488.204 124.371 488.565 124.371C489.468 123.648 490.461 123.015 491.544 122.473C492.627 121.75 493.891 121.298 495.335 121.117C495.335 120.937 495.245 120.846 495.065 120.846C498.676 118.858 502.286 116.96 505.897 115.152C509.508 113.344 513.39 111.898 517.542 110.813C517.542 110.994 517.452 111.084 517.271 111.084C517.091 111.084 517 111.175 517 111.356C516.82 111.536 516.549 111.627 516.188 111.627C516.008 111.446 515.737 111.446 515.376 111.627C515.737 111.988 515.917 112.079 515.917 111.898C515.917 111.717 516.098 111.627 516.459 111.627C516.459 111.808 516.369 111.898 516.188 111.898C516.188 111.898 516.188 112.079 516.188 112.44C516.91 112.621 517.271 112.621 517.271 112.44C517.452 112.079 517.723 111.898 518.084 111.898C517.723 112.621 517.181 113.073 516.459 113.254C515.917 113.254 515.376 113.615 514.834 114.338C514.834 114.7 515.015 114.7 515.376 114.338C515.015 115.061 514.563 115.513 514.022 115.694C513.48 115.694 513.029 115.875 512.667 116.236C512.848 116.417 513.48 116.327 514.563 115.965C512.758 117.05 510.862 117.954 508.876 118.677C507.071 119.219 505.446 120.213 504.001 121.66C503.821 122.021 504.001 122.202 504.543 122.202C503.64 123.106 501.925 124.552 499.398 126.54C496.87 128.348 494.072 130.337 491.002 132.506C488.114 134.494 485.225 136.483 482.336 138.471C479.628 140.279 477.552 141.725 476.108 142.81C474.483 143.895 472.858 144.979 471.233 146.064C469.608 147.149 468.074 148.414 466.629 149.86C465.546 150.222 464.553 150.674 463.65 151.216C462.928 151.758 462.116 152.391 461.213 153.114L459.047 154.741C457.783 155.645 456.609 156.458 455.526 157.181C454.623 157.724 453.901 158.628 453.36 159.893C451.735 160.978 450.561 162.605 449.839 164.774C449.297 166.943 448.575 169.022 447.673 171.01C442.798 182.038 437.743 193.697 432.507 205.99C427.452 218.282 421.584 230.032 414.904 241.24C408.224 252.629 400.461 262.843 391.614 271.881C382.948 280.92 372.748 287.789 361.013 292.489C358.846 293.212 356.68 293.664 354.513 293.845C352.166 294.207 349.909 293.935 347.743 293.032ZM424.112 181.857C419.779 186.014 415.356 190.263 410.842 194.601C406.328 199.12 402.176 203.278 398.385 207.074C394.593 210.871 391.344 214.215 388.635 217.107C385.927 220.18 384.032 222.35 382.948 223.615C380.06 227.231 376.991 230.936 373.741 234.733C370.491 238.529 367.422 242.506 364.533 246.664C361.464 251.002 358.846 255.521 356.68 260.221C354.513 264.922 353.069 269.983 352.347 275.406C352.888 275.768 353.069 276.491 352.888 277.576C352.708 278.841 353.069 279.926 353.971 280.829C359.929 279.926 365.707 277.395 371.303 273.237C376.72 269.26 381.865 264.198 386.74 258.052C391.795 252.087 396.489 245.489 400.822 238.258C405.336 231.208 409.398 224.067 413.009 216.836C416.619 209.786 419.869 203.097 422.758 196.77C425.646 190.443 427.993 185.201 429.799 181.043C429.438 180.32 429.438 179.778 429.799 179.416C430.341 179.055 430.521 178.603 430.341 178.061C429.438 178.964 428.264 179.597 426.82 179.959C425.376 180.32 424.473 180.953 424.112 181.857Z" fill="#F80059"/>
<path d="M511.275 151.758C511.817 152.301 513.352 152.12 515.879 151.216C518.407 150.131 521.476 148.775 525.087 147.148C528.878 145.341 533.031 143.352 537.544 141.183C542.058 139.014 546.571 137.116 551.085 135.489C552.349 135.127 553.793 134.585 555.418 133.862C557.223 133.139 558.577 132.506 559.48 131.964C560.924 131.06 562.369 130.156 563.813 129.252C565.257 128.348 566.972 127.715 568.958 127.354C569.681 127.173 570.042 126.902 570.042 126.54C570.042 125.998 570.132 126.089 570.312 126.812C570.674 126.992 570.944 127.083 571.125 127.083C571.305 126.902 571.486 126.902 571.666 127.083C571.666 127.806 571.215 128.8 570.312 130.066L568.417 131.692C566.972 132.958 565.438 134.223 563.813 135.489C562.188 136.573 560.383 137.568 558.397 138.471C556.772 139.918 554.786 141.273 552.439 142.539C550.272 143.804 548.106 144.979 545.939 146.064C543.953 146.787 541.065 148.414 537.273 150.945C533.662 153.476 529.781 156.097 525.628 158.808C521.656 161.52 517.955 163.96 514.525 166.13C511.095 168.118 508.748 168.841 507.484 168.299C506.942 168.841 506.581 169.022 506.401 168.841C506.22 168.841 505.859 168.841 505.317 168.841C502.429 168.841 499.901 168.57 497.735 168.028C495.749 167.305 494.034 165.949 492.589 163.96C492.048 161.791 492.048 159.622 492.589 157.453C493.131 155.283 493.853 152.843 494.756 150.131C495.297 148.685 495.839 147.329 496.381 146.064C497.103 144.798 497.644 143.443 498.006 141.996C498.728 140.55 499.45 139.014 500.172 137.387C500.894 135.76 501.526 134.223 502.068 132.777C504.054 128.619 506.13 124.462 508.296 120.304C510.463 115.965 512.81 111.988 515.338 108.373C516.782 107.469 518.136 106.927 519.4 106.746C520.122 106.384 520.844 106.475 521.566 107.017C522.469 107.379 523.191 107.379 523.733 107.017C524.274 107.74 524.816 108.373 525.358 108.915C526.08 109.458 526.531 110.181 526.712 111.084C526.892 112.35 526.982 113.344 526.982 114.067C527.163 114.79 527.073 115.604 526.712 116.508C526.892 117.773 526.531 119.129 525.628 120.575C525.267 121.117 524.996 121.75 524.816 122.473C524.635 123.015 524.365 123.648 524.003 124.371C523.823 124.552 523.642 124.642 523.462 124.642C523.462 124.462 523.372 124.462 523.191 124.642C522.83 124.823 522.649 125.094 522.649 125.456C522.649 125.817 522.469 126.089 522.108 126.269C520.844 128.8 519.49 131.421 518.046 134.133C516.601 136.844 515.247 139.466 513.983 141.996C512.72 144.347 511.817 146.425 511.275 148.233C510.734 150.041 510.734 151.216 511.275 151.758ZM522.379 85.5956C522.198 85.0533 522.649 84.059 523.733 82.6129C524.816 81.1667 526.08 79.8109 527.524 78.5455C528.968 77.2801 530.413 76.3762 531.857 75.8339C533.301 75.2916 534.475 75.5627 535.378 76.6474C535.739 76.6474 536.01 76.7378 536.19 76.9185C536.551 77.0993 536.822 77.1897 537.002 77.1897C538.266 78.6359 538.627 80.4436 538.086 82.6129C537.725 84.6013 536.822 85.9571 535.378 86.6802C535.558 87.0418 535.558 87.3129 535.378 87.4937C535.197 87.4937 535.107 87.6745 535.107 88.036C534.565 87.6745 534.294 87.8552 534.294 88.5783C534.475 89.3014 534.204 89.4822 533.482 89.1206C533.662 89.663 533.392 90.2053 532.669 90.7476C532.128 91.2899 531.857 91.8322 531.857 92.3745C531.496 92.1938 531.315 92.1938 531.315 92.3745C531.315 92.3745 531.135 92.3745 530.774 92.3745C530.413 93.2784 529.6 94.0015 528.337 94.5438C527.253 94.9054 526.441 95.4477 525.899 96.1708C525.538 96.1708 525.177 96.2612 524.816 96.4419C524.635 96.6227 524.184 96.5323 523.462 96.1708C522.379 95.8092 521.656 95.2669 521.295 94.5438C520.934 93.64 520.754 92.6457 520.754 91.5611C520.934 90.4764 521.205 89.3918 521.566 88.3072C521.927 87.2225 522.198 86.3187 522.379 85.5956Z" fill="#F80059"/>
<path d="M555.035 179.959H554.764C553.32 179.236 552.507 178.422 552.327 177.518C552.146 176.614 552.056 175.71 552.056 174.807C552.417 168.118 553.139 161.61 554.222 155.283C555.486 148.956 556.84 142.9 558.285 137.116C560.09 130.066 562.166 123.196 564.513 116.508C566.86 109.819 569.027 103.04 571.013 96.1708C571.915 93.4592 572.728 90.838 573.45 88.3072C574.353 85.5956 575.255 82.9744 576.158 80.4436C573.811 80.8051 571.554 81.3474 569.388 82.0705C567.402 82.6128 564.874 83.6071 561.805 85.0533C560.722 85.4148 559.458 85.8668 558.014 86.4091C556.75 86.7706 555.486 87.1322 554.222 87.4937C553.681 87.8552 553.049 88.3072 552.327 88.8495C551.785 89.3918 551.153 89.7533 550.431 89.9341C549.528 90.1149 548.806 90.2957 548.264 90.4764C547.542 90.4764 547.091 90.2957 546.91 89.9341C546.008 89.3918 545.556 88.5783 545.556 87.4937C545.556 86.4091 545.737 85.1437 546.098 83.6975C546.459 82.7936 546.91 81.8898 547.452 80.9859C547.813 80.082 548.174 79.2686 548.535 78.5455L551.785 77.1897C553.049 76.8281 554.764 76.4666 556.93 76.1051C559.278 75.5627 561.625 75.0204 563.972 74.4781C566.319 73.9358 568.485 73.4839 570.471 73.1223C572.457 72.7608 573.721 72.58 574.262 72.58C575.165 72.3992 575.978 72.2185 576.7 72.0377C577.602 71.8569 578.505 71.5858 579.408 71.2242C581.394 65.6203 583.47 60.1067 585.637 54.6836C587.984 49.2604 590.421 43.7468 592.949 38.1429C594.212 35.7929 595.296 33.4428 596.198 31.0928C597.282 28.562 598.274 26.1216 599.177 23.7715C600.08 22.3254 600.712 20.9696 601.073 19.7042C601.434 19.1618 601.615 18.6195 601.615 18.0772C601.615 17.5349 601.795 17.083 602.156 16.7214C602.337 15.8176 602.698 15.0041 603.239 14.281C603.781 13.3771 604.232 12.2925 604.593 11.0271C604.955 10.1232 605.225 9.12899 605.406 8.04436C605.767 6.95973 606.218 6.14625 606.76 5.60393C607.121 5.06161 608.295 4.42891 610.28 3.70582C612.266 2.98274 613.982 2.6212 615.426 2.6212C617.231 2.6212 619.037 3.07313 620.842 3.97699C622.648 4.70007 623.731 5.7847 624.092 7.23088C624.453 7.95397 624.363 8.76744 623.821 9.6713C623.46 10.3944 622.918 11.2079 622.196 12.1117C621.835 12.8348 621.564 13.5579 621.384 14.281C621.384 15.0041 621.203 15.8176 620.842 16.7214C618.856 21.0599 616.961 25.4889 615.155 30.0082C613.35 34.5275 611.273 38.866 608.926 43.0238C607.121 47.0007 605.225 50.8873 603.239 54.6836C601.434 58.4798 599.629 62.3664 597.823 66.3434H598.094C600.26 65.801 602.427 65.4395 604.593 65.2587C606.76 64.8972 608.836 64.5356 610.822 64.1741C613.711 63.8126 615.697 63.6318 616.78 63.6318C617.863 63.451 618.766 63.451 619.488 63.6318C620.21 63.6318 621.113 63.6318 622.196 63.6318C623.46 63.451 625.627 63.1799 628.696 62.8183C630.682 62.6375 632.668 62.5472 634.654 62.5472C636.82 62.3664 639.077 62.7279 641.424 63.6318C641.063 63.9933 640.973 64.3549 641.153 64.7164C641.334 64.8972 641.514 65.1683 641.695 65.5299C641.875 65.5299 641.966 65.4395 641.966 65.2587C641.966 64.8972 642.056 64.7164 642.236 64.7164C641.875 65.078 641.695 65.6203 641.695 66.3434C641.695 67.0665 641.604 67.5184 641.424 67.6992C640.521 68.2415 639.709 68.5126 638.987 68.5126C638.264 68.5126 637.633 68.6934 637.091 69.0549C636.91 69.4165 636.82 69.5973 636.82 69.5973C630.321 70.5011 623.189 71.405 615.426 72.3088C607.843 73.2127 600.622 74.4781 593.761 76.1051L592.949 78.8166C589.879 88.3976 586.72 97.9785 583.47 107.559C580.22 117.14 577.241 126.721 574.533 136.302C574.172 137.748 573.631 139.195 572.908 140.641C572.186 142.087 571.645 143.623 571.284 145.25C570.381 146.697 569.749 148.324 569.388 150.131C569.207 151.939 568.756 153.566 568.034 155.012C567.853 155.374 567.492 155.826 566.951 156.368C566.589 156.91 566.409 157.452 566.409 157.995C566.048 158.899 565.777 159.803 565.596 160.706C565.416 161.61 565.235 162.514 565.055 163.418C564.874 164.322 564.784 165.316 564.784 166.401C564.784 167.485 564.694 168.299 564.513 168.841L562.888 171.553C562.527 172.457 562.347 173.36 562.347 174.264C562.347 175.168 562.256 176.072 562.076 176.976C561.173 177.337 560.812 177.609 560.993 177.789C561.173 178.151 560.812 178.422 559.909 178.603C559.368 178.964 558.555 179.145 557.472 179.145C556.569 179.326 555.757 179.597 555.035 179.959Z" fill="#F80059"/>
<path d="M679.727 136.031C684.963 134.043 688.032 133.5 688.935 134.404C690.018 135.127 689.566 136.302 687.58 137.929C687.039 138.471 686.317 138.833 685.414 139.014C684.692 139.195 684.06 140.008 683.518 141.454C680.81 143.804 678.915 145.341 677.831 146.064C676.748 146.606 676.026 146.787 675.665 146.606C672.776 147.872 670.158 149.499 667.811 151.487C665.464 153.476 663.027 155.283 660.499 156.91C658.152 158.537 655.534 159.803 652.646 160.706C649.938 161.61 646.688 161.61 642.896 160.706C642.535 160.706 642.084 160.616 641.542 160.435C641.181 160.074 640.73 159.803 640.188 159.622C638.563 158.899 637.39 158.085 636.668 157.181C636.126 156.097 635.585 154.922 635.043 153.656C634.682 152.21 634.411 150.493 634.23 148.504C634.23 146.335 634.411 144.166 634.772 141.996C634.411 141.816 634.14 141.906 633.96 142.268C633.96 142.448 633.869 142.539 633.689 142.539C633.328 142.72 632.967 142.991 632.606 143.352C632.244 143.533 631.793 143.804 631.252 144.166C630.349 145.25 629.446 146.245 628.543 147.148C627.821 148.052 626.828 148.775 625.564 149.318C625.203 150.041 624.662 150.583 623.94 150.945C623.398 151.306 622.947 151.668 622.586 152.029C622.405 152.029 622.315 152.21 622.315 152.572C622.495 152.752 622.495 152.843 622.315 152.843C621.954 153.024 621.412 153.295 620.69 153.656C619.968 153.837 619.426 154.199 619.065 154.741C614.913 157.633 610.489 160.074 605.795 162.062C604.531 162.966 603.177 163.78 601.733 164.503C600.469 165.045 599.205 165.226 597.942 165.045C597.039 165.045 596.226 165.045 595.504 165.045C594.963 165.045 594.24 164.864 593.338 164.503C591.893 164.322 590.449 164.231 589.005 164.231C587.56 164.051 586.387 163.418 585.484 162.333C583.498 161.068 582.957 158.718 583.859 155.283C583.859 155.102 583.95 155.012 584.13 155.012C584.311 155.012 584.401 154.831 584.401 154.47C584.582 152.481 585.213 150.674 586.297 149.047C587.199 147.239 588.192 145.612 589.276 144.166C590.72 141.635 592.345 139.285 594.15 137.116C595.956 134.946 597.671 132.687 599.296 130.337C600.74 129.071 602.997 126.992 606.066 124.1C609.135 121.208 612.385 118.315 615.815 115.423C619.246 112.35 622.405 109.729 625.294 107.559C628.182 105.209 630.168 103.944 631.252 103.763C633.237 102.859 634.772 101.775 635.855 100.509C637.119 99.0631 639.015 97.9785 641.542 97.2554C641.723 97.2554 641.813 97.2554 641.813 97.2554C641.813 97.0746 641.903 96.9842 642.084 96.9842C642.445 96.9842 642.806 97.0746 643.167 97.2554C643.709 97.2554 644.16 97.0746 644.521 96.7131C645.605 97.2554 646.868 97.5265 648.313 97.5265C649.035 98.4304 649.847 99.3343 650.75 100.238C651.653 100.961 652.104 101.865 652.104 102.95C652.646 103.492 652.736 104.215 652.375 105.119C652.014 106.023 651.472 106.656 650.75 107.017C650.208 107.559 649.577 107.831 648.854 107.831C648.132 107.65 647.41 107.74 646.688 108.102C644.882 108.825 643.167 109.909 641.542 111.356L638.293 113.525C638.293 113.525 638.112 113.706 637.751 114.067C637.209 114.067 636.578 114.248 635.855 114.61C635.314 114.79 634.862 115.423 634.501 116.508C633.057 116.869 631.613 117.592 630.168 118.677C628.724 119.581 627.28 120.485 625.835 121.388C624.933 122.292 624.12 123.106 623.398 123.829C622.676 124.371 621.863 125.004 620.961 125.727C619.516 126.992 617.982 128.348 616.357 129.794C614.732 131.241 613.197 132.687 611.753 134.133C610.85 134.856 609.948 135.76 609.045 136.844C608.323 137.748 607.33 138.471 606.066 139.014C606.066 139.737 605.705 140.37 604.983 140.912V141.183C604.983 141.364 604.983 141.454 604.983 141.454C603.899 141.996 602.997 142.81 602.275 143.895C601.733 144.798 601.101 145.702 600.379 146.606C600.018 148.233 599.296 149.679 598.212 150.945C597.129 152.21 596.497 153.566 596.317 155.012C598.122 154.47 599.567 153.656 600.65 152.572C606.788 148.956 612.656 145.16 618.253 141.183C623.849 137.025 629.627 132.687 635.585 128.167C637.209 126.721 638.744 125.546 640.188 124.642C641.813 123.739 643.348 122.292 644.792 120.304H645.605V120.033C645.785 119.49 646.056 119.038 646.417 118.677C646.778 118.315 647.049 117.773 647.229 117.05C647.41 116.688 647.5 116.236 647.5 115.694C647.5 115.152 647.681 114.7 648.042 114.338C648.584 114.158 649.215 114.067 649.938 114.067C650.66 114.067 651.201 114.067 651.562 114.067H655.083C655.805 114.429 656.798 114.881 658.062 115.423C659.326 115.965 659.958 117.231 659.958 119.219C659.416 120.846 658.604 122.383 657.52 123.829C656.618 125.275 655.625 126.812 654.541 128.439C654.18 130.066 653.548 131.512 652.646 132.777V134.133C651.924 134.494 651.382 135.308 651.021 136.573C650.84 137.477 650.66 138.2 650.479 138.743C650.479 139.285 650.208 140.098 649.667 141.183L648.042 147.148C648.042 149.499 648.493 150.854 649.396 151.216C650.299 151.577 651.382 151.487 652.646 150.945C654.09 150.402 655.625 149.679 657.25 148.775C658.874 147.691 660.319 146.877 661.583 146.335C664.652 145.25 667.811 143.623 671.061 141.454C674.311 139.285 677.199 137.477 679.727 136.031Z" fill="#F80059"/>
<path d="M748.094 5.06161C748.997 5.96548 749.629 6.68857 749.99 7.23088C750.351 7.7732 750.351 8.76745 749.99 10.2136C749.99 11.479 749.629 12.7444 748.907 14.0098C748.365 15.0945 747.824 16.0887 747.282 16.9926C746.921 18.6195 746.379 20.0657 745.657 21.3311C745.115 22.4157 744.664 23.8619 744.303 25.6696C742.498 30.3697 740.692 35.1602 738.887 40.041C737.262 44.7411 735.456 49.17 733.47 53.3278C731.485 55.8586 729.95 58.4798 728.867 61.1914C727.964 63.9029 727.061 66.7049 726.159 69.5973C721.465 80.9859 716.77 92.5553 712.076 104.306C707.382 116.056 702.959 128.167 698.807 140.641C698.265 143.895 697.362 147.148 696.098 150.402C695.015 153.656 694.112 157.001 693.39 160.435C693.39 161.701 693.21 162.785 692.849 163.689C691.946 166.582 691.585 169.655 691.765 172.909C690.863 172.909 690.231 173.18 689.87 173.722C689.509 174.445 688.967 174.897 688.245 175.078C686.8 175.078 685.807 174.445 685.266 173.18C684.905 172.095 684.183 171.643 683.099 171.824C682.738 170.92 682.197 170.197 681.475 169.655C680.933 169.112 680.572 168.299 680.391 167.214C680.572 164.683 680.933 161.972 681.475 159.079C682.016 156.187 682.648 153.656 683.37 151.487C684.634 143.714 686.349 136.393 688.516 129.523C690.682 122.473 692.849 115.694 695.015 109.186C694.835 109.186 694.654 109.277 694.474 109.458L694.744 109.186V108.644C695.467 108.282 695.918 107.74 696.098 107.017C696.279 106.113 696.55 105.3 696.911 104.577C697.633 102.046 698.716 98.8823 700.161 95.0861C701.605 91.1091 703.14 87.1322 704.764 83.1552C706.389 78.9974 707.924 75.0204 709.368 71.2242C710.993 67.428 712.257 64.4453 713.16 62.276V62.0048C715.326 57.4855 717.222 52.8758 718.847 48.1758C720.652 43.4757 722.457 38.6852 724.263 33.8044C725.707 30.1889 727.061 26.4831 728.325 22.6869C729.589 18.7099 730.762 15.0041 731.846 11.5694C732.748 8.85783 733.38 6.14624 733.741 3.43466C734.102 2.35003 735.366 1.44618 737.533 0.723085C739.88 -4.60625e-06 741.775 -0.180773 743.22 0.180777C744.664 0.542317 745.657 1.08463 746.199 1.80772C746.921 2.53081 747.553 3.61544 748.094 5.06161Z" fill="#F80059"/>
<path d="M866.037 288.964C865.496 288.603 864.864 288.241 864.142 287.88C863.42 287.699 862.697 288.06 861.975 288.964C861.975 288.422 861.614 288.151 860.892 288.151C860.35 288.151 860.08 287.97 860.08 287.608C859.899 287.97 859.628 288.06 859.267 287.88C859.087 287.699 858.725 287.608 858.184 287.608C856.739 286.162 855.837 284.174 855.476 281.643C855.476 281.101 855.295 280.92 854.934 281.101C854.754 281.281 854.573 281.191 854.392 280.829C853.309 273.237 853.038 265.825 853.58 258.594C854.302 251.544 855.476 244.585 857.101 237.715C858.545 231.388 860.26 225.061 862.246 218.734C864.412 212.588 866.76 206.623 869.287 200.838C870.731 198.126 871.995 195.324 873.078 192.432C874.162 189.54 875.335 186.738 876.599 184.026C880.571 175.891 884.814 167.847 889.327 159.893C893.841 151.939 898.264 143.985 902.597 136.031C901.694 136.393 900.701 137.116 899.618 138.2C898.715 139.285 897.813 140.279 896.91 141.183C892.938 144.618 889.147 148.233 885.536 152.029C881.925 155.826 878.043 159.351 873.891 162.605C869.739 166.039 865.676 169.474 861.704 172.909C857.913 176.343 853.941 179.778 849.789 183.213C845.817 186.647 841.755 189.991 837.602 193.245C833.63 196.499 829.297 199.663 824.603 202.736C822.437 204.001 820.18 205.357 817.833 206.803C815.666 208.249 813.319 209.696 810.792 211.142C808.264 212.588 805.646 214.034 802.938 215.48C800.411 216.927 797.702 217.83 794.814 218.192C790.661 218.192 787.682 217.559 785.877 216.294C782.447 216.655 779.648 216.384 777.482 215.48C775.496 214.576 773.6 213.13 771.795 211.142C770.35 209.515 769.357 207.526 768.816 205.176C768.094 203.007 767.733 200.657 767.733 198.126C767.733 195.595 767.913 193.065 768.274 190.534C768.635 188.003 769.177 185.563 769.899 183.213C772.427 175.078 775.496 167.305 779.107 159.893C782.898 152.481 786.78 145.431 790.752 138.743C801.584 121.208 814.132 104.757 828.394 89.3918C842.657 74.0262 857.823 59.926 873.891 47.0911C877.863 44.018 881.835 40.8545 885.807 37.6006C889.959 34.3467 894.382 31.0928 899.076 27.8389C902.146 25.8504 905.305 23.6811 908.555 21.3311C911.805 18.9811 915.054 16.631 918.304 14.281C919.749 13.3771 921.012 12.654 922.096 12.1117C923.179 11.3886 924.352 10.8463 925.616 10.4848C929.588 9.94246 932.928 10.7559 935.636 12.9252C938.344 14.9137 939.879 17.7157 940.24 21.3311C940.601 23.1388 940.33 24.7658 939.428 26.2119C938.525 27.6581 937.442 28.8331 936.178 29.737C934.914 30.6409 933.47 31.1832 931.845 31.364C930.4 31.5447 929.046 31.8159 927.783 32.1774C923.991 33.0813 920.38 34.6179 916.95 36.7871C913.7 38.7756 910.36 40.7641 906.93 42.7526C898.264 48.1758 890.411 54.1412 883.369 60.649C875.787 67.1568 868.384 73.5742 861.163 79.9013C853.941 86.2283 846.99 93.188 840.31 100.78C837.06 104.396 833.811 108.102 830.561 111.898C827.492 115.694 824.332 119.49 821.083 123.287C819.638 125.094 818.194 126.992 816.75 128.981C815.305 130.969 813.951 133.048 812.687 135.218C811.243 137.206 809.799 139.285 808.354 141.454C807.091 143.443 805.827 145.431 804.563 147.42C802.035 151.577 799.598 155.916 797.251 160.435C794.904 164.774 792.467 169.293 789.939 173.993C788.856 176.162 787.682 178.422 786.419 180.772C785.335 183.303 784.433 185.834 783.71 188.365C783.169 191.438 782.808 194.42 782.627 197.313C782.447 200.205 783.259 203.097 785.064 205.99C786.328 206.532 788.224 206.442 790.752 205.719C793.46 204.996 795.536 204.182 796.98 203.278C801.855 201.109 806.549 198.488 811.062 195.415C815.576 192.342 819.909 189.268 824.061 186.195C829.839 181.857 835.436 177.518 840.852 173.18C846.449 168.841 851.865 164.503 857.101 160.164C867.933 150.945 878.585 141.906 889.056 133.048C899.708 124.01 910.27 114.971 920.741 105.932L856.559 127.083C853.851 127.987 851.143 128.891 848.435 129.794C845.907 130.698 843.379 131.783 840.852 133.048C839.949 133.41 838.956 133.862 837.873 134.404C836.97 134.946 835.887 135.308 834.623 135.489C833.179 135.669 831.735 135.579 830.29 135.218C828.846 134.856 827.672 134.223 826.77 133.319C826.228 132.958 825.416 132.416 824.332 131.692C823.43 130.789 822.888 130.066 822.707 129.523C822.707 128.439 823.791 127.535 825.957 126.812C828.124 125.908 829.929 125.094 831.373 124.371C841.664 119.49 852.226 114.881 863.058 110.542C874.072 106.204 885.355 101.955 896.91 97.7977C903.229 95.8092 909.819 93.7303 916.679 91.5611C923.54 89.211 930.4 87.2225 937.261 85.5956C944.122 83.6071 951.072 81.6186 958.114 79.6301C965.155 77.6416 972.467 76.1954 980.049 75.2916C982.757 74.93 985.556 74.7493 988.445 74.7493C991.333 74.5685 994.132 74.5685 996.84 74.7493C997.562 74.7493 998.284 74.8396 999.006 75.0204C999.728 75.2012 1000.27 75.4724 1000.63 75.8339C1000.99 75.8339 1001.08 75.9243 1000.9 76.1051C1000.72 76.1051 1000.54 76.1954 1000.36 76.3762C1000.72 76.7378 1000.99 77.0089 1001.17 77.1897C1001.53 77.1897 1001.71 77.4608 1001.71 78.0032C1001.71 78.907 1001.99 79.5397 1002.53 79.9013C1001.62 80.4436 1000.63 80.8051 999.548 80.9859C999.728 81.709 999.458 82.3417 998.735 82.884C993.861 83.7879 988.896 85.0533 983.841 86.6802C978.966 88.1264 974.272 89.663 969.759 91.2899C967.231 92.1938 964.433 93.188 961.363 94.2727C958.294 95.1765 955.315 96.1708 952.427 97.2554C951.524 97.6169 950.621 97.9785 949.718 98.34C948.816 98.7016 948.003 99.0631 947.281 99.4247C946.559 99.6054 946.108 100.057 945.927 100.78C945.746 101.323 945.476 101.955 945.115 102.679C942.045 106.113 938.976 109.729 935.907 113.525C933.018 117.321 930.31 121.117 927.783 124.914C926.338 127.083 924.804 129.252 923.179 131.421C921.734 133.591 920.29 135.85 918.846 138.2C915.957 142.9 913.249 147.691 910.721 152.572C908.374 157.272 905.847 161.972 903.139 166.672C900.431 171.553 897.993 176.434 895.827 181.314L882.828 211.955C882.467 213.401 881.925 214.576 881.203 215.48C880.481 216.565 879.849 217.74 879.307 219.005C876.238 227.321 873.259 236.179 870.37 245.579C867.662 255.16 866.037 265.012 865.496 275.135C865.857 276.401 866.037 277.937 866.037 279.745C866.037 281.553 866.218 282.999 866.579 284.083C866.218 284.806 866.218 285.62 866.579 286.524C866.94 287.428 866.76 288.241 866.037 288.964Z" fill="#F80059"/>
<path d="M1035.15 104.306C1034.79 104.848 1034.61 105.3 1034.61 105.661C1034.79 106.023 1034.52 106.384 1033.8 106.746C1033.8 107.107 1033.53 107.288 1032.99 107.288C1032.63 108.192 1031.9 108.734 1030.82 108.915C1029.92 109.096 1029.11 109.638 1028.38 110.542C1024.77 111.627 1020.98 112.983 1017.01 114.61C1013.04 116.236 1009.16 118.044 1005.36 120.033C1001.75 121.84 998.413 123.739 995.344 125.727C992.275 127.715 989.928 129.704 988.303 131.692C986.858 133.139 985.324 134.675 983.699 136.302C982.074 137.929 980.63 139.737 979.366 141.725C978.824 143.172 978.192 144.979 977.47 147.148C976.929 149.318 976.387 151.487 975.845 153.656C975.304 155.645 974.672 157.453 973.95 159.079C973.408 160.706 972.867 161.701 972.325 162.062C971.964 162.785 971.242 163.78 970.158 165.045C969.075 166.31 968.172 166.853 967.45 166.672C964.742 167.937 962.395 167.757 960.409 166.13C958.604 164.503 957.972 162.243 958.513 159.351C958.875 157.543 959.687 154.831 960.951 151.216C962.215 147.6 963.027 144.798 963.388 142.81C963.388 142.81 963.388 142.72 963.388 142.539C963.569 141.996 963.659 141.454 963.659 140.912C965.103 138.381 966.277 135.76 967.179 133.048C968.082 130.337 969.165 127.715 970.429 125.185C970.429 125.004 970.519 124.914 970.7 124.914C971.061 124.733 971.242 124.552 971.242 124.371C972.144 120.756 973.228 117.231 974.491 113.796C975.936 110.181 977.199 106.746 978.283 103.492C978.463 102.769 978.734 102.227 979.095 101.865C979.456 101.504 979.817 101.052 980.178 100.509C981.081 100.148 981.803 99.7862 982.345 99.4247C983.067 99.0631 983.789 98.8823 984.511 98.8823C984.873 98.5208 985.324 98.34 985.866 98.34C986.227 98.34 986.588 98.4304 986.949 98.6112C987.49 98.6112 987.942 98.6112 988.303 98.6112C989.928 98.792 991.101 99.4247 991.823 100.509C993.99 103.402 993.809 106.113 991.282 108.644C991.101 110.09 990.74 111.536 990.198 112.983C989.837 114.429 989.567 115.694 989.386 116.779C995.705 112.079 1001.93 108.825 1008.07 107.017C1014.21 105.209 1019.9 104.125 1025.13 103.763C1026.58 103.582 1028.2 103.402 1030.01 103.221C1031.99 103.04 1033.71 103.402 1035.15 104.306Z" fill="#F80059"/>
<path d="M1088.07 124.914C1088.25 126.179 1088.16 127.625 1087.8 129.252C1087.44 130.698 1086.9 131.873 1086.17 132.777C1085.81 133.681 1085.36 134.856 1084.82 136.302C1084.28 137.748 1083.65 139.014 1082.92 140.098C1081.48 141.364 1080.13 143.262 1078.86 145.793C1077.78 148.143 1076.51 149.77 1075.07 150.674C1075.07 150.674 1074.17 151.668 1072.36 153.656C1070.56 155.464 1068.39 157.453 1065.86 159.622C1063.34 161.61 1060.63 163.418 1057.74 165.045C1055.03 166.672 1052.68 167.305 1050.7 166.943C1047.81 168.028 1045.01 168.48 1042.3 168.299C1039.59 167.937 1037.16 167.214 1034.99 166.13C1032.82 164.864 1031.02 163.237 1029.57 161.249C1028.13 159.079 1027.23 156.639 1026.87 153.927C1026.69 153.566 1026.6 152.933 1026.6 152.029C1026.6 150.945 1026.87 150.222 1027.41 149.86C1026.87 148.595 1026.87 147.239 1027.41 145.793C1028.13 144.347 1028.49 143.081 1028.49 141.996L1033.37 128.167C1033.91 127.987 1034.18 127.715 1034.18 127.354C1034.36 126.812 1034.63 126.54 1034.99 126.54C1036.07 124.01 1037.52 121.479 1039.32 118.948C1041.31 116.417 1043.3 114.067 1045.28 111.898C1046.36 110.452 1047.54 108.915 1048.8 107.288C1050.25 105.661 1051.69 104.215 1053.13 102.95C1054.76 101.684 1056.38 100.871 1058.01 100.509C1059.63 100.148 1061.17 100.6 1062.61 101.865C1064.42 102.227 1065.95 102.769 1067.22 103.492C1067.4 103.854 1067.58 103.854 1067.76 103.492C1068.12 103.13 1068.48 103.04 1068.84 103.221C1069.2 103.04 1069.83 103.04 1070.74 103.221C1071.82 103.402 1072.9 103.673 1073.99 104.034C1075.07 104.396 1076.06 104.757 1076.97 105.119C1077.87 105.481 1078.5 105.842 1078.86 106.204L1081.57 110C1083.74 109.458 1087.08 108.825 1091.59 108.102C1096.28 107.379 1101.16 106.836 1106.21 106.475C1111.27 105.932 1115.96 105.752 1120.3 105.932C1124.63 105.932 1127.79 106.565 1129.77 107.831C1129.96 108.011 1130.14 108.102 1130.32 108.102C1130.68 108.102 1130.95 108.192 1131.13 108.373C1131.31 108.554 1131.49 108.644 1131.67 108.644C1132.75 108.463 1133.3 108.554 1133.3 108.915C1133.48 109.277 1133.93 109.458 1134.65 109.458C1135.55 110.181 1135.73 110.994 1135.19 111.898C1134.65 112.621 1134.02 113.163 1133.3 113.525C1131.31 113.706 1130.05 113.977 1129.5 114.338C1129.14 114.7 1128.69 115.061 1128.15 115.423C1127.79 115.604 1127.07 115.785 1125.98 115.965C1124.9 115.965 1122.82 115.965 1119.75 115.965C1117.23 115.965 1114.52 116.146 1111.63 116.508C1108.92 116.869 1106.12 117.411 1103.24 118.135C1100.35 118.858 1097.55 119.581 1094.84 120.304C1092.31 120.846 1090.15 121.388 1088.34 121.931C1088.16 122.654 1088.07 123.287 1088.07 123.829C1088.07 124.19 1088.07 124.552 1088.07 124.914ZM1068.57 111.898C1067.67 111.536 1066.77 111.356 1065.86 111.356C1064.96 111.356 1064.15 110.994 1063.43 110.271L1062.61 111.084C1061.53 111.988 1060.63 113.073 1059.91 114.338C1059.36 115.604 1058.64 116.96 1057.74 118.406C1056.84 119.49 1055.66 121.117 1054.22 123.287C1052.77 125.456 1051.33 127.806 1049.89 130.337C1048.44 132.687 1047.09 135.037 1045.82 137.387C1044.74 139.556 1044.11 141.273 1043.93 142.539C1043.39 144.889 1042.66 147.42 1041.76 150.131C1040.86 152.843 1041.04 155.464 1042.3 157.995C1046.27 156.549 1049.7 154.741 1052.59 152.572C1055.66 150.402 1058.46 147.962 1060.99 145.25L1062.61 143.352C1063.34 142.087 1064.69 139.737 1066.68 136.302C1068.66 132.868 1070.29 129.342 1071.55 125.727C1072.99 122.112 1073.63 118.948 1073.45 116.236C1073.45 113.344 1071.82 111.898 1068.57 111.898Z" fill="#F80059"/>
<path d="M1173.23 124.914C1173.41 126.179 1173.32 127.625 1172.96 129.252C1172.6 130.698 1172.05 131.873 1171.33 132.777C1170.97 133.681 1170.52 134.856 1169.98 136.302C1169.44 137.748 1168.8 139.014 1168.08 140.098C1166.64 141.364 1165.28 143.262 1164.02 145.793C1162.94 148.143 1161.67 149.77 1160.23 150.674C1160.23 150.674 1159.33 151.668 1157.52 153.656C1155.71 155.464 1153.55 157.453 1151.02 159.622C1148.49 161.61 1145.79 163.418 1142.9 165.045C1140.19 166.672 1137.84 167.305 1135.86 166.943C1132.97 168.028 1130.17 168.48 1127.46 168.299C1124.75 167.937 1122.31 167.214 1120.15 166.13C1117.98 164.864 1116.18 163.237 1114.73 161.249C1113.29 159.079 1112.38 156.639 1112.02 153.927C1111.84 153.566 1111.75 152.933 1111.75 152.029C1111.75 150.945 1112.02 150.222 1112.57 149.86C1112.02 148.595 1112.02 147.239 1112.57 145.793C1113.29 144.347 1113.65 143.081 1113.65 141.996L1118.52 128.167C1119.06 127.987 1119.34 127.715 1119.34 127.354C1119.52 126.812 1119.79 126.54 1120.15 126.54C1121.23 124.01 1122.68 121.479 1124.48 118.948C1126.47 116.417 1128.45 114.067 1130.44 111.898C1131.52 110.452 1132.7 108.915 1133.96 107.288C1135.4 105.661 1136.85 104.215 1138.29 102.95C1139.92 101.684 1141.54 100.871 1143.17 100.509C1144.79 100.148 1146.33 100.6 1147.77 101.865C1149.58 102.227 1151.11 102.769 1152.37 103.492C1152.56 103.854 1152.74 103.854 1152.92 103.492C1153.28 103.13 1153.64 103.04 1154 103.221C1154.36 103.04 1154.99 103.04 1155.9 103.221C1156.98 103.402 1158.06 103.673 1159.15 104.034C1160.23 104.396 1161.22 104.757 1162.12 105.119C1163.03 105.481 1163.66 105.842 1164.02 106.204L1166.73 110C1168.89 109.458 1172.23 108.825 1176.75 108.102C1181.44 107.379 1186.32 106.836 1191.37 106.475C1196.43 105.932 1201.12 105.752 1205.45 105.932C1209.79 105.932 1212.95 106.565 1214.93 107.831C1215.11 108.011 1215.29 108.102 1215.47 108.102C1215.84 108.102 1216.11 108.192 1216.29 108.373C1216.47 108.554 1216.65 108.644 1216.83 108.644C1217.91 108.463 1218.45 108.554 1218.45 108.915C1218.63 109.277 1219.08 109.458 1219.81 109.458C1220.71 110.181 1220.89 110.994 1220.35 111.898C1219.81 112.621 1219.18 113.163 1218.45 113.525C1216.47 113.706 1215.2 113.977 1214.66 114.338C1214.3 114.7 1213.85 115.061 1213.31 115.423C1212.95 115.604 1212.22 115.785 1211.14 115.965C1210.06 115.965 1207.98 115.965 1204.91 115.965C1202.38 115.965 1199.68 116.146 1196.79 116.508C1194.08 116.869 1191.28 117.411 1188.39 118.135C1185.5 118.858 1182.71 119.581 1180 120.304C1177.47 120.846 1175.3 121.388 1173.5 121.931C1173.32 122.654 1173.23 123.287 1173.23 123.829C1173.23 124.19 1173.23 124.552 1173.23 124.914ZM1153.73 111.898C1152.83 111.536 1151.92 111.356 1151.02 111.356C1150.12 111.356 1149.31 110.994 1148.58 110.271L1147.77 111.084C1146.69 111.988 1145.79 113.073 1145.06 114.338C1144.52 115.604 1143.8 116.96 1142.9 118.406C1141.99 119.49 1140.82 121.117 1139.38 123.287C1137.93 125.456 1136.49 127.806 1135.04 130.337C1133.6 132.687 1132.24 135.037 1130.98 137.387C1129.9 139.556 1129.27 141.273 1129.08 142.539C1128.54 144.889 1127.82 147.42 1126.92 150.131C1126.02 152.843 1126.2 155.464 1127.46 157.995C1131.43 156.549 1134.86 154.741 1137.75 152.572C1140.82 150.402 1143.62 147.962 1146.15 145.25L1147.77 143.352C1148.49 142.087 1149.85 139.737 1151.83 136.302C1153.82 132.868 1155.44 129.342 1156.71 125.727C1158.15 122.112 1158.78 118.948 1158.6 116.236C1158.6 113.344 1156.98 111.898 1153.73 111.898Z" fill="#F80059"/>
<path d="M1274.9 100.238C1275.27 100.057 1275.54 99.967 1275.72 99.967C1276.08 99.7862 1276.08 99.967 1275.72 100.509C1275.9 100.871 1276.26 100.961 1276.8 100.78C1277.52 100.419 1278.06 100.329 1278.43 100.509C1278.79 100.509 1278.7 101.052 1278.15 102.136C1277.79 103.221 1276.71 105.39 1274.9 108.644C1275.09 108.825 1274.27 110.09 1272.47 112.44C1270.66 114.79 1268.41 117.502 1265.7 120.575C1263.17 123.467 1260.64 126.36 1258.11 129.252C1255.77 131.964 1254.14 133.771 1253.24 134.675C1251.8 136.121 1249.63 138.562 1246.74 141.996C1244.03 145.25 1240.87 148.775 1237.26 152.572C1233.83 156.187 1230.13 159.622 1226.16 162.876C1222.19 166.13 1218.3 168.299 1214.51 169.383C1210.9 170.468 1207.56 170.107 1204.49 168.299C1201.42 166.31 1198.99 162.062 1197.18 155.554C1197.54 154.831 1197.54 154.108 1197.18 153.385C1196.82 152.662 1196.64 152.12 1196.64 151.758C1196.82 149.227 1197.18 146.877 1197.72 144.708C1198.26 142.358 1198.81 139.918 1199.35 137.387C1199.35 136.121 1199.62 134.946 1200.16 133.862C1200.88 132.596 1201.51 131.421 1202.06 130.337C1202.78 129.252 1203.41 128.167 1203.95 127.083C1204.49 125.998 1204.76 124.733 1204.76 123.287C1205.49 122.021 1206.03 120.846 1206.39 119.762C1206.93 118.496 1207.38 117.14 1207.74 115.694C1208.83 114.61 1209.91 113.254 1210.99 111.627C1212.26 110 1214.15 109.729 1216.68 110.813C1217.22 110.994 1217.67 111.265 1218.03 111.627C1218.4 111.988 1218.85 112.35 1219.39 112.711C1220.11 113.073 1220.56 113.344 1220.74 113.525C1221.1 113.706 1221.37 114.248 1221.55 115.152C1221.55 115.694 1221.37 116.146 1221.01 116.508C1220.83 116.869 1220.74 117.411 1220.74 118.135C1220.74 118.315 1220.47 118.406 1219.93 118.406C1219.57 119.31 1219.21 120.213 1218.85 121.117C1218.49 122.021 1218.12 122.925 1217.76 123.829C1217.58 124.19 1217.4 124.371 1217.22 124.371C1217.22 124.371 1217.22 124.552 1217.22 124.914C1216.86 125.456 1216.68 126.089 1216.68 126.812C1216.68 127.354 1216.59 127.806 1216.41 128.167C1216.41 128.529 1216.32 128.8 1216.14 128.981C1215.96 128.981 1215.87 129.071 1215.87 129.252C1214.96 132.325 1213.79 135.85 1212.35 139.827C1210.9 143.804 1209.82 147.329 1209.1 150.402C1209.46 152.21 1211.17 152.481 1214.24 151.216C1217.49 149.77 1221.1 147.691 1225.08 144.979C1229.23 142.268 1233.2 139.285 1236.99 136.031C1240.78 132.596 1243.49 129.704 1245.12 127.354C1246.74 125.908 1248.18 124.371 1249.45 122.744C1250.71 121.117 1252.16 119.581 1253.78 118.135C1254.5 117.411 1255.95 115.965 1258.11 113.796C1260.28 111.627 1262.54 109.458 1264.88 107.288C1267.23 104.938 1269.4 103.04 1271.38 101.594C1273.37 100.148 1274.54 99.6958 1274.9 100.238Z" fill="#F80059"/>
<path d="M1303.8 159.893C1302.35 160.797 1300.73 161.52 1298.92 162.062C1297.3 162.424 1295.67 162.876 1294.05 163.418C1291.88 163.96 1289.45 164.503 1286.74 165.045C1284.03 165.587 1281.32 165.858 1278.61 165.858C1275.91 165.678 1273.29 165.135 1270.76 164.231C1268.41 163.147 1266.43 161.429 1264.8 159.079C1263.54 157.453 1262.82 155.464 1262.64 153.114C1262.46 150.764 1262.64 148.414 1263.18 146.064C1263.72 143.533 1264.44 141.093 1265.34 138.743C1266.43 136.212 1267.51 133.952 1268.59 131.964C1269.5 131.241 1270.22 130.337 1270.76 129.252C1271.3 128.167 1271.66 127.264 1271.84 126.54C1275.63 122.021 1279.52 117.683 1283.49 113.525C1287.64 109.367 1291.88 106.113 1296.22 103.763C1298.2 102.498 1300.28 101.413 1302.45 100.509C1304.61 99.6054 1306.6 98.7016 1308.4 97.7977C1309.13 97.4362 1309.67 97.0746 1310.03 96.7131C1310.57 96.3515 1311.29 96.1708 1312.19 96.1708C1318.69 96.1708 1322.94 97.3458 1324.92 99.6958C1326.91 101.865 1327.9 104.034 1327.9 106.204C1327.72 106.927 1327.09 107.74 1326.01 108.644C1324.92 109.548 1324.11 110.452 1323.57 111.356C1322.67 112.259 1321.85 113.163 1321.13 114.067C1320.41 114.79 1319.87 115.513 1319.51 116.236C1312.28 122.563 1305.06 128.167 1297.84 133.048C1296.04 134.494 1293.6 135.489 1290.53 136.031C1287.64 136.573 1284.66 136.664 1281.59 136.302C1280.51 137.387 1279.43 138.833 1278.34 140.641C1277.26 142.268 1276.36 144.075 1275.63 146.064C1275.09 147.872 1274.82 149.77 1274.82 151.758C1275 153.566 1275.82 155.102 1277.26 156.368C1280.87 156.729 1284.03 156.368 1286.74 155.283C1289.45 154.199 1292.06 153.295 1294.59 152.572C1296.58 152.029 1298.65 151.397 1300.82 150.674C1302.99 149.95 1304.88 149.227 1306.51 148.504C1310.3 146.697 1313.37 145.25 1315.71 144.166C1318.24 142.9 1320.59 141.725 1322.76 140.641C1324.92 139.556 1327.18 138.381 1329.53 137.116C1331.87 135.85 1334.85 134.223 1338.46 132.235C1341.35 130.789 1344.24 129.342 1347.13 127.896C1350.2 126.269 1353.09 124.733 1355.8 123.287C1356.88 122.383 1357.87 121.75 1358.77 121.388C1359.68 120.846 1360.85 120.394 1362.29 120.033C1362.48 120.033 1362.66 119.942 1362.84 119.762C1363.2 119.581 1363.47 119.49 1363.65 119.49C1365.27 119.49 1366.09 119.762 1366.09 120.304C1366.09 120.846 1365.63 121.66 1364.73 122.744C1364.01 123.648 1363.02 124.642 1361.75 125.727C1360.67 126.812 1359.77 127.896 1359.04 128.981C1359.23 128.981 1358.95 129.252 1358.23 129.794C1357.69 130.156 1356.97 130.608 1356.07 131.15C1355.34 131.512 1354.62 131.964 1353.9 132.506C1353.36 132.867 1353.09 133.048 1353.09 133.048C1351.1 134.494 1348.66 136.121 1345.78 137.929C1342.89 139.556 1340 141.273 1337.11 143.081C1334.22 144.708 1331.51 146.245 1328.98 147.691C1326.46 149.137 1324.56 150.131 1323.3 150.674L1303.8 159.893ZM1284.3 131.964C1285.93 131.964 1287.46 131.512 1288.9 130.608C1290.53 129.704 1292.06 128.8 1293.51 127.896C1297.12 125.004 1300.82 121.84 1304.61 118.406C1308.4 114.79 1311.83 111.175 1314.9 107.559C1315.26 107.559 1315.44 107.288 1315.44 106.746C1308.94 109.096 1303.17 112.531 1298.11 117.05C1293.24 121.569 1288.63 126.54 1284.3 131.964Z" fill="#F80059"/>
<path d="M1420.3 129.523C1420.66 129.523 1421.12 129.523 1421.66 129.523C1422.2 129.342 1422.83 129.071 1423.55 128.71H1425.18L1425.99 128.439H1428.7C1431.59 130.246 1432.58 131.873 1431.68 133.319C1430.96 134.585 1429.6 135.398 1427.62 135.76C1425.81 136.664 1423.37 137.658 1420.3 138.743C1417.41 139.827 1414.44 140.912 1411.37 141.996C1408.48 142.9 1405.86 143.714 1403.51 144.437C1401.17 145.16 1399.81 145.522 1399.45 145.522C1399.27 145.522 1399.09 145.612 1398.91 145.793C1398.91 145.793 1398.73 145.793 1398.37 145.793C1398.01 145.973 1397.74 146.064 1397.56 146.064C1395.03 151.125 1393.04 154.651 1391.6 156.639C1390.33 158.447 1389.16 159.893 1388.08 160.978L1386.45 162.333C1382.3 165.768 1378.69 168.66 1375.62 171.01C1372.55 173.36 1369.84 175.349 1367.5 176.976C1365.33 178.603 1363.43 179.868 1361.81 180.772C1360.18 181.857 1358.74 182.67 1357.48 183.213V182.941C1353.86 184.93 1350.61 186.286 1347.73 187.009C1345.02 187.732 1342.94 188.093 1341.5 188.093C1337.89 188.093 1335.45 187.28 1334.19 185.653C1332.74 184.207 1332.02 182.309 1332.02 179.959C1332.02 176.524 1333.64 173.089 1336.89 169.655C1339.96 166.22 1343.66 162.966 1348 159.893C1352.51 156.82 1357.29 154.108 1362.35 151.758C1367.4 149.227 1371.83 147.148 1375.62 145.522C1379.41 143.714 1382.12 142.448 1383.74 141.725C1385.55 140.821 1385.37 140.641 1383.2 141.183L1382.12 140.912C1379.77 140.912 1376.61 141.093 1372.64 141.454C1368.67 141.635 1364.88 142.177 1361.27 143.081C1359.46 143.443 1357.75 143.804 1356.12 144.166C1354.5 144.347 1352.42 144.256 1349.89 143.895H1350.16C1349.98 143.895 1349.8 143.895 1349.62 143.895C1349.62 143.714 1349.53 143.623 1349.35 143.623C1348.99 143.623 1348.45 143.533 1347.73 143.352C1347.18 142.991 1346.82 142.72 1346.64 142.539H1346.91C1345.47 141.273 1344.48 140.008 1343.93 138.743C1343.39 137.477 1343.12 136.302 1343.12 135.218C1343.12 134.133 1343.3 133.229 1343.66 132.506C1344.21 131.602 1344.66 130.879 1345.02 130.337C1345.92 128.891 1347.18 127.444 1348.81 125.998C1350.43 124.552 1352.42 122.563 1354.77 120.033L1355.58 119.219C1357.75 117.773 1360 116.146 1362.35 114.338C1364.7 112.531 1367.13 110.904 1369.66 109.458C1372.19 107.831 1374.72 106.475 1377.24 105.39C1379.95 104.125 1382.57 103.402 1385.1 103.221L1386.99 102.679C1388.08 102.679 1389.25 102.95 1390.51 103.492C1391.78 103.854 1392.86 104.215 1393.76 104.577C1394.67 106.204 1394.94 107.469 1394.58 108.373C1394.4 109.277 1393.94 109.909 1393.22 110.271L1390.24 111.898L1389.7 112.169C1389.16 112.711 1388.35 113.163 1387.26 113.525C1387.63 113.163 1387.26 113.344 1386.18 114.067C1385.28 114.61 1384.38 115.061 1383.47 115.423C1382.03 116.869 1380.04 117.954 1377.52 118.677C1374.99 119.4 1372.91 120.304 1371.29 121.388L1368.58 123.015L1364.52 126.269L1362.08 128.167C1359.73 129.614 1357.66 131.421 1355.85 133.591C1358.74 133.229 1361.36 132.777 1363.7 132.235C1366.23 131.873 1369.03 131.602 1372.1 131.421C1375.35 131.06 1378.51 130.969 1381.58 131.15C1383.2 131.331 1385.01 131.602 1386.99 131.964C1388.98 132.325 1390.69 132.958 1392.14 133.862H1391.87C1393.85 134.946 1394.85 135.579 1394.85 135.76C1395.03 135.941 1395.21 136.031 1395.39 136.031L1395.66 136.573C1395.84 136.393 1396.02 136.302 1396.2 136.302C1396.38 136.302 1396.56 136.302 1396.74 136.302C1397.1 136.121 1397.37 136.031 1397.56 136.031L1398.91 135.489L1418.14 129.794C1418.68 129.794 1419.4 129.704 1420.3 129.523ZM1355.85 165.316C1355.49 165.678 1354.41 166.672 1352.6 168.299C1350.79 169.926 1349.62 171.101 1349.08 171.824C1347.64 172.728 1346.37 173.722 1345.29 174.807C1344.39 175.891 1343.75 176.705 1343.39 177.247C1342.85 178.151 1343.12 178.512 1344.21 178.332C1345.29 178.332 1346.64 177.97 1348.27 177.247C1349.89 176.705 1351.52 175.982 1353.14 175.078C1354.95 174.355 1356.12 173.812 1356.66 173.451H1356.39L1363.16 169.655C1368.4 166.039 1372.28 163.056 1374.81 160.706C1377.33 158.176 1379.59 155.464 1381.58 152.572L1378.33 153.656C1372.91 156.187 1368.94 158.085 1366.41 159.351C1363.88 160.435 1361.81 161.429 1360.18 162.333L1356.66 165.045L1355.85 165.316Z" fill="#F80059"/>
<path d="M984.494 233.906C985.392 233.906 986.122 233.809 986.682 233.614C987.746 233.241 988.278 232.546 988.278 231.531C988.278 230.939 988.014 230.48 987.486 230.155C986.959 229.838 986.13 229.558 985.001 229.315L983.072 228.888C981.176 228.466 979.865 228.007 979.139 227.512C977.911 226.684 977.297 225.389 977.297 223.627C977.297 222.019 977.89 220.684 979.077 219.62C980.265 218.556 982.008 218.024 984.308 218.024C986.229 218.024 987.865 218.528 989.217 219.535C990.578 220.533 991.291 221.987 991.357 223.895H987.696C987.63 222.815 987.152 222.048 986.262 221.593C985.668 221.293 984.931 221.142 984.049 221.142C983.067 221.142 982.284 221.337 981.699 221.727C981.114 222.117 980.821 222.661 980.821 223.359C980.821 224 981.11 224.479 981.687 224.796C982.058 225.007 982.849 225.255 984.061 225.539L987.202 226.282C988.579 226.607 989.617 227.041 990.318 227.585C991.406 228.43 991.95 229.652 991.95 231.251C991.95 232.891 991.311 234.256 990.034 235.344C988.764 236.424 986.967 236.963 984.642 236.963C982.268 236.963 980.401 236.432 979.04 235.368C977.68 234.296 977 232.826 977 230.959H980.636C980.751 231.779 980.978 232.392 981.316 232.798C981.934 233.537 982.993 233.906 984.494 233.906Z" fill="#F80059"/>
<path d="M1008.01 218.548V221.727H1002.56V236.501H998.727V221.727H993.249V218.548H1008.01Z" fill="#F80059"/>
<path d="M1019.04 232.81H1012.33L1011.07 236.501H1007.09L1013.59 218.548H1017.89L1024.35 236.501H1020.22L1019.04 232.81ZM1017.98 229.717L1015.7 222.653L1013.36 229.717H1017.98Z" fill="#F80059"/>
<path d="M1038.04 218.548V221.727H1032.58V236.501H1028.75V221.727H1023.27V218.548H1038.04Z" fill="#F80059"/>
<path d="M1052.96 228.657H1044.11V233.273H1054.2V236.501H1040.39V218.548H1053.75V221.727H1044.11V225.539H1052.96V228.657Z" fill="#F80059"/>
<path d="M1072.28 237C1069.67 237 1067.68 236.302 1066.31 234.905C1064.46 233.192 1063.54 230.724 1063.54 227.5C1063.54 224.212 1064.46 221.743 1066.31 220.095C1067.68 218.698 1069.67 218 1072.28 218C1074.88 218 1076.87 218.698 1078.25 220.095C1080.09 221.743 1081.01 224.212 1081.01 227.5C1081.01 230.724 1080.09 233.192 1078.25 234.905C1076.87 236.302 1074.88 237 1072.28 237ZM1075.88 232.177C1076.76 231.081 1077.2 229.522 1077.2 227.5C1077.2 225.486 1076.75 223.931 1075.86 222.835C1074.98 221.731 1073.79 221.179 1072.28 221.179C1070.77 221.179 1069.57 221.727 1068.67 222.823C1067.77 223.919 1067.32 225.478 1067.32 227.5C1067.32 229.522 1067.77 231.081 1068.67 232.177C1069.57 233.273 1070.77 233.821 1072.28 233.821C1073.79 233.821 1074.99 233.273 1075.88 232.177Z" fill="#F80059"/>
<path d="M1096.85 221.727H1087.71V225.856H1095.71V228.974H1087.71V236.501H1083.93V218.572H1096.85V221.727Z" fill="#F80059"/>
<path d="M1119.7 218.548V221.727H1114.25V236.501H1110.41V221.727H1104.94V218.548H1119.7Z" fill="#F80059"/>
<path d="M1132.81 236.501V228.487H1125.69V236.501H1121.91V218.548H1125.69V225.393H1132.81V218.548H1136.59V236.501H1132.81Z" fill="#F80059"/>
<path d="M1152.93 228.657H1144.07V233.273H1154.16V236.501H1140.35V218.548H1153.72V221.727H1144.07V225.539H1152.93V228.657Z" fill="#F80059"/>
<path d="M1173.91 232.81H1167.2L1165.94 236.501H1161.96L1168.46 218.548H1172.76L1179.22 236.501H1175.09L1173.91 232.81ZM1172.85 229.717L1170.57 222.653L1168.22 229.717H1172.85Z" fill="#F80059"/>
<path d="M1189.28 229.461H1185.35V236.501H1181.63V218.548H1190.57C1191.85 218.572 1192.83 218.727 1193.51 219.011C1194.21 219.295 1194.79 219.713 1195.27 220.265C1195.66 220.72 1195.98 221.224 1196.21 221.776C1196.44 222.328 1196.55 222.957 1196.55 223.663C1196.55 224.516 1196.34 225.356 1195.9 226.185C1195.46 227.005 1194.74 227.585 1193.74 227.926C1194.58 228.259 1195.17 228.734 1195.52 229.351C1195.87 229.96 1196.05 230.894 1196.05 232.153V233.358C1196.05 234.178 1196.08 234.735 1196.15 235.027C1196.25 235.49 1196.48 235.831 1196.84 236.05V236.501H1192.65C1192.53 236.103 1192.45 235.782 1192.4 235.538C1192.3 235.035 1192.25 234.519 1192.24 233.992L1192.21 232.323C1192.2 231.178 1191.98 230.415 1191.57 230.033C1191.17 229.652 1190.4 229.461 1189.28 229.461ZM1191.6 226.197C1192.35 225.856 1192.73 225.182 1192.73 224.175C1192.73 223.087 1192.37 222.356 1191.63 221.983C1191.22 221.772 1190.6 221.666 1189.78 221.666H1185.35V226.489H1189.67C1190.52 226.489 1191.17 226.392 1191.6 226.197Z" fill="#F80059"/>
<path d="M1213.09 218.548V221.727H1207.63V236.501H1203.8V221.727H1198.32V218.548H1213.09Z" fill="#F80059"/>
<path d="M1228.99 233.906C1229.89 233.906 1230.62 233.809 1231.18 233.614C1232.24 233.241 1232.77 232.546 1232.77 231.531C1232.77 230.939 1232.51 230.48 1231.98 230.155C1231.45 229.838 1230.63 229.558 1229.5 229.315L1227.57 228.888C1225.67 228.466 1224.36 228.007 1223.64 227.512C1222.41 226.684 1221.79 225.389 1221.79 223.627C1221.79 222.019 1222.39 220.684 1223.57 219.62C1224.76 218.556 1226.5 218.024 1228.8 218.024C1230.73 218.024 1232.36 218.528 1233.71 219.535C1235.07 220.533 1235.79 221.987 1235.85 223.895H1232.19C1232.13 222.815 1231.65 222.048 1230.76 221.593C1230.16 221.293 1229.43 221.142 1228.54 221.142C1227.56 221.142 1226.78 221.337 1226.2 221.727C1225.61 222.117 1225.32 222.661 1225.32 223.359C1225.32 224 1225.61 224.479 1226.18 224.796C1226.55 225.007 1227.35 225.255 1228.56 225.539L1231.7 226.282C1233.07 226.607 1234.11 227.041 1234.81 227.585C1235.9 228.43 1236.45 229.652 1236.45 231.251C1236.45 232.891 1235.81 234.256 1234.53 235.344C1233.26 236.424 1231.46 236.963 1229.14 236.963C1226.76 236.963 1224.9 236.432 1223.54 235.368C1222.18 234.296 1221.5 232.826 1221.5 230.959H1225.13C1225.25 231.779 1225.47 232.392 1225.81 232.798C1226.43 233.537 1227.49 233.906 1228.99 233.906Z" fill="#F80059"/>
<path d="M1247.33 237C1244.72 237 1242.73 236.302 1241.36 234.905C1239.51 233.192 1238.59 230.724 1238.59 227.5C1238.59 224.212 1239.51 221.743 1241.36 220.095C1242.73 218.698 1244.72 218 1247.33 218C1249.93 218 1251.92 218.698 1253.3 220.095C1255.14 221.743 1256.06 224.212 1256.06 227.5C1256.06 230.724 1255.14 233.192 1253.3 234.905C1251.92 236.302 1249.93 237 1247.33 237ZM1250.93 232.177C1251.81 231.081 1252.25 229.522 1252.25 227.5C1252.25 225.486 1251.8 223.931 1250.91 222.835C1250.03 221.731 1248.84 221.179 1247.33 221.179C1245.82 221.179 1244.62 221.727 1243.72 222.823C1242.82 223.919 1242.37 225.478 1242.37 227.5C1242.37 229.522 1242.82 231.081 1243.72 232.177C1244.62 233.273 1245.82 233.821 1247.33 233.821C1248.84 233.821 1250.04 233.273 1250.93 232.177Z" fill="#F80059"/>
<path d="M1269.76 229.583V218.548H1273.63V229.583C1273.63 231.491 1273.33 232.977 1272.73 234.04C1271.61 235.989 1269.47 236.963 1266.31 236.963C1263.15 236.963 1261.01 235.989 1259.88 234.04C1259.28 232.977 1258.98 231.491 1258.98 229.583V218.548H1262.85V229.583C1262.85 230.817 1263 231.718 1263.29 232.287C1263.75 233.293 1264.76 233.797 1266.31 233.797C1267.85 233.797 1268.85 233.293 1269.31 232.287C1269.61 231.718 1269.76 230.817 1269.76 229.583Z" fill="#F80059"/>
<path d="M1292.02 236.501H1288.21L1280.77 223.749V236.501H1277.22V218.548H1281.21L1288.47 231.081V218.548H1292.02V236.501Z" fill="#F80059"/>
<path d="M1303.43 236.501H1295.58V218.548H1303.43C1304.56 218.564 1305.5 218.694 1306.25 218.938C1307.53 219.352 1308.56 220.111 1309.36 221.215C1309.99 222.109 1310.42 223.075 1310.65 224.114C1310.88 225.153 1311 226.144 1311 227.086C1311 229.473 1310.51 231.495 1309.54 233.151C1308.22 235.384 1306.19 236.501 1303.43 236.501ZM1306.26 223.128C1305.68 222.153 1304.52 221.666 1302.79 221.666H1299.28V233.383H1302.79C1304.59 233.383 1305.84 232.51 1306.55 230.764C1306.94 229.806 1307.13 228.665 1307.13 227.342C1307.13 225.515 1306.84 224.11 1306.26 223.128Z" fill="#F80059"/>
</svg>
