<?xml version="1.0" standalone="no"?>
<!DOCTYPE svg PUBLIC "-//W3C//DTD SVG 20010904//EN"
 "http://www.w3.org/TR/2001/REC-SVG-20010904/DTD/svg10.dtd">
<svg version="1.0" xmlns="http://www.w3.org/2000/svg"
 width="661.000000pt" height="661.000000pt" viewBox="0 0 661.000000 661.000000"
 preserveAspectRatio="xMidYMid meet">
<metadata>
Created by potrace 1.14, written by Peter Selinger 2001-2017
</metadata>
<g transform="translate(0.000000,661.000000) scale(0.100000,-0.100000)"
fill="#000000" stroke="none">
<path d="M2798 6308 c8 -10 9 -19 3 -22 -5 -3 -12 0 -15 6 -5 10 -7 10 -12 1
-3 -7 -10 -13 -15 -13 -6 0 -7 6 -3 13 6 10 4 10 -7 0 -7 -7 -25 -13 -40 -13
-15 0 -31 -5 -34 -10 -5 -8 -11 -8 -20 0 -9 8 -15 8 -20 0 -4 -6 -12 -10 -18
-8 -7 1 -30 -2 -52 -7 -22 -5 -49 -9 -60 -10 -11 0 -24 -3 -30 -6 -5 -3 -17
-5 -25 -4 -8 0 -17 -3 -20 -7 -4 -4 -23 -9 -43 -10 -20 -2 -37 -6 -37 -10 0
-5 -3 -7 -7 -7 -5 1 -10 0 -13 -1 -9 -3 -44 -10 -62 -12 -10 -1 -18 -6 -18
-11 0 -5 -9 -7 -20 -4 -11 3 -20 1 -20 -4 0 -5 -9 -9 -19 -9 -11 0 -23 -5 -26
-11 -4 -6 -13 -8 -20 -5 -8 3 -15 0 -17 -5 -2 -6 -10 -11 -18 -12 -8 -1 -37
-15 -64 -30 -27 -15 -52 -27 -57 -27 -5 0 -9 -4 -9 -10 0 -5 -6 -10 -13 -10
-7 0 -21 -11 -31 -25 -10 -13 -22 -22 -27 -19 -5 3 -9 -4 -9 -16 0 -12 -4 -19
-9 -16 -12 8 -56 -82 -55 -111 1 -13 -2 -23 -5 -23 -3 0 -7 -15 -9 -32 -5 -66
-7 -78 -12 -78 -3 0 -6 -14 -7 -32 -1 -17 -8 -35 -15 -40 -10 -6 -10 -8 1 -8
11 0 11 -3 1 -15 -7 -8 -9 -15 -6 -15 4 0 2 -9 -4 -20 -6 -11 -15 -20 -21 -20
-17 0 -179 -83 -200 -103 -10 -10 -19 -15 -19 -12 0 6 -17 -7 -55 -42 -13 -13
-28 -23 -33 -23 -6 0 -17 -10 -25 -22 -9 -13 -29 -39 -47 -58 -17 -19 -33 -45
-36 -57 -4 -13 -11 -23 -17 -23 -6 0 -7 -3 -4 -7 4 -3 3 -11 -2 -17 -4 -6 -14
-40 -20 -76 -7 -36 -14 -74 -16 -85 -2 -11 -4 -20 -5 -20 -1 0 -3 -13 -4 -30
-1 -16 -4 -34 -7 -40 -4 -5 -5 -20 -4 -32 1 -12 -1 -20 -5 -18 -3 2 -7 -12 -7
-31 -1 -38 -22 -60 -85 -91 -21 -10 -38 -22 -38 -26 0 -5 -4 -5 -10 -2 -6 3
-10 2 -10 -3 0 -5 -24 -25 -53 -45 -57 -40 -175 -147 -162 -147 4 0 -5 -11
-21 -25 -16 -14 -24 -25 -19 -25 6 0 2 -5 -7 -11 -10 -5 -18 -16 -18 -24 0 -7
-4 -15 -8 -17 -13 -5 -66 -121 -69 -152 -2 -17 -7 -32 -11 -35 -4 -4 -8 -19
-8 -36 -4 -78 -8 -116 -14 -120 -3 -2 -6 -24 -5 -49 0 -25 -4 -46 -10 -46 -5
0 -3 -5 5 -10 10 -6 11 -10 3 -10 -7 0 -13 -7 -13 -15 0 -8 -4 -15 -10 -15 -9
0 -35 -19 -65 -47 -8 -7 -16 -13 -19 -13 -7 0 -56 -41 -99 -82 -16 -16 -33
-28 -38 -28 -6 0 -8 -4 -4 -9 3 -5 -3 -12 -12 -15 -10 -4 -29 -22 -43 -41 -14
-18 -35 -39 -47 -46 -12 -7 -20 -15 -18 -19 3 -4 -13 -27 -35 -51 -21 -24 -38
-45 -36 -47 2 -2 -7 -15 -20 -29 -13 -14 -21 -29 -19 -33 3 -5 1 -10 -3 -12
-5 -1 -25 -37 -44 -78 -44 -91 -52 -111 -49 -127 1 -7 -2 -13 -8 -13 -5 0 -8
-8 -6 -17 1 -10 -2 -24 -8 -31 -5 -7 -7 -15 -4 -19 4 -3 2 -12 -4 -20 -6 -7
-9 -13 -5 -13 3 0 1 -11 -4 -25 -6 -17 -6 -25 1 -25 6 0 7 -5 2 -12 -8 -13 -9
-21 -16 -139 -2 -36 -8 -72 -12 -79 -6 -9 -4 -11 4 -5 10 6 11 3 3 -11 -5 -11
-8 -36 -8 -56 1 -21 -2 -38 -7 -38 -5 0 -4 -7 3 -15 7 -8 8 -15 3 -15 -5 0 -8
-15 -8 -32 0 -18 -3 -41 -7 -50 -5 -9 -4 -20 2 -23 6 -4 7 -12 3 -18 -8 -13
-12 -46 -15 -120 -1 -26 -6 -47 -11 -47 -5 0 -4 -6 2 -14 9 -11 9 -15 -1 -19
-10 -4 -10 -6 0 -6 9 -1 10 -5 0 -20 -9 -15 -9 -23 1 -35 11 -13 11 -17 -1
-21 -11 -4 -14 -17 -11 -41 2 -23 -1 -34 -9 -34 -9 0 -8 -3 2 -10 13 -9 13
-10 0 -10 -12 0 -12 -2 -1 -9 9 -6 10 -11 2 -15 -6 -4 -11 -13 -11 -19 0 -7 4
-6 11 3 9 12 10 11 4 -5 -11 -32 -18 -158 -19 -340 0 -169 3 -225 14 -225 3 0
7 -12 8 -26 1 -15 8 -34 15 -42 10 -13 9 -14 -1 -8 -11 6 -11 4 -3 -10 5 -11
26 -51 44 -90 48 -98 63 -124 95 -159 6 -7 12 -17 12 -22 0 -5 9 -15 20 -23
11 -8 20 -19 20 -25 0 -6 9 -16 20 -23 12 -7 18 -17 15 -22 -3 -6 -1 -10 4
-10 6 0 43 -32 81 -70 39 -39 70 -67 70 -63 0 4 8 -2 19 -13 29 -30 60 -54 70
-54 5 0 18 -11 29 -25 11 -13 21 -22 24 -20 3 3 16 -5 30 -18 14 -13 31 -21
38 -19 7 3 10 0 7 -5 -3 -5 9 -16 28 -23 19 -8 35 -17 35 -22 0 -4 6 -8 14 -8
7 0 19 -7 26 -15 7 -8 16 -12 21 -9 5 3 9 2 9 -3 0 -4 42 -28 93 -53 50 -25
95 -49 98 -54 4 -5 12 -5 18 -2 6 4 11 2 11 -3 0 -6 4 -11 10 -11 18 0 90 -34
90 -43 0 -4 4 -6 8 -3 5 3 21 -2 36 -10 16 -7 35 -14 42 -14 8 0 14 -4 14 -8
0 -4 12 -9 28 -10 15 -1 29 -7 30 -12 2 -6 12 -10 23 -10 11 0 27 -4 37 -9 16
-9 47 -21 65 -26 4 -2 8 -3 10 -4 1 -2 13 -5 27 -7 13 -3 29 -9 34 -14 4 -4
14 -6 21 -4 7 3 16 1 20 -5 3 -6 17 -11 31 -11 13 0 24 -5 24 -11 0 -5 5 -7
10 -4 6 4 24 0 40 -9 17 -8 27 -10 24 -4 -5 7 -2 8 7 2 8 -4 20 -10 27 -11 32
-7 47 -12 47 -14 0 -1 34 -8 63 -11 6 -1 12 -4 12 -8 0 -3 8 -6 18 -7 24 -2
62 -10 101 -22 19 -6 37 -8 42 -6 4 3 10 1 13 -4 4 -5 17 -8 31 -6 14 1 28 -1
30 -6 3 -4 14 -6 25 -4 11 2 20 -1 20 -7 0 -6 11 -8 25 -6 14 3 28 1 31 -4 3
-4 10 -6 15 -3 5 4 15 3 21 -2 14 -8 41 -12 96 -15 17 -1 32 -4 32 -7 0 -4 15
-7 33 -8 82 -5 102 -9 109 -17 4 -6 14 -4 25 4 10 8 15 11 11 6 -4 -4 1 -16
10 -25 16 -16 79 -17 852 -15 930 2 883 1 876 12 -2 4 4 14 16 21 16 10 19 10
12 -1 -6 -10 -5 -10 7 -2 8 6 21 11 29 12 19 0 105 10 105 12 0 3 54 12 153
26 28 4 52 10 52 13 0 4 14 6 30 5 17 -1 30 1 30 4 0 4 10 8 23 8 12 1 33 4
47 8 14 3 35 8 48 11 12 3 32 8 45 11 12 3 34 5 49 5 15 0 30 5 34 10 3 5 10
7 15 4 5 -4 9 -2 9 3 0 5 6 9 13 10 6 0 26 4 42 7 17 4 37 8 45 9 8 1 22 5 30
8 61 24 85 30 118 32 12 1 22 4 22 7 0 9 28 20 65 26 17 3 36 10 44 16 8 7 21
12 30 13 9 0 27 5 41 11 14 6 28 11 32 13 4 1 38 14 75 30 37 16 71 26 75 24
4 -3 8 -1 8 4 0 5 21 17 48 27 26 10 57 25 70 33 12 8 22 10 22 6 0 -5 7 0 15
10 8 11 15 16 15 12 0 -4 24 6 54 23 30 16 57 27 60 24 3 -4 6 -1 6 5 0 7 7
12 15 12 7 0 18 7 23 16 5 9 13 16 18 16 23 2 44 11 44 19 0 5 7 9 15 9 8 0
15 5 15 10 0 6 6 10 14 10 7 0 25 11 40 25 14 13 29 25 31 25 3 0 8 0 13 0 4
0 22 14 40 31 17 16 32 26 32 22 0 -4 6 -1 13 7 7 9 27 26 45 39 18 12 29 27
26 33 -4 7 -2 8 4 4 7 -4 12 -2 12 3 0 6 4 10 9 8 5 -1 41 32 80 73 110 116
121 128 121 137 0 4 14 24 30 43 17 19 28 40 26 47 -3 6 2 14 10 17 8 3 14 12
14 21 0 8 5 15 12 15 6 0 9 2 6 5 -3 3 8 31 23 62 15 31 25 61 22 67 -4 6 1 5
10 -3 15 -12 17 -12 11 3 -3 9 -2 16 2 16 13 0 12 703 -1 712 -6 5 -6 8 2 8
12 0 10 30 -3 52 -4 6 -3 8 4 5 6 -5 8 0 5 12 -3 13 -11 18 -21 15 -14 -5 -14
-4 1 6 9 6 17 15 17 20 0 6 -8 10 -17 10 -15 0 -16 2 -3 10 8 5 10 10 4 10
-10 0 -13 19 -17 128 -1 17 -5 32 -10 32 -5 0 -4 7 3 15 7 8 9 15 4 15 -5 0
-10 11 -10 25 -1 16 2 23 10 19 6 -3 2 2 -8 10 -11 9 -15 16 -8 16 6 0 9 6 6
13 -3 8 -6 34 -8 58 -1 25 -6 51 -11 59 -5 9 -4 11 3 6 9 -5 10 0 4 16 -4 13
-7 32 -7 43 1 11 -3 26 -8 33 -6 8 -6 12 1 12 6 0 9 12 6 28 -3 15 -6 51 -7
80 -1 28 -4 52 -7 52 -5 0 -9 41 -10 97 0 12 -5 25 -10 28 -5 3 -7 12 -4 19 3
8 1 17 -5 20 -6 4 -8 13 -4 21 3 8 0 15 -6 15 -6 0 -11 7 -11 16 0 8 -9 34
-19 57 -11 23 -19 44 -18 47 1 3 -8 19 -21 37 -12 17 -22 36 -22 43 0 6 -4 8
-10 5 -5 -3 -10 3 -10 14 0 12 -4 21 -10 21 -5 0 -10 7 -10 15 0 8 -4 15 -10
15 -5 0 -10 6 -10 13 0 7 -33 48 -73 90 -40 43 -71 79 -69 82 3 2 -7 10 -21
16 -15 7 -24 16 -21 20 3 5 1 9 -4 9 -5 0 -23 13 -40 30 -18 17 -34 30 -37 30
-3 0 -17 10 -31 23 -57 51 -64 57 -72 57 -5 0 -23 14 -41 32 -24 23 -32 40
-31 62 1 17 1 33 0 36 -1 3 -3 34 -4 70 -2 36 -4 65 -5 65 -2 0 -4 23 -6 52
-2 28 -8 60 -14 71 -6 12 -11 30 -11 41 0 12 -4 21 -10 21 -5 0 -10 9 -10 20
0 11 -4 20 -10 20 -5 0 -10 6 -10 14 0 8 -7 22 -16 30 -8 9 -13 16 -10 16 3 0
-4 12 -17 27 -38 46 -134 143 -141 143 -4 0 -18 11 -31 24 -14 14 -38 33 -55
42 -16 10 -30 22 -30 27 0 4 -4 5 -10 2 -5 -3 -10 -2 -10 3 0 5 -8 12 -17 16
-55 18 -113 63 -107 81 3 8 2 20 -2 27 -4 7 -9 24 -11 38 -8 64 -12 87 -18
110 -4 14 -8 40 -8 58 -1 17 -4 32 -7 32 -5 0 -10 27 -13 68 0 6 -3 12 -6 12
-4 0 -12 9 -19 21 -8 12 -9 18 -3 15 24 -15 -56 92 -89 119 -21 17 -36 33 -33
38 2 4 -3 7 -11 7 -9 0 -16 5 -16 10 0 6 -7 10 -15 10 -9 0 -18 6 -21 14 -3 8
-16 17 -30 20 -13 4 -24 11 -24 16 0 6 -5 10 -11 10 -6 0 -17 7 -26 15 -8 8
-19 13 -24 10 -5 -4 -9 -1 -9 5 0 6 -4 8 -10 5 -5 -3 -10 -1 -10 6 0 7 -3 10
-6 6 -4 -3 -13 1 -21 9 -8 8 -19 12 -24 9 -5 -4 -9 -2 -9 3 0 9 -36 25 -51 23
-4 0 -9 9 -12 19 -3 11 0 20 6 20 8 0 8 3 2 8 -11 8 -16 25 -19 59 0 13 -4 23
-7 23 -3 0 -5 10 -4 23 1 12 -1 27 -6 32 -4 6 -8 20 -8 30 0 11 -3 34 -6 50
-4 17 -7 38 -8 48 -1 9 -4 17 -7 17 -4 0 -14 16 -23 35 -9 19 -21 35 -27 35
-5 0 -10 7 -10 17 0 9 -3 13 -6 10 -4 -4 -15 3 -25 15 -11 11 -19 17 -19 13 0
-4 -9 2 -20 15 -11 13 -20 19 -20 14 0 -5 -4 -4 -8 1 -8 12 -62 43 -77 44 -21
2 -45 13 -45 20 0 4 -10 8 -22 8 -13 1 -24 7 -26 12 -2 5 -10 7 -19 4 -12 -5
-14 -3 -8 8 7 12 6 12 -7 1 -10 -8 -17 -9 -20 -2 -1 5 -13 12 -24 14 -12 3
-38 9 -58 14 -20 6 -36 7 -36 4 0 -4 -4 -2 -8 5 -4 6 -23 14 -42 16 -19 3 -35
6 -35 7 0 1 -13 3 -28 5 -16 2 -34 8 -40 12 -7 5 -29 8 -49 8 -21 0 -38 2 -38
5 0 3 -15 6 -32 7 -33 1 -109 10 -118 14 -3 1 -9 1 -13 0 -5 -1 -6 3 -2 9 3 5
-1 10 -10 10 -10 0 -13 5 -9 13 6 9 4 9 -7 1 -21 -17 -72 -25 -59 -9 8 9 -2
12 -40 11 -27 -1 -52 -5 -56 -8 -3 -4 -14 -2 -24 4 -14 9 -22 8 -36 -3 -11 -9
-15 -9 -10 -1 6 9 -60 12 -314 12 -254 0 -320 -3 -314 -12 6 -10 4 -10 -7 0
-15 13 -43 17 -35 4 3 -5 -1 -9 -9 -9 -8 0 -12 4 -9 9 3 4 1 8 -5 8 -5 0 -12
-6 -14 -12 -4 -9 -6 -9 -6 -1 -1 6 -10 9 -21 6 -11 -3 -17 -9 -14 -14 3 -5 -2
-6 -11 -2 -10 3 -21 0 -27 -8 -7 -10 -8 -7 -4 11 3 14 3 19 0 12 -5 -10 -9
-10 -22 0 -15 11 -15 11 -4 -4z"/>
<path d="M3913 6305 c0 -8 4 -12 9 -9 5 3 6 10 3 15 -9 13 -12 11 -12 -6z"/>
<path d="M3950 6309 c0 -5 5 -7 10 -4 6 3 10 8 10 11 0 2 -4 4 -10 4 -5 0 -10
-5 -10 -11z"/>
</g>
</svg>
